<svg width="16" height="16" viewBox="0 0 16 16" fill="none" xmlns="http://www.w3.org/2000/svg">
<path fill-rule="evenodd" clip-rule="evenodd" d="M0.666626 8.00008C0.666626 3.94999 3.94987 0.666748 7.99996 0.666748C12.05 0.666748 15.3333 3.94999 15.3333 8.00008C15.3333 12.0502 12.05 15.3334 7.99996 15.3334C3.94987 15.3334 0.666626 12.0502 0.666626 8.00008ZM11.0319 7.10682C11.3043 6.85915 11.3244 6.43752 11.0768 6.16508C10.8291 5.89264 10.4075 5.87257 10.135 6.12024L6.91679 9.04589L5.69858 7.93842C5.42614 7.69075 5.0045 7.71083 4.75683 7.98326C4.50916 8.2557 4.52924 8.67733 4.80168 8.925L6.46835 10.4402C6.72263 10.6713 7.11096 10.6713 7.36524 10.4402L11.0319 7.10682Z" fill="#66B71B"/>
</svg>
