<svg width="33" height="32" viewBox="0 0 33 32" fill="none" xmlns="http://www.w3.org/2000/svg">
<path d="M1.5 16C1.5 17.9698 1.88799 19.9204 2.64181 21.7403C3.39563 23.5601 4.50052 25.2137 5.8934 26.6066C7.28628 27.9995 8.93986 29.1044 10.7597 29.8582C12.5796 30.612 14.5302 31 16.5 31C18.4698 31 20.4204 30.612 22.2403 29.8582C24.0601 29.1044 25.7137 27.9995 27.1066 26.6066C28.4995 25.2137 29.6044 23.5601 30.3582 21.7403C31.112 19.9204 31.5 17.9698 31.5 16C31.5 14.0302 31.112 12.0796 30.3582 10.2597C29.6044 8.43986 28.4995 6.78628 27.1066 5.3934C25.7137 4.00052 24.0601 2.89563 22.2403 2.14181C20.4204 1.38799 18.4698 1 16.5 1C14.5302 1 12.5796 1.38799 10.7597 2.14181C8.93986 2.89563 7.28628 4.00052 5.8934 5.3934C4.50052 6.78628 3.39563 8.43986 2.64181 10.2597C1.88799 12.0796 1.5 14.0302 1.5 16Z" stroke="#8E8E93" stroke-width="2" stroke-linecap="round" stroke-linejoin="round"/>
<path d="M6.78003 27.415C7.19254 26.0421 8.03664 24.8387 9.18711 23.9833C10.3376 23.128 11.7331 22.6663 13.1667 22.6667H19.8334C21.2688 22.6662 22.666 23.129 23.8173 23.9863C24.9686 24.8436 25.8125 26.0497 26.2234 27.425M11.5 12.6667C11.5 13.9928 12.0268 15.2645 12.9645 16.2022C13.9022 17.1399 15.1739 17.6667 16.5 17.6667C17.8261 17.6667 19.0979 17.1399 20.0356 16.2022C20.9732 15.2645 21.5 13.9928 21.5 12.6667C21.5 11.3406 20.9732 10.0688 20.0356 9.13115C19.0979 8.19347 17.8261 7.66669 16.5 7.66669C15.1739 7.66669 13.9022 8.19347 12.9645 9.13115C12.0268 10.0688 11.5 11.3406 11.5 12.6667Z" stroke="#8E8E93" stroke-width="2" stroke-linecap="round" stroke-linejoin="round"/>
</svg>
