<svg width="127" height="57" viewBox="0 0 127 57" fill="none" xmlns="http://www.w3.org/2000/svg">
<path d="M31.5381 11.5174C32.7517 9.2003 33.3584 6.64583 33.3584 3.85388V-5.34058e-05H26.7458V3.85388C26.7458 5.24986 26.4866 6.5702 25.9679 7.81734C25.4468 9.06195 24.7284 10.1474 23.813 11.0685C22.8951 11.9922 21.8293 12.7124 20.6182 13.2368C19.4021 13.7614 18.1029 14.0222 16.7155 14.0222C14.833 14.0222 13.0384 14.3196 11.3295 14.9198C9.62067 15.5173 8.04657 16.3653 6.61254 17.4612V-5.34058e-05H0V40.0289C0 42.3198 0.433119 44.4881 1.29917 46.5311C2.16529 48.5767 3.35301 50.3719 4.86476 51.914C6.37659 53.4613 8.14774 54.6694 10.1781 55.5409C12.2086 56.4124 14.3636 56.8481 16.643 56.8481C18.969 56.8481 21.1369 56.4124 23.1439 55.5409C25.1484 54.6694 26.9196 53.4613 28.4547 51.914C29.99 50.3719 31.1931 48.5767 32.0593 46.5311C32.9254 44.4881 33.3584 42.3198 33.3584 40.0289V39.6583H26.7458V40.0289C26.7458 41.4248 26.4866 42.745 25.9679 43.9897C25.4468 45.2368 24.7284 46.3198 23.813 47.2434C22.8951 48.1645 21.8189 48.8872 20.5794 49.4091C19.3424 49.9336 18.0276 50.1945 16.643 50.1945C15.2555 50.1945 13.9539 49.9336 12.7403 49.4091C11.5266 48.8872 10.4635 48.1645 9.54548 47.2434C8.63005 46.3198 7.91175 45.2368 7.3931 43.9897C6.87187 42.745 6.61254 41.4248 6.61254 40.0289V30.7685C6.61254 29.3725 6.87187 28.0653 7.3931 26.8442C7.91175 25.6231 8.63005 24.5506 9.54548 23.6296C10.4635 22.7059 11.5395 21.9831 12.7791 21.4613C14.0161 20.9368 15.3282 20.6759 16.7155 20.6759C18.1029 20.6759 19.4021 20.9368 20.6182 21.4613C21.8293 21.9831 22.8951 22.7059 23.813 23.6296C24.7284 24.5506 25.4468 25.6231 25.9679 26.8442C26.471 28.0262 26.7303 29.2917 26.7458 30.638H33.3558C33.3377 27.9478 32.7334 25.4482 31.5381 23.1416C31.0765 22.2492 30.55 21.4143 29.9614 20.6393C29.0071 19.3764 27.8843 18.2675 26.5981 17.3125C28.6778 15.7678 30.3244 13.8344 31.5381 11.5174Z" fill="#1199FF"/>
<path d="M61.5072 8.60543H56.7262L48.4924 17.3358V8.60543H44.2161V27.3137H48.4924V22.591L50.9839 19.9742L56.9388 27.3137H61.9588L53.8097 16.9406L61.5072 8.60543Z" fill="#959595"/>
<path d="M69.8144 20.0174L72.7736 12.8576L75.7211 20.0174H69.8144ZM70.6769 8.60543L62.3899 27.3137H66.799L68.4558 23.3047H77.0744L78.7249 27.3137H83.2402L74.9266 8.60543H70.6769Z" fill="#959595"/>
<path d="M91.0924 20.0174L94.0515 12.8575L96.9993 20.0174H91.0924ZM91.9547 8.60543L83.6677 27.3137H88.0769L89.7338 23.3047H98.3521L100.003 27.3137H104.518L96.2045 8.60543H91.9547Z" fill="#959595"/>
<path d="M127 27.3137L126.947 8.60543H123.415L116.567 20.2221L109.603 8.60543H106.044V27.3137H110.081V16.3269L115.526 25.3361H117.465L122.939 16.085L122.963 27.3137H127Z" fill="#959595"/>
<path d="M49.0763 35.589C49.6074 35.0544 50.2358 34.6448 50.9621 34.3595C51.6879 34.0747 52.4847 33.932 53.3526 33.932C54.273 33.932 55.123 34.1149 55.9024 34.4798C56.6814 34.8453 57.3898 35.3931 58.0273 36.1236L60.7896 33.5579C59.904 32.4712 58.8108 31.6469 57.5093 31.0857C56.2078 30.5244 54.7511 30.2439 53.14 30.2439C51.6879 30.2439 50.3512 30.48 49.1293 30.952C47.9075 31.4245 46.8405 32.097 45.9288 32.9699C45.0166 33.8431 44.3085 34.8674 43.8039 36.0434C43.2993 37.2193 43.0469 38.5112 43.0469 39.9186C43.0469 41.3264 43.2993 42.618 43.8039 43.794C44.3085 44.9699 45.0124 45.9945 45.9155 46.8672C46.8185 47.7405 47.8852 48.4132 49.1161 48.8851C50.3467 49.357 51.6792 49.5935 53.1135 49.5935C54.7423 49.5935 56.2078 49.308 57.5093 48.738C58.8108 48.1681 59.904 47.3397 60.7896 46.2526L58.0273 43.687C57.3898 44.4353 56.6814 44.9923 55.9024 45.3572C55.123 45.7226 54.273 45.905 53.3526 45.905C52.4847 45.905 51.6879 45.7629 50.9621 45.4775C50.2358 45.1928 49.6074 44.7826 49.0763 44.2483C48.545 43.7137 48.1333 43.0815 47.8412 42.3507C47.549 41.6201 47.4029 40.8099 47.4029 39.9186C47.4029 39.0279 47.549 38.2174 47.8412 37.4866C48.1333 36.7561 48.545 36.1236 49.0763 35.589Z" fill="#1199FF"/>
<path d="M68.4579 41.9753L71.4169 34.8156L74.3645 41.9753H68.4579ZM69.3202 30.5633L61.0332 49.2717H65.4423L67.0993 45.2627H75.7177L77.3682 49.2717H81.8836L73.5699 30.5633H69.3202Z" fill="#1199FF"/>
<path d="M94.1961 34.9467C94.851 35.5169 95.1788 36.3189 95.1788 37.3518C95.1788 38.3675 94.851 39.1651 94.1961 39.7438C93.5407 40.3232 92.5492 40.6123 91.2212 40.6123H87.7151V34.0912H91.2212C92.5492 34.0912 93.5407 34.3767 94.1961 34.9467ZM95.7631 43.2584C96.9671 42.7237 97.8963 41.9535 98.5525 40.9465C99.2067 39.9402 99.5348 38.7416 99.5348 37.3518C99.5348 35.9445 99.2067 34.7329 98.5525 33.7172C97.8963 32.7016 96.9671 31.9223 95.7631 31.3786C94.5586 30.8353 93.1244 30.5633 91.4603 30.5633H83.4124V49.2717H87.7151V44.06H91.4603C91.5283 44.06 91.5935 44.0568 91.6607 44.0559L95.2319 49.2717H99.8802L95.7261 43.2734C95.7381 43.2682 95.751 43.2637 95.7631 43.2584Z" fill="#1199FF"/>
<path d="M106.793 45.7973V41.4678H115.425V38.1002H106.793V34.0379H116.567V30.5633H102.517V49.2717H116.912V45.7973H106.793Z" fill="#1199FF"/>
</svg>
