<svg width="65" height="65" viewBox="0 0 65 65" fill="none" xmlns="http://www.w3.org/2000/svg">
<path d="M29.8327 16.5007C29.8327 15.034 31.0327 13.834 32.4993 13.834C33.966 13.834 35.166 15.034 35.166 16.5007C35.166 17.9673 33.966 19.1673 32.4993 19.1673C31.0327 19.1673 29.8327 17.9673 29.8327 16.5007ZM21.8327 24.5007C23.2993 24.5007 24.4993 23.3006 24.4993 21.834C24.4993 20.3673 23.2993 19.1673 21.8327 19.1673C20.366 19.1673 19.166 20.3673 19.166 21.834C19.166 23.3006 20.366 24.5007 21.8327 24.5007ZM16.4993 13.834C16.4993 12.3673 15.2993 11.1673 13.8327 11.1673C12.366 11.1673 11.166 12.3673 11.166 13.834C11.166 15.3007 12.366 16.5007 13.8327 16.5007C15.2993 16.5007 16.4993 15.3007 16.4993 13.834ZM24.4993 11.1673C25.966 11.1673 27.166 9.96732 27.166 8.50065C27.166 7.03398 25.966 5.83398 24.4993 5.83398C23.0327 5.83398 21.8327 7.03398 21.8327 8.50065C21.8327 9.96732 23.0327 11.1673 24.4993 11.1673ZM40.4993 11.1673C41.966 11.1673 43.166 9.96732 43.166 8.50065C43.166 7.03398 41.966 5.83398 40.4993 5.83398C39.0327 5.83398 37.8327 7.03398 37.8327 8.50065C37.8327 9.96732 39.0327 11.1673 40.4993 11.1673ZM51.166 11.1673C49.6993 11.1673 48.4993 12.3673 48.4993 13.834C48.4993 15.3007 49.6993 16.5007 51.166 16.5007C52.6327 16.5007 53.8327 15.3007 53.8327 13.834C53.8327 12.3673 52.6327 11.1673 51.166 11.1673ZM40.4993 21.834C40.4993 23.3006 41.6993 24.5007 43.166 24.5007C44.6327 24.5007 45.8327 23.3006 45.8327 21.834C45.8327 20.3673 44.6327 19.1673 43.166 19.1673C41.6993 19.1673 40.4993 20.3673 40.4993 21.834ZM49.8327 35.354C49.8327 37.2473 49.1393 39.0606 47.9927 40.5006C49.1127 41.9406 49.8327 43.754 49.8327 45.6473C49.8327 50.2607 46.0193 54.0206 41.406 54.0206L40.2593 53.9407C39.006 57.0073 35.9927 59.1673 32.4993 59.1673C29.006 59.1673 25.9927 57.0073 24.7393 53.9407L23.5927 54.0206C18.9527 54.0206 15.166 50.2607 15.166 45.6473C15.166 43.754 15.8593 41.9406 17.006 40.5006C15.886 39.0606 15.166 37.2473 15.166 35.354C15.166 30.7406 18.9793 26.9806 23.5927 26.9806L24.7393 27.0606C25.9927 23.994 29.006 21.834 32.4993 21.834C35.9927 21.834 39.006 23.994 40.2593 27.0606L41.406 26.9806C46.0193 26.9806 49.8327 30.7406 49.8327 35.354ZM20.4993 35.354C20.4993 36.5006 21.2193 37.5673 22.286 38.1007L24.6327 39.1673C24.9527 37.2473 25.9927 35.5406 27.4593 34.3406L25.2993 32.8473C24.8193 32.5007 24.2327 32.314 23.5927 32.314C21.9127 32.314 20.4993 33.674 20.4993 35.354ZM27.486 46.6606C25.9927 45.4606 24.9527 43.754 24.6327 41.834L22.286 42.9006C21.2193 43.434 20.4993 44.5006 20.4993 45.6206C20.4993 47.3006 21.9127 48.6606 23.5927 48.6606C24.206 48.6606 24.7927 48.5006 25.326 48.1273L27.486 46.6606ZM35.5393 50.9006L35.246 47.994C34.3927 48.314 33.4593 48.5006 32.4993 48.5006C31.5393 48.5006 30.6327 48.314 29.8327 47.994L29.4593 50.9006C29.5127 52.5006 30.846 53.834 32.4993 53.834C34.1527 53.834 35.486 52.5006 35.5393 50.9006ZM35.5393 30.1007C35.486 28.5007 34.1527 27.1673 32.4993 27.1673C30.846 27.1673 29.5127 28.5007 29.4593 30.1007L29.8327 33.0073C30.6327 32.6873 31.5393 32.5006 32.4993 32.5006C33.4593 32.5006 34.3927 32.6873 35.246 33.0073L35.5393 30.1007ZM44.4993 45.6206C44.4993 44.5006 43.7793 43.3806 42.7127 42.874L40.366 41.754C40.046 43.7273 39.006 45.434 37.5393 46.634L39.6993 48.154C40.1793 48.5007 40.766 48.6873 41.406 48.6873C43.086 48.6873 44.4993 47.3273 44.4993 45.6206ZM44.4993 35.354C44.4993 33.674 43.086 32.314 41.406 32.314C40.7927 32.314 40.206 32.5007 39.6727 32.8473L37.486 34.3406C38.9793 35.5406 40.0193 37.2473 40.3393 39.1673L42.686 38.1007C43.7793 37.5673 44.4993 36.5006 44.4993 35.354Z" fill="#C9E3FF"/>
</svg>
