<svg width="21" height="20" viewBox="0 0 21 20" fill="none" xmlns="http://www.w3.org/2000/svg">
<path d="M17.5308 7.0972C17.449 7.14495 15.5004 8.15266 15.5004 10.387C15.5923 12.9351 17.9594 13.8287 18 13.8287C17.9594 13.8765 17.6426 15.046 16.7043 16.272C15.9596 17.3281 15.1331 18.3929 13.878 18.3929C12.6841 18.3929 12.2555 17.689 10.878 17.689C9.3986 17.689 8.98001 18.3929 7.84736 18.3929C6.59225 18.3929 5.70449 17.271 4.91922 16.2249C3.89903 14.8556 3.0319 12.7069 3.00129 10.6437C2.98066 9.55043 3.2056 8.47575 3.77658 7.56292C4.58249 6.28855 6.02126 5.42347 7.59248 5.39495C8.79634 5.35712 9.86777 6.16515 10.6025 6.16515C11.3066 6.16515 12.6229 5.39495 14.1122 5.39495C14.7551 5.39557 16.4694 5.57602 17.5308 7.0972ZM10.5006 5.17666C10.2864 4.17825 10.878 3.17984 11.429 2.54297C12.1331 1.77277 13.2451 1.25 14.2041 1.25C14.2653 2.24841 13.8773 3.22759 13.1839 3.94074C12.5617 4.71094 11.4902 5.29076 10.5006 5.17666Z" fill="black"/>
</svg>
