<svg width="47" height="47" viewBox="0 0 47 47" fill="none" xmlns="http://www.w3.org/2000/svg">
<path d="M29.3753 11.7498V9.7915C29.3753 8.23336 28.7564 6.73903 27.6546 5.63725C26.5528 4.53548 25.0585 3.9165 23.5003 3.9165C21.9422 3.9165 20.4479 4.53548 19.3461 5.63725C18.2443 6.73903 17.6253 8.23336 17.6253 9.7915V22.223C17.6253 22.8849 17.2826 23.492 16.7656 23.9072C15.0241 25.3021 13.7589 27.2035 13.1446 29.3487C12.5304 31.4938 12.5976 33.7767 13.3368 35.882C14.076 37.9873 15.4509 39.811 17.2713 41.1012C19.0918 42.3914 21.268 43.0844 23.4994 43.0844C25.7307 43.0844 27.9069 42.3914 29.7274 41.1012C31.5478 39.811 32.9227 37.9873 33.6619 35.882C34.4011 33.7767 34.4683 31.4938 33.8541 29.3487C33.2398 27.2035 31.9746 25.3021 30.2331 23.9072C29.718 23.492 29.3753 22.8849 29.3753 22.223V19.5832" stroke="#0072EF" stroke-width="1.5" stroke-linecap="round"/>
<path d="M28.3971 32.3123C28.3971 33.6108 27.8813 34.8561 26.9632 35.7742C26.045 36.6924 24.7998 37.2082 23.5013 37.2082C22.2028 37.2082 20.9576 36.6924 20.0394 35.7742C19.1213 34.8561 18.6055 33.6108 18.6055 32.3123C18.6055 31.0139 19.1213 29.7686 20.0394 28.8505C20.9576 27.9323 22.2028 27.4165 23.5013 27.4165C24.7998 27.4165 26.045 27.9323 26.9632 28.8505C27.8813 29.7686 28.3971 31.0139 28.3971 32.3123Z" stroke="#0072EF" stroke-width="1.5"/>
<path d="M23.5 27.4165V23.4998M23.5 9.7915V15.6665" stroke="#0072EF" stroke-width="1.5" stroke-linecap="round"/>
</svg>
