<svg width="45" height="45" viewBox="0 0 45 45" fill="none" xmlns="http://www.w3.org/2000/svg">
<path d="M10.3125 29.0624C6.165 27.4068 3.75 23.3118 3.75 19.078C3.75 13.5843 8.09437 8.15617 11.1431 5.02492C12.7987 3.32242 15.3244 3.32242 16.9819 5.02492C17.9044 5.9718 18.6844 7.12867 19.6875 8.43555M15 27.9862C15 21.3187 20.5294 14.7299 24.4106 10.9237C26.5181 8.8593 29.7319 8.8593 31.8394 10.9237C35.7206 14.7299 41.25 21.3187 41.25 27.9862C41.25 34.5243 36.2812 41.2499 28.125 41.2499C19.9688 41.2499 15 34.5243 15 27.9862Z" stroke="#0072EF" stroke-width="1.5" stroke-linecap="round" stroke-linejoin="round"/>
<path d="M34.6875 29.0625C34.6875 33.2063 31.875 34.6875 29.0625 34.6875" stroke="#0072EF" stroke-width="1.5" stroke-linecap="round" stroke-linejoin="round"/>
</svg>
