<svg width="65" height="64" viewBox="0 0 65 64" fill="none" xmlns="http://www.w3.org/2000/svg">
<path d="M48.5 4H16.5C15.4391 4 14.4217 4.42143 13.6716 5.17157C12.9214 5.92172 12.5 6.93913 12.5 8V16C12.5 17.0609 12.9214 18.0783 13.6716 18.8284C14.4217 19.5786 15.4391 20 16.5 20V56C16.5 57.0609 16.9214 58.0783 17.6716 58.8284C18.4217 59.5786 19.4391 60 20.5 60H44.5C45.5609 60 46.5783 59.5786 47.3284 58.8284C48.0786 58.0783 48.5 57.0609 48.5 56V20C49.5609 20 50.5783 19.5786 51.3284 18.8284C52.0786 18.0783 52.5 17.0609 52.5 16V8C52.5 6.93913 52.0786 5.92172 51.3284 5.17157C50.5783 4.42143 49.5609 4 48.5 4ZM20.5 28H26.5V48H20.5V28ZM44.5 56H20.5V52H30.5V24H20.5V20H44.5V56ZM16.5 16V8H48.5V16H16.5Z" fill="#C9E3FF"/>
</svg>
