<svg width="16" height="16" viewBox="0 0 16 16" fill="none" xmlns="http://www.w3.org/2000/svg">
<path fill-rule="evenodd" clip-rule="evenodd" d="M0.666504 7.99984C0.666504 3.94975 3.94975 0.666504 7.99984 0.666504C12.0499 0.666504 15.3332 3.94975 15.3332 7.99984C15.3332 12.0499 12.0499 15.3332 7.99984 15.3332C3.94975 15.3332 0.666504 12.0499 0.666504 7.99984ZM11.0318 7.10658C11.3042 6.85891 11.3243 6.43728 11.0766 6.16484C10.829 5.8924 10.4073 5.87232 10.1349 6.11999L6.91667 9.04565L5.69845 7.93817C5.42601 7.6905 5.00438 7.71058 4.75671 7.98302C4.50904 8.25546 4.52912 8.67709 4.80156 8.92476L6.46822 10.4399C6.7225 10.6711 7.11084 10.6711 7.36512 10.4399L11.0318 7.10658Z" fill="#66B71B"/>
</svg>
