<svg width="21" height="21" viewBox="0 0 21 21" fill="none" xmlns="http://www.w3.org/2000/svg">
<path fill-rule="evenodd" clip-rule="evenodd" d="M10.5 21C11.8789 21 13.2443 20.7284 14.5182 20.2007C15.7921 19.6731 16.9496 18.8996 17.9246 17.9246C18.8996 16.9496 19.6731 15.7921 20.2007 14.5182C20.7284 13.2443 21 11.8789 21 10.5C21 9.12112 20.7284 7.75574 20.2007 6.48182C19.6731 5.20791 18.8996 4.05039 17.9246 3.07538C16.9496 2.10036 15.7921 1.32694 14.5182 0.799265C13.2443 0.27159 11.8789 -2.05469e-08 10.5 0C7.71523 4.14964e-08 5.04451 1.10625 3.07538 3.07538C1.10625 5.04451 0 7.71523 0 10.5C0 13.2848 1.10625 15.9555 3.07538 17.9246C5.04451 19.8938 7.71523 21 10.5 21ZM10.2293 14.7467L16.0627 7.74667L14.2707 6.25333L9.254 12.2722L6.65817 9.67517L5.0085 11.3248L8.5085 14.8248L9.4115 15.7278L10.2293 14.7467Z" fill="#34C759"/>
</svg>
