<svg width="65" height="64" viewBox="0 0 65 64" fill="none" xmlns="http://www.w3.org/2000/svg">
<path d="M53.9263 53.4287L44.5937 44.0927M30.708 49.8527C33.3091 49.887 35.891 49.4044 38.3041 48.4328C40.7171 47.4612 42.9131 46.02 44.7646 44.1927C46.6161 42.3655 48.0863 40.1888 49.0897 37.7888C50.0931 35.3888 50.6098 32.8134 50.6098 30.2121C50.6098 27.6108 50.0931 25.0354 49.0897 22.6354C48.0863 20.2354 46.6161 18.0587 44.7646 16.2315C42.9131 14.4043 40.7171 12.963 38.3041 11.9914C35.891 11.0198 33.3091 10.5372 30.708 10.5715C25.5439 10.6398 20.6145 12.7391 16.9868 16.415C13.3592 20.0909 11.3252 25.0476 11.3252 30.2121C11.3252 35.3766 13.3592 40.3333 16.9868 44.0092C20.6145 47.6852 25.5439 49.7844 30.708 49.8527Z" stroke="#C9E3FF" stroke-width="3.42857" stroke-linecap="round" stroke-linejoin="round"/>
<path d="M27.9244 19.1782C27.4698 19.1782 27.0338 19.3588 26.7123 19.6803C26.3908 20.0018 26.2102 20.4379 26.2102 20.8925V25.7131H21.3862C20.9315 25.7131 20.4955 25.8937 20.174 26.2152C19.8525 26.5367 19.6719 26.9727 19.6719 27.4274V32.9988C19.6719 33.4535 19.8525 33.8895 20.174 34.211C20.4955 34.5325 20.9315 34.7131 21.3862 34.7131H26.2102V39.5371C26.2102 39.9917 26.3908 40.4278 26.7123 40.7493C27.0338 41.0708 27.4698 41.2514 27.9244 41.2514H33.4924C33.9471 41.2514 34.3831 41.0708 34.7046 40.7493C35.0261 40.4278 35.2067 39.9917 35.2067 39.5371V34.7096H40.0273C40.482 34.7096 40.918 34.529 41.2395 34.2075C41.561 33.8861 41.7416 33.45 41.7416 32.9954V27.4274C41.7416 26.9727 41.561 26.5367 41.2395 26.2152C40.918 25.8937 40.482 25.7131 40.0273 25.7131H35.2102V20.8925C35.2102 20.4379 35.0295 20.0018 34.7081 19.6803C34.3866 19.3588 33.9505 19.1782 33.4959 19.1782H27.9244Z" stroke="#C9E3FF" stroke-width="3.42857" stroke-linecap="round" stroke-linejoin="round"/>
</svg>
