<svg width="44" height="44" viewBox="0 0 44 44" fill="none" xmlns="http://www.w3.org/2000/svg">
<g clip-path="url(#clip0_4701_21429)">
<path d="M16.999 16.9999H15.999C15.4686 16.9999 14.9599 17.2107 14.5848 17.5857C14.2097 17.9608 13.999 18.4695 13.999 18.9999V27.9999C13.999 28.5304 14.2097 29.0391 14.5848 29.4142C14.9599 29.7892 15.4686 29.9999 15.999 29.9999H24.999C25.5295 29.9999 26.0382 29.7892 26.4132 29.4142C26.7883 29.0391 26.999 28.5304 26.999 27.9999V26.9999" stroke="#0072EF" stroke-width="2" stroke-linecap="round" stroke-linejoin="round"/>
<path d="M25.999 14.9999L28.999 17.9999M30.384 16.5849C30.7779 16.1911 30.9991 15.6569 30.9991 15.0999C30.9991 14.5429 30.7779 14.0088 30.384 13.6149C29.9902 13.2211 29.456 12.9998 28.899 12.9998C28.342 12.9998 27.8079 13.2211 27.414 13.6149L18.999 21.9999V24.9999H21.999L30.384 16.5849Z" stroke="#0072EF" stroke-width="2" stroke-linecap="round" stroke-linejoin="round"/>
</g>
<defs>
<clipPath id="clip0_4701_21429">
<rect width="24" height="24" fill="white" transform="translate(10 10)"/>
</clipPath>
</defs>
</svg>
