<svg width="65" height="64" viewBox="0 0 65 64" fill="none" xmlns="http://www.w3.org/2000/svg">
<path d="M61.8333 47.9999H53.8333V39.9999H48.5V47.9999H40.5V53.3333H48.5V61.3333H53.8333V53.3333H61.8333M16.5 5.33325C15.0855 5.33325 13.7289 5.89515 12.7288 6.89535C11.7286 7.89554 11.1667 9.2521 11.1667 10.6666V53.3333C11.1667 56.2933 13.54 58.6666 16.5 58.6666H37.3267C36.3667 57.0133 35.7 55.1999 35.38 53.3333H16.5V10.6666H35.1667V23.9999H48.5V34.8799C49.38 34.7466 50.2867 34.6666 51.1667 34.6666C52.0733 34.6666 52.9533 34.7466 53.8333 34.8799V21.3333L37.8333 5.33325M21.8333 31.9999V37.3333H43.1667V31.9999M21.8333 42.6666V47.9999H35.1667V42.6666H21.8333Z" fill="#C9E3FF"/>
</svg>
