<svg width="18" height="24" viewBox="0 0 18 24" fill="none" xmlns="http://www.w3.org/2000/svg">
<path d="M3.28076 23.4536C2.21826 23.4536 1.41862 23.1825 0.881836 22.6401C0.350586 22.1034 0.0849609 21.2982 0.0849609 20.2246V3.80566C0.0849609 2.73763 0.353353 1.93245 0.890137 1.39014C1.42692 0.847819 2.2238 0.57666 3.28076 0.57666H8.40234C8.76758 0.57666 9.08577 0.601562 9.35693 0.651367C9.63363 0.701172 9.88818 0.79248 10.1206 0.925293C10.353 1.05811 10.591 1.24902 10.8345 1.49805L16.9854 7.73193C17.2399 7.99202 17.4336 8.23828 17.5664 8.4707C17.6992 8.70312 17.7878 8.96322 17.832 9.25098C17.8818 9.5332 17.9067 9.87907 17.9067 10.2886V20.2246C17.9067 21.2926 17.6383 22.0978 17.1016 22.6401C16.5703 23.1825 15.7734 23.4536 14.7109 23.4536H3.28076ZM3.35547 21.9844H14.6279C15.2256 21.9844 15.6766 21.8294 15.981 21.5195C16.2853 21.2152 16.4375 20.7725 16.4375 20.1914V10.2886H10.1621C9.54232 10.2886 9.07194 10.1336 8.75098 9.82373C8.43555 9.51383 8.27783 9.04069 8.27783 8.4043V2.0459H3.36377C2.76611 2.0459 2.3151 2.20361 2.01074 2.51904C1.70638 2.82894 1.5542 3.26888 1.5542 3.83887V20.1914C1.5542 20.7725 1.70638 21.2152 2.01074 21.5195C2.3151 21.8294 2.76335 21.9844 3.35547 21.9844ZM10.3198 8.90234H16.147L9.66406 2.33643V8.24658C9.66406 8.479 9.71387 8.64779 9.81348 8.75293C9.91862 8.85254 10.0874 8.90234 10.3198 8.90234Z" fill="black"/>
</svg>
