<svg width="49" height="49" viewBox="0 0 49 49" fill="none" xmlns="http://www.w3.org/2000/svg">
<path fill-rule="evenodd" clip-rule="evenodd" d="M13.75 40.7339V40.9807C13.75 42.0852 12.8546 42.9807 11.75 42.9807H8.75C7.64543 42.9807 6.75 42.0852 6.75 40.9807V29.9853C6.75 28.8808 7.64543 27.9853 8.75 27.9853H11.75C12.696 27.9853 13.4886 28.6421 13.6967 29.5246C15.0211 29.0473 16.568 28.4792 17.0413 28.2634C17.4433 28.0803 17.9075 28.0181 18.2932 27.9958C18.6988 27.9724 19.1196 27.9886 19.4878 28.0171C19.8592 28.0458 20.1963 28.0887 20.4397 28.1241C20.5619 28.1419 20.6619 28.158 20.7324 28.1698C20.7677 28.1758 20.7957 28.1806 20.8155 28.1842L20.839 28.1884L20.8459 28.1897L20.8495 28.1903L20.8674 28.1937L27.5562 29.6942L27.598 29.7076L27.6094 29.7111L27.6555 29.7252C27.6976 29.7379 27.7615 29.7566 27.8439 29.7794C28.009 29.8252 28.2464 29.8869 28.5294 29.9486C29.1043 30.074 29.8285 30.1911 30.5038 30.1911C31.1277 30.1911 31.7731 30.4236 32.1181 31.0555C32.4144 31.598 32.3454 32.1937 32.2345 32.6062C32.0964 33.1196 31.8104 33.6599 31.4468 34.1189C31.9375 33.9338 32.4739 33.7146 33.0497 33.4784L33.1728 33.4278C34.7958 32.7618 36.7203 31.972 38.4178 31.6913C40.3575 31.3704 41.7693 32.0745 42.4093 33.3237C42.979 34.4356 42.8467 35.895 41.9893 36.7743C41.7741 36.995 41.4462 37.2265 41.1169 37.4401C40.7653 37.6681 40.3322 37.9258 39.851 38.1987C38.8872 38.7454 37.6941 39.3738 36.4962 39.9813C34.1242 41.1843 31.6378 42.3542 30.8477 42.6435C29.9321 42.9789 28.9486 43.0106 28.0028 42.9619C27.4876 42.9354 26.8891 42.8759 26.2942 42.8167C25.8644 42.774 25.4366 42.7314 25.0435 42.7017C23.1157 42.5556 21.6361 42.0851 20.2732 41.6517L20.1075 41.599C18.6999 41.1522 17.3904 40.7559 15.6554 40.686C15.2587 40.67 14.4666 40.6991 13.75 40.7339ZM17.8708 30.0833C17.9349 30.0541 18.1049 30.0101 18.4085 29.9925C18.6921 29.9761 19.0157 29.9865 19.3335 30.0111C19.6481 30.0355 19.9389 30.0723 20.1518 30.1032C20.2576 30.1186 20.3429 30.1324 20.4006 30.1421C20.4295 30.147 20.4513 30.1508 20.4654 30.1533L20.4676 30.1537L27.0351 31.627L27.0802 31.6407C27.1348 31.6571 27.2125 31.6798 27.3097 31.7068C27.5038 31.7606 27.7777 31.8316 28.1031 31.9026C28.6883 32.0303 29.4723 32.165 30.2715 32.1878C30.2145 32.3495 30.118 32.5404 29.9872 32.7305C29.8276 32.9625 29.6523 33.1419 29.5084 33.2446C29.0918 33.5422 28.7556 33.6667 28.5515 33.7197C28.4482 33.7465 28.3755 33.7558 28.3396 33.759L28.3263 33.7601L28.3185 33.7605L22.9565 33.6957L22.7651 35.6794L22.9444 34.6956L22.7661 35.6796L22.8193 35.6892L22.9718 35.7166C23.1038 35.7403 23.2939 35.7741 23.5276 35.815C23.9946 35.8968 24.6361 36.007 25.3336 36.1206C26.708 36.3446 28.3646 36.5928 29.3045 36.6495C29.9536 36.6887 30.7096 36.4895 31.4127 36.2547C32.1464 36.0098 32.9752 35.6707 33.8087 35.3287C35.526 34.6243 37.2746 33.9075 38.7442 33.6645C40.0146 33.4543 40.4668 33.9184 40.6293 34.2356C40.8621 34.6901 40.7355 35.1953 40.5574 35.378C40.5137 35.4228 40.3562 35.5496 40.0286 35.7621C39.7233 35.9601 39.328 36.1961 38.8643 36.4591C37.9382 36.9843 36.7755 37.5971 35.5916 38.1976C33.2001 39.4105 30.8196 40.5239 30.1599 40.7655C29.6257 40.9612 28.9655 41.0088 28.1057 40.9645C27.5978 40.9384 27.116 40.8894 26.5907 40.8359C26.1661 40.7927 25.713 40.7467 25.1946 40.7074C23.5028 40.5792 22.2166 40.1706 20.8383 39.7327L20.7127 39.6928C19.2851 39.2396 17.7575 38.769 15.7359 38.6876C15.2808 38.6693 14.4706 38.6974 13.75 38.7315V31.6306C15.1555 31.1276 17.2371 30.3722 17.8708 30.0833ZM20.6662 29.1734L20.8495 28.1903C20.8497 28.1904 20.8495 28.1903 20.6662 29.1734ZM11.75 29.9853H8.75V40.9807H11.75V29.9853Z" fill="#007AFF"/>
<path fill-rule="evenodd" clip-rule="evenodd" d="M22.6464 7.90878C21.6731 8.99793 21.0833 10.486 21.0833 12.0396C21.0833 15.5222 23.7265 18.4456 26.5173 20.5496C27.899 21.5913 29.284 22.4068 30.325 22.9622C30.8447 23.2395 31.2769 23.4509 31.5775 23.5924C31.6375 23.6206 31.6921 23.646 31.7412 23.6686C31.7915 23.6442 31.8477 23.6167 31.9095 23.586C32.2109 23.4366 32.6438 23.2141 33.1645 22.9245C34.2071 22.3445 35.5943 21.4994 36.9783 20.4371C39.7791 18.2874 42.4167 15.3645 42.4167 12.0396C42.4167 10.4862 41.827 8.99816 40.8537 7.90895C39.8837 6.82332 38.5589 6.15707 37.0625 6.15707C34.994 6.15707 33.3896 7.34172 32.3484 9.20651L31.75 10.2783L31.1516 9.20651C30.1103 7.3416 28.5059 6.15707 26.4375 6.15707C24.9412 6.15707 23.6165 6.8232 22.6464 7.90878ZM31.75 24.3301C31.4608 24.8583 31.4603 24.8581 31.4603 24.8581L31.4573 24.8568L31.4497 24.8535L31.4225 24.8418C31.399 24.8316 31.3651 24.8168 31.3215 24.7974C31.2343 24.7585 31.1081 24.7013 30.9485 24.6262C30.6293 24.476 30.1761 24.2541 29.6333 23.9646C28.5493 23.3862 27.101 22.534 25.6494 21.4397C22.7735 19.2716 19.75 16.0498 19.75 12.0396C19.75 10.2367 20.4308 8.49049 21.598 7.18438C22.7684 5.87465 24.4541 4.98462 26.4375 4.98462C28.7732 4.98462 30.5494 6.1356 31.75 7.7597C32.9505 6.13568 34.7267 4.98462 37.0625 4.98462C39.0461 4.98462 40.7318 5.8748 41.9021 7.18455C43.0693 8.49078 43.75 10.237 43.75 12.0396C43.75 15.8984 40.7209 19.1208 37.8551 21.3204C36.4057 22.4328 34.9596 23.3133 33.8772 23.9153C33.3353 24.2168 32.8829 24.4494 32.5645 24.6073C32.4052 24.6862 32.2793 24.7466 32.1924 24.7876C32.149 24.8081 32.1153 24.8238 32.0919 24.8345L32.0649 24.8469L32.0574 24.8503L32.0552 24.8513L32.0545 24.8516C32.0545 24.8516 32.054 24.8518 31.75 24.3301ZM31.75 24.3301L32.0545 24.8516L31.7593 24.9846L31.4603 24.8581L31.75 24.3301Z" fill="#007AFF"/>
<path d="M31.75 24.3301C31.4608 24.8583 31.4603 24.8581 31.4603 24.8581M31.75 24.3301C32.054 24.8518 32.0545 24.8516 32.0545 24.8516M31.75 24.3301L32.0545 24.8516M31.75 24.3301L31.4603 24.8581M31.4603 24.8581L31.4573 24.8568L31.4497 24.8535L31.4225 24.8418C31.399 24.8316 31.3651 24.8168 31.3215 24.7974C31.2343 24.7585 31.1081 24.7013 30.9485 24.6262C30.6293 24.476 30.1761 24.2541 29.6333 23.9646C28.5493 23.3862 27.101 22.534 25.6494 21.4397C22.7735 19.2716 19.75 16.0498 19.75 12.0396C19.75 10.2367 20.4308 8.49049 21.598 7.18438C22.7684 5.87465 24.4541 4.98462 26.4375 4.98462C28.7732 4.98462 30.5494 6.1356 31.75 7.7597C32.9505 6.13568 34.7267 4.98462 37.0625 4.98462C39.0461 4.98462 40.7318 5.8748 41.9021 7.18455C43.0693 8.49078 43.75 10.237 43.75 12.0396C43.75 15.8984 40.7209 19.1208 37.8551 21.3204C36.4057 22.4328 34.9596 23.3133 33.8772 23.9153C33.3353 24.2168 32.8829 24.4494 32.5645 24.6073C32.4052 24.6862 32.2793 24.7466 32.1924 24.7876C32.149 24.8081 32.1153 24.8238 32.0919 24.8345L32.0649 24.8469L32.0574 24.8503L32.0552 24.8513L32.0545 24.8516M31.4603 24.8581L31.7593 24.9846L32.0545 24.8516M22.6464 7.90878C21.6731 8.99793 21.0833 10.486 21.0833 12.0396C21.0833 15.5222 23.7265 18.4456 26.5173 20.5496C27.899 21.5913 29.284 22.4068 30.325 22.9622C30.8447 23.2395 31.2769 23.4509 31.5775 23.5924C31.6375 23.6206 31.6921 23.646 31.7412 23.6686C31.7915 23.6442 31.8477 23.6167 31.9095 23.586C32.2109 23.4366 32.6438 23.2141 33.1645 22.9245C34.2071 22.3445 35.5943 21.4994 36.9783 20.4371C39.7791 18.2874 42.4167 15.3645 42.4167 12.0396C42.4167 10.4862 41.827 8.99816 40.8537 7.90895C39.8837 6.82332 38.5589 6.15707 37.0625 6.15707C34.994 6.15707 33.3896 7.34172 32.3484 9.20651L31.75 10.2783L31.1516 9.20651C30.1103 7.3416 28.5059 6.15707 26.4375 6.15707C24.9412 6.15707 23.6165 6.8232 22.6464 7.90878Z" stroke="#007AFF"/>
</svg>
