<svg width="49" height="48" viewBox="0 0 49 48" fill="none" xmlns="http://www.w3.org/2000/svg">
<path fill-rule="evenodd" clip-rule="evenodd" d="M10.8446 11.9881C9.38462 13.846 8.5 16.3844 8.5 19.0345C8.5 20.5722 8.76446 22.0435 9.23002 23.4444H17.9152L21.3032 17.4212L23.4203 24.8308L26.0109 21.5H32.5V23.5H26.9891L22.5797 29.1692L20.6968 22.5788L19.0848 25.4444H4.5V23.4444H7.13587C6.73033 22.0457 6.5 20.5732 6.5 19.0345C6.5 15.9592 7.52123 12.9804 9.27202 10.7524C11.0276 8.51823 13.5561 7 16.5312 7C20.0348 7 22.6991 8.96337 24.5 11.7338C26.3008 8.9635 28.9651 7 32.4688 7C35.4442 7 37.9727 8.5185 39.7282 10.7527C41.4789 12.9809 42.5 15.9597 42.5 19.0345C42.5 25.617 37.9563 31.1139 33.6576 34.866C31.4836 36.7635 29.3144 38.2655 27.6908 39.2925C26.878 39.8067 26.1993 40.2035 25.7217 40.4728C25.4828 40.6075 25.294 40.7105 25.1636 40.7804C25.0985 40.8154 25.0479 40.8421 25.0129 40.8604L24.9724 40.8815L24.9611 40.8873L24.9578 40.8891L24.9567 40.8896C24.9567 40.8896 24.956 40.89 24.5 40C24.0662 40.901 24.0659 40.9009 24.0659 40.9009L24.0599 40.898L24.046 40.8912L23.9955 40.8664C23.9521 40.8449 23.8892 40.8134 23.8084 40.7723C23.6468 40.6899 23.4133 40.5684 23.1196 40.4091C22.5324 40.0905 21.7032 39.6199 20.7258 39.0068C18.7746 37.7828 16.2151 35.9803 13.8082 33.6741C12.5243 32.444 11.2773 31.0644 10.1876 29.5461C9.86556 29.0974 9.96824 28.4726 10.4169 28.1506C10.8656 27.8286 11.4904 27.9313 11.8124 28.38C12.8169 29.7795 13.9782 31.0672 15.1918 32.23C17.4708 34.4135 19.9113 36.1349 21.7886 37.3125C22.7255 37.9002 23.5177 38.3497 24.0733 38.6511C24.231 38.7367 24.3696 38.8103 24.4868 38.8716C24.5623 38.83 24.6466 38.783 24.7393 38.7307C25.1913 38.4758 25.8407 38.0963 26.6217 37.6023C28.1856 36.613 30.2664 35.1713 32.3424 33.3592C36.5437 29.6922 40.5 24.7063 40.5 19.0345C40.5 16.3848 39.6155 13.8464 38.1556 11.9884C36.7005 10.1365 34.7134 9 32.4688 9C29.366 9 26.9594 11.0208 25.3976 14.2018L24.5 16.0301L23.6024 14.2018C22.0405 11.0206 19.6339 9 16.5312 9C14.2868 9 12.2997 10.1363 10.8446 11.9881ZM24.5 40L24.0659 40.9009L24.5139 41.1165L24.9567 40.8896L24.5 40Z" fill="#007AFF"/>
</svg>
