<svg width="49" height="48" viewBox="0 0 49 48" fill="none" xmlns="http://www.w3.org/2000/svg">
<path fill-rule="evenodd" clip-rule="evenodd" d="M24.4999 7C17.9575 7 12.6538 11.9249 12.6538 18H10.5C10.5 10.8203 16.768 5 24.4999 5C32.2318 5 38.4998 10.8203 38.4998 18C38.4998 22.5012 36.0353 26.4674 32.296 28.7993C29.744 30.3908 27.7306 32.5075 27.7306 34.9113V35C27.7306 39.4183 23.8734 43 19.1153 43C14.3572 43 10.5 39.4183 10.5 35V33H12.6538V35C12.6538 38.3137 15.5467 41 19.1153 41C22.6839 41 25.5768 38.3137 25.5768 35V34.9113C25.5768 31.4539 28.4071 28.8153 31.0952 27.139C34.2642 25.1627 36.3459 21.8069 36.3459 18C36.3459 11.9249 31.0423 7 24.4999 7ZM19.5888 17.0195C19.972 15.3146 21.5523 14 23.5 14C25.7438 14 27.5 15.7447 27.5 17.8209H29.5C29.5 14.572 26.779 12 23.5 12C20.221 12 17.5 14.572 17.5 17.8209C17.5 19.4602 18.1387 20.7713 19.5188 21.5288C20.268 21.94 20.7693 22.2895 21.0748 22.57C21.1497 22.6387 21.2061 22.6971 21.2484 22.7451C21.0637 22.8323 20.7632 22.9315 20.3121 23.0178L20.6879 24.9822C21.3602 24.8536 21.9835 24.6622 22.4568 24.3587C22.9506 24.0421 23.4228 23.4937 23.3587 22.7099C23.3042 22.0432 22.8697 21.5027 22.4273 21.0966C21.9548 20.6628 21.2981 20.2239 20.4812 19.7755C20.1596 19.599 19.9076 19.3642 19.7395 19.0314C20.4322 19.0772 21.2861 19.1834 22.1271 19.4135C23.0702 19.6715 23.9243 20.0656 24.5302 20.6365C25.0985 21.172 25.4893 21.8978 25.4998 22.9636C25.3705 24.3254 25.0479 25.2047 24.6796 25.7744C24.3162 26.3364 23.8787 26.6444 23.4248 26.823C22.953 27.0087 22.4322 27.0658 21.9081 27.0658C21.6478 27.0658 21.3987 27.052 21.1577 27.0366L21.066 27.0307C20.8659 27.0176 20.6475 27.0034 20.4638 27.0034C19.5142 27.0034 19.0332 27.7387 18.8111 28.1707C18.6573 28.4698 18.5055 28.8782 18.3752 29.2289C18.32 29.3773 18.2686 29.5154 18.2226 29.6304C18.033 30.1046 17.849 30.4509 17.6276 30.6789C17.4434 30.8687 17.2135 31 16.8113 31C16.2796 31 16.0037 30.8802 15.8635 30.7843C15.7256 30.69 15.6392 30.5646 15.5819 30.4077C15.5207 30.2404 15.5 30.0536 15.5 29.8924C15.5 29.8153 15.5047 29.7528 15.5089 29.7133C15.5109 29.6938 15.5127 29.6806 15.5136 29.6748C15.5139 29.6728 15.514 29.6717 15.514 29.6717L15.5136 29.6748L15.5129 29.6782L15.5126 29.68C15.5125 29.6805 15.5122 29.6819 14.5285 29.5021C13.5448 29.3223 13.5447 29.3228 13.5446 29.3234L13.5444 29.3245L13.544 29.3269L13.543 29.3324L13.5407 29.3464C13.5389 29.357 13.5369 29.37 13.5346 29.3855C13.5301 29.4163 13.5248 29.4568 13.5197 29.5056C13.5095 29.6026 13.5 29.7353 13.5 29.8924C13.5 30.1996 13.5363 30.6372 13.7035 31.0944C13.8744 31.562 14.1875 32.0611 14.7345 32.4351C15.279 32.8076 15.9734 33 16.8113 33C17.7788 33 18.5191 32.6317 19.0625 32.0722C19.5688 31.5508 19.8698 30.8979 20.0797 30.3729C20.1756 30.133 20.2492 29.9331 20.3131 29.7592C20.4124 29.4892 20.4887 29.2819 20.5898 29.085C20.6055 29.0546 20.6194 29.0292 20.6316 29.0082C20.7145 29.0122 20.8121 29.0185 20.9315 29.0262L21.0304 29.0326C21.279 29.0484 21.5809 29.0658 21.9081 29.0658C22.5589 29.0658 23.3593 28.9981 24.1571 28.6841C24.9729 28.3632 25.7535 27.797 26.3591 26.8602C26.9555 25.9377 27.3495 24.7072 27.4959 23.0982C27.4986 23.0681 27.5 23.0379 27.5 23.0076C27.5 21.3498 26.8665 20.0899 25.9017 19.1809C24.9667 18.2999 23.7662 17.7884 22.6548 17.4844C21.5346 17.1779 20.4301 17.0621 19.6166 17.0209C19.6073 17.0204 19.5981 17.02 19.5888 17.0195ZM20.6923 28.9192C20.6923 28.9197 20.6893 28.9235 20.6832 28.9292C20.6892 28.9216 20.6923 28.9188 20.6923 28.9192Z" fill="#0072EF"/>
</svg>
