<svg width="45" height="45" viewBox="0 0 45 45" fill="none" xmlns="http://www.w3.org/2000/svg">
<path d="M33.2812 3.36182L37.2253 7.30588C37.3961 7.48269 37.4906 7.71951 37.4884 7.96532C37.4863 8.21113 37.3877 8.44626 37.2139 8.62008C37.0401 8.7939 36.8049 8.8925 36.5591 8.89464C36.3133 8.89677 36.0765 8.80228 35.8997 8.6315L34.2187 6.95057V41.2499H32.3437V6.95057L30.6628 8.6315C30.5763 8.72104 30.4729 8.79247 30.3585 8.8416C30.2441 8.89073 30.1211 8.91659 29.9966 8.91768C29.8721 8.91876 29.7487 8.89504 29.6335 8.8479C29.5183 8.80076 29.4136 8.73115 29.3256 8.64312C29.2375 8.5551 29.1679 8.45043 29.1208 8.33521C29.0737 8.22 29.0499 8.09655 29.051 7.97207C29.0521 7.84759 29.078 7.72457 29.1271 7.61019C29.1762 7.49581 29.2476 7.39236 29.3372 7.30588L33.2812 3.36182ZM26.25 7.49994C26.25 8.4945 25.8549 9.44833 25.1516 10.1516C24.4484 10.8549 23.4946 11.2499 22.5 11.2499C21.5054 11.2499 20.5516 10.8549 19.8484 10.1516C19.1451 9.44833 18.75 8.4945 18.75 7.49994C18.75 6.50538 19.1451 5.55155 19.8484 4.84829C20.5516 4.14503 21.5054 3.74994 22.5 3.74994C23.4946 3.74994 24.4484 4.14503 25.1516 4.84829C25.8549 5.55155 26.25 6.50538 26.25 7.49994Z" fill="#0072EF"/>
<path d="M28.1241 27.0001C28.4221 26.8559 28.6766 26.6353 28.8617 26.3608C29.0468 26.0863 29.1559 25.7677 29.1779 25.4373L29.8388 15.5251C29.9204 14.3064 28.8338 13.3333 27.6273 13.5189C25.9585 13.7748 23.7976 14.0626 22.4991 14.0626C21.2007 14.0626 19.0398 13.7748 17.371 13.5189C16.1635 13.3333 15.0779 14.3064 15.1585 15.5251L15.8195 25.4373C15.8414 25.7679 15.9506 26.0868 16.1359 26.3615C16.3211 26.6362 16.5759 26.8569 16.8741 27.0011V39.3751C16.8746 39.8597 17.0626 40.3253 17.3988 40.6743C17.7349 41.0233 18.1932 41.2285 18.6774 41.2471C19.1616 41.2656 19.6342 41.096 19.9961 40.7738C20.3579 40.4515 20.581 40.0017 20.6185 39.5186L21.556 27.3311C21.5597 27.2834 21.5616 27.2355 21.5616 27.1876H23.4366C23.4366 27.2351 23.4385 27.283 23.4423 27.3311L24.3798 39.5186C24.4173 40.0017 24.6404 40.4515 25.0022 40.7738C25.3641 41.096 25.8367 41.2656 26.3209 41.2471C26.8051 41.2285 27.2634 41.0233 27.5995 40.6743C27.9357 40.3253 28.1237 39.8597 28.1241 39.3751V27.0001Z" fill="#0072EF"/>
</svg>
