<svg width="90" height="90" viewBox="0 0 90 90" fill="none" xmlns="http://www.w3.org/2000/svg">
<path d="M44.8125 67.5C46.125 67.5 47.235 67.0463 48.1425 66.1388C49.05 65.2313 49.5025 64.1225 49.5 62.8125C49.4975 61.5025 49.045 60.3925 48.1425 59.4825C47.24 58.5725 46.13 58.12 44.8125 58.125C43.495 58.13 42.3863 58.5838 41.4863 59.4863C40.5863 60.3888 40.1325 61.4975 40.125 62.8125C40.1175 64.1275 40.5713 65.2375 41.4863 66.1425C42.4013 67.0475 43.51 67.5 44.8125 67.5ZM41.4375 53.0625H48.375C48.375 51 48.61 49.375 49.08 48.1875C49.55 47 50.8775 45.375 53.0625 43.3125C54.6875 41.6875 55.9688 40.14 56.9063 38.67C57.8438 37.2 58.3125 35.435 58.3125 33.375C58.3125 29.875 57.0313 27.1875 54.4688 25.3125C51.9063 23.4375 48.875 22.5 45.375 22.5C41.8125 22.5 38.9225 23.4375 36.705 25.3125C34.4875 27.1875 32.94 29.4375 32.0625 32.0625L38.25 34.5C38.5625 33.375 39.2663 32.1563 40.3613 30.8438C41.4563 29.5313 43.1275 28.875 45.375 28.875C47.375 28.875 48.875 29.4225 49.875 30.5175C50.875 31.6125 51.375 32.815 51.375 34.125C51.375 35.375 51 36.5475 50.25 37.6425C49.5 38.7375 48.5625 39.7525 47.4375 40.6875C44.6875 43.125 43 44.9688 42.375 46.2188C41.75 47.4688 41.4375 49.75 41.4375 53.0625ZM45 82.5C39.8125 82.5 34.9375 81.5163 30.375 79.5488C25.8125 77.5813 21.8438 74.9088 18.4688 71.5313C15.0938 68.1538 12.4225 64.185 10.455 59.625C8.48751 55.065 7.5025 50.19 7.5 45C7.4975 39.81 8.48251 34.935 10.455 30.375C12.4275 25.815 15.0988 21.8463 18.4688 18.4688C21.8388 15.0913 25.8075 12.42 30.375 10.455C34.9425 8.49002 39.8175 7.50502 45 7.50002C50.1825 7.49502 55.0575 8.48002 59.625 10.455C64.1925 12.43 68.1613 15.1013 71.5313 18.4688C74.9013 21.8363 77.5738 25.805 79.5488 30.375C81.5238 34.945 82.5075 39.82 82.5 45C82.4925 50.18 81.5075 55.055 79.545 59.625C77.5825 64.195 74.9113 68.1638 71.5313 71.5313C68.1513 74.8988 64.1825 77.5713 59.625 79.5488C55.0675 81.5263 50.1925 82.51 45 82.5ZM45 75C53.375 75 60.4688 72.0938 66.2813 66.2813C72.0938 60.4688 75 53.375 75 45C75 36.625 72.0938 29.5313 66.2813 23.7188C60.4688 17.9063 53.375 15 45 15C36.625 15 29.5313 17.9063 23.7188 23.7188C17.9063 29.5313 15 36.625 15 45C15 53.375 17.9063 60.4688 23.7188 66.2813C29.5313 72.0938 36.625 75 45 75Z" fill="#0072EF"/>
</svg>
