<svg width="26" height="20" viewBox="0 0 26 20" fill="none" xmlns="http://www.w3.org/2000/svg">
<path d="M3.66162 18.3076H22.3467C22.889 18.3076 23.3151 18.1527 23.625 17.8428C23.9404 17.5329 24.0981 17.104 24.0981 16.5562V14.9375L19.0264 10.2808C18.7607 10.0373 18.4757 9.85465 18.1714 9.73291C17.8726 9.61117 17.5737 9.55029 17.2749 9.55029C16.6551 9.55029 16.0713 9.78825 15.5234 10.2642L10.4019 14.7881L8.37646 12.9536C7.89502 12.5109 7.38037 12.2896 6.83252 12.2896C6.58903 12.2896 6.34277 12.3449 6.09375 12.4556C5.84473 12.5662 5.59847 12.7267 5.35498 12.937L1.89355 15.9336V16.5396C1.89355 17.0929 2.0485 17.5246 2.3584 17.8345C2.67383 18.1499 3.10824 18.3076 3.66162 18.3076ZM8.26025 10.2476C8.73617 10.2476 9.17057 10.1313 9.56348 9.89893C9.96191 9.66097 10.2773 9.34277 10.5098 8.94434C10.7477 8.5459 10.8667 8.10596 10.8667 7.62451C10.8667 7.1486 10.7477 6.71143 10.5098 6.31299C10.2773 5.91455 9.96191 5.59635 9.56348 5.3584C9.17057 5.12044 8.73617 5.00146 8.26025 5.00146C7.77881 5.00146 7.33887 5.12044 6.94043 5.3584C6.54753 5.59635 6.2321 5.91455 5.99414 6.31299C5.75618 6.71143 5.63721 7.1486 5.63721 7.62451C5.63721 8.10596 5.75618 8.5459 5.99414 8.94434C6.2321 9.34277 6.54753 9.66097 6.94043 9.89893C7.33887 10.1313 7.77881 10.2476 8.26025 10.2476ZM3.65332 19.7686C2.58529 19.7686 1.78011 19.5002 1.23779 18.9634C0.695475 18.4321 0.424316 17.6353 0.424316 16.5728V3.45752C0.424316 2.39502 0.695475 1.59538 1.23779 1.05859C1.78011 0.52181 2.58529 0.253418 3.65332 0.253418H22.3384C23.4119 0.253418 24.2199 0.524577 24.7622 1.06689C25.3045 1.60368 25.5757 2.40055 25.5757 3.45752V16.5728C25.5757 17.6297 25.3045 18.4266 24.7622 18.9634C24.2199 19.5002 23.4119 19.7686 22.3384 19.7686H3.65332Z" fill="black"/>
</svg>
