<svg width="23" height="32" viewBox="0 0 23 32" fill="none" xmlns="http://www.w3.org/2000/svg">
<path d="M11.4917 26.8145C10.3075 26.8145 9.17578 26.6291 8.09668 26.2583C7.02311 25.8931 6.03532 25.3784 5.1333 24.7144C4.23128 24.0503 3.44824 23.2673 2.78418 22.3652C2.12012 21.4632 1.6027 20.4727 1.23193 19.3936C0.866699 18.3145 0.684082 17.1855 0.684082 16.0068C0.684082 14.8226 0.866699 13.6937 1.23193 12.6201C1.59717 11.541 2.11182 10.5505 2.77588 9.64844C3.44548 8.74642 4.22852 7.96338 5.125 7.29932C6.02702 6.62972 7.01481 6.1123 8.08838 5.74707C9.16748 5.3763 10.2992 5.19092 11.4834 5.19092C12.6676 5.19092 13.7993 5.3763 14.8784 5.74707C15.9575 6.1123 16.9481 6.62972 17.8501 7.29932C18.7521 7.96338 19.5352 8.74642 20.1992 9.64844C20.8688 10.5505 21.3862 11.541 21.7515 12.6201C22.1222 13.6937 22.3076 14.8226 22.3076 16.0068C22.3076 17.1855 22.1222 18.3145 21.7515 19.3936C21.3862 20.4727 20.8688 21.4632 20.1992 22.3652C19.5352 23.2673 18.7521 24.0503 17.8501 24.7144C16.9481 25.3784 15.9575 25.8931 14.8784 26.2583C13.8049 26.6291 12.6759 26.8145 11.4917 26.8145ZM11.4917 25.2705C12.521 25.2705 13.4977 25.1128 14.4219 24.7974C15.3516 24.4875 16.201 24.0503 16.9702 23.4858C17.745 22.9214 18.4146 22.2546 18.979 21.4854C19.549 20.7106 19.9889 19.8612 20.2988 18.937C20.6087 18.0073 20.7609 17.0306 20.7554 16.0068C20.7554 14.9775 20.5977 14.0008 20.2822 13.0767C19.9723 12.147 19.5352 11.2975 18.9707 10.5283C18.4062 9.75358 17.7367 9.08398 16.9619 8.51953C16.1927 7.95508 15.3433 7.5179 14.4136 7.20801C13.4894 6.89811 12.5127 6.74316 11.4834 6.74316C10.4596 6.74316 9.48291 6.89811 8.55322 7.20801C7.62907 7.5179 6.78239 7.95508 6.01318 8.51953C5.24398 9.08398 4.57715 9.75358 4.0127 10.5283C3.44824 11.2975 3.01107 12.147 2.70117 13.0767C2.39128 14.0008 2.23633 14.9775 2.23633 16.0068C2.23633 17.0306 2.39128 18.0073 2.70117 18.937C3.01107 19.8612 3.44824 20.7106 4.0127 21.4854C4.58268 22.2546 5.25228 22.9214 6.02148 23.4858C6.79069 24.0503 7.63737 24.4875 8.56152 24.7974C9.49121 25.1128 10.4679 25.2705 11.4917 25.2705ZM9.59082 21.8672C9.40267 21.8672 9.24219 21.8063 9.10938 21.6846C8.9821 21.5573 8.91846 21.3996 8.91846 21.2114C8.91846 21.0288 8.9821 20.8766 9.10938 20.7549C9.24219 20.6276 9.40267 20.564 9.59082 20.564H11.0518V15.2432H9.74854C9.56038 15.2432 9.3999 15.1823 9.26709 15.0605C9.13981 14.9333 9.07617 14.7756 9.07617 14.5874C9.07617 14.4103 9.13981 14.2581 9.26709 14.1309C9.3999 14.0036 9.56038 13.9399 9.74854 13.9399H11.7905C12.0229 13.9399 12.2 14.0146 12.3218 14.1641C12.4435 14.3135 12.5044 14.5099 12.5044 14.7534V20.564H13.9736C14.1618 20.564 14.3195 20.6276 14.4468 20.7549C14.5796 20.8766 14.646 21.0288 14.646 21.2114C14.646 21.3996 14.5796 21.5573 14.4468 21.6846C14.3195 21.8063 14.1618 21.8672 13.9736 21.8672H9.59082ZM11.417 12.0474C11.0684 12.0474 10.7723 11.9256 10.5288 11.6821C10.2853 11.4386 10.1636 11.1426 10.1636 10.7939C10.1636 10.4398 10.2853 10.141 10.5288 9.89746C10.7723 9.65397 11.0684 9.53223 11.417 9.53223C11.7712 9.53223 12.07 9.65397 12.3135 9.89746C12.557 10.141 12.6787 10.4398 12.6787 10.7939C12.6787 11.1426 12.557 11.4386 12.3135 11.6821C12.07 11.9256 11.7712 12.0474 11.417 12.0474Z" fill="#007AFF"/>
</svg>
