<svg width="137" height="137" viewBox="0 0 137 137" fill="none" xmlns="http://www.w3.org/2000/svg">
<g clip-path="url(#clip0_55239_17842)">
<path d="M81.8652 1.25926C82.1234 1.30356 82.3816 1.34786 82.6477 1.39351C95.1944 3.58338 106.72 10.6485 115.968 19.0715C116.173 19.2577 116.378 19.4439 116.589 19.6357C127.006 29.2774 133.391 42.5245 136.14 56.2458C136.242 56.7532 136.242 56.7532 136.346 57.2708C136.977 60.8014 137.007 64.3066 136.999 67.881C136.999 68.1984 136.999 68.5158 136.999 68.8428C136.987 73.8697 136.674 78.6694 135.416 83.5593C135.35 83.8254 135.284 84.0915 135.217 84.3657C134.762 86.163 134.215 87.9173 133.607 89.669C133.506 89.9606 133.406 90.2522 133.302 90.5527C127.733 106.407 117.08 119.275 102.49 127.764C102.253 127.903 102.016 128.041 101.772 128.184C95.524 131.788 88.6137 134.382 81.5034 135.671C81.2353 135.723 80.9672 135.776 80.691 135.83C66.1701 138.628 50.2393 136.401 37.2959 129.207C36.6045 128.825 35.9057 128.46 35.2046 128.096C29.8 125.242 25.1052 121.559 20.7159 117.342C20.535 117.172 20.3542 117.001 20.1678 116.826C8.62755 105.945 0.566879 89.4567 0.0464213 73.5548C0.011576 71.8882 0.00252191 70.2218 0.00110422 68.5549C0.000739826 68.2585 0.000375435 67.9621 0 67.6567C0.00381999 63.0618 0.189055 58.595 1.17705 54.0894C1.22935 53.8487 1.28165 53.6079 1.33553 53.3598C1.69264 51.7815 2.13705 50.2416 2.62437 48.6986C2.69649 48.4676 2.76861 48.2365 2.84292 47.9984C8.38263 30.5384 20.7801 16.2009 37.0124 7.67211C39.9452 6.16264 42.9137 4.8341 46.044 3.77499C46.424 3.64582 46.424 3.64582 46.8117 3.51404C58.1633 -0.279583 70.1037 -0.953397 81.8652 1.25926ZM51.5393 10.828C51.2411 10.9189 50.9429 11.0099 50.6356 11.1036C43.3368 13.4192 36.2564 17.0616 30.4853 22.1038C30.2031 22.3452 29.9209 22.5866 29.6302 22.8352C28.6927 23.6535 27.7774 24.4904 26.867 25.3383C26.6845 25.5074 26.502 25.6764 26.314 25.8506C17.7326 33.8631 12.2507 44.2161 9.49915 55.527C9.40181 55.9182 9.40181 55.9182 9.30251 56.3172C6.97764 66.0791 7.90287 77.7292 11.3083 87.1532C11.4033 87.4167 11.4984 87.6802 11.5963 87.9517C14.8205 96.7453 19.585 104.168 26.1433 110.873C26.3343 111.071 26.5252 111.269 26.7219 111.473C33.3703 118.254 42.287 123.143 51.3358 125.922C51.6543 126.021 51.9729 126.119 52.3011 126.221C57.5372 127.745 62.6378 128.316 68.0704 128.258C68.3551 128.257 68.6399 128.255 68.9332 128.253C73.1995 128.222 77.3492 128.094 81.5034 127.045C81.8172 126.968 82.1311 126.891 82.4544 126.811C89.3863 125.046 96.2993 122.242 102.128 118.061C102.473 117.819 102.818 117.577 103.174 117.328C105.907 115.358 108.37 113.18 110.812 110.873C111.059 110.65 111.307 110.427 111.562 110.198C121.629 100.827 128.062 85.609 128.586 71.9705C128.704 66.6415 128.757 61.4467 127.456 56.2458C127.331 55.702 127.207 55.1583 127.083 54.6145C124.366 43.1996 118.527 33.5056 110.088 25.3383C109.915 25.1465 109.743 24.9547 109.565 24.7571C102.259 16.9145 90.9844 11.7305 80.5848 9.70043C79.9998 9.58532 79.4166 9.46012 78.8361 9.32402C75.7664 8.65883 72.6949 8.6852 69.5681 8.69298C68.6225 8.69411 67.6774 8.68568 66.7319 8.67657C61.5107 8.65672 56.5443 9.29296 51.5393 10.828Z" fill="#868686"/>
<path d="M66.9982 29.7131C65.0787 30.337 64.1915 31.3825 63.0181 32.9476C62.5056 33.9656 62.531 34.9151 62.4527 36.0473C62.4224 36.4744 62.3921 36.9016 62.3609 37.3416C62.3389 37.6706 62.317 37.9995 62.2944 38.3384C62.092 38.2221 61.8896 38.1058 61.681 37.986C59.8927 37.2003 57.8734 37.4103 56.0529 38.0015C54.4541 39.1203 53.1496 40.4307 52.525 42.2917C52.4715 42.9022 52.4355 43.5142 52.4105 44.1265C52.3878 44.6564 52.3878 44.6564 52.3646 45.197C52.3504 45.565 52.3361 45.9331 52.3215 46.3123C52.298 46.8707 52.298 46.8707 52.2741 47.4403C52.2357 48.3596 52.1988 49.2789 52.1632 50.1982C51.9244 50.0796 51.6856 49.961 51.4395 49.8388C48.7593 49.5924 46.7136 49.5867 44.5647 51.2764C43.2055 52.9336 42.908 54.2356 42.9359 56.3188C42.933 56.741 42.933 56.741 42.93 57.1717C42.9255 58.0991 42.9314 59.0262 42.9379 59.9537C42.9379 60.6047 42.9373 61.2558 42.9363 61.9069C42.9358 63.2727 42.9404 64.6384 42.9486 66.0042C42.9588 67.7376 42.9579 69.4708 42.9533 71.2042C42.9507 72.5508 42.9536 73.8973 42.9581 75.2439C42.9597 75.8818 42.9599 76.5198 42.9584 77.1577C42.9507 83.6511 43.3644 90.4612 47.4594 95.8406C47.7504 96.2743 47.7504 96.2743 48.0474 96.7166C51.2232 100.12 55.2517 101.841 59.8616 102.031C61.367 102.074 62.8718 102.084 64.3778 102.083C65.3203 102.085 66.2622 102.098 67.2046 102.112C72.2473 102.146 76.1723 101.249 80.3859 98.3564C80.5996 98.2109 80.8132 98.0654 81.0333 97.9155C82.5111 96.7816 83.5983 95.3718 84.7279 93.9089C87.8047 89.9341 91.318 86.4017 94.9015 82.8788C95.1293 82.6544 95.357 82.4301 95.5917 82.1989C96.7462 81.0619 97.9037 79.9281 99.0667 78.7997C99.4984 78.3765 99.93 77.9533 100.362 77.53C100.562 77.3374 100.763 77.1449 100.97 76.9464C102.549 75.3885 103.274 74.0327 103.385 71.829C103.353 69.9308 102.637 69.0012 101.344 67.6623C99.9805 66.5393 98.873 66.1984 97.0754 66.264C94.2977 66.6495 92.2724 68.6708 90.2359 70.4209C89.3038 71.2194 88.3419 71.9727 87.3687 72.7214C87.077 72.946 86.7853 73.1706 86.4847 73.4021C86.2632 73.5723 86.0416 73.7425 85.8134 73.9179C85.8129 73.5101 85.8124 73.1022 85.8118 72.682C85.8058 68.8326 85.7903 64.9833 85.7656 61.1339C85.7532 59.1551 85.7441 57.1763 85.7426 55.1974C85.7411 53.2865 85.7308 51.3758 85.7144 49.465C85.7098 48.7371 85.7082 48.0092 85.7098 47.2814C85.7116 46.2592 85.7022 45.2377 85.6902 44.2157C85.6933 43.9168 85.6964 43.618 85.6996 43.3101C85.6568 41.1271 85.014 39.6825 83.6424 37.979C81.9287 36.3984 80.5931 36.0831 78.3224 36.0978C77.1633 36.2153 76.3032 36.6594 75.3203 37.2602C75.3427 36.8303 75.3651 36.4004 75.3882 35.9574C75.3686 33.7515 74.5096 32.4009 72.991 30.8361C71.1424 29.3021 69.3013 29.3646 66.9982 29.7131ZM72.0638 33.6663C72.9569 34.984 72.8983 36.3395 72.9029 37.8734C72.9065 38.1505 72.9101 38.4276 72.9139 38.7131C72.925 39.6271 72.9312 40.541 72.9373 41.455C72.9441 42.0895 72.9512 42.724 72.9586 43.3585C72.9771 45.0269 72.9915 46.6954 73.0049 48.3639C73.0194 50.0671 73.0379 51.7703 73.056 53.4734C73.0911 56.8141 73.1216 60.1549 73.1493 63.4956C73.7463 63.4956 74.3434 63.4956 74.9585 63.4956C74.9606 63.225 74.9627 62.9543 74.9649 62.6754C74.9859 60.1214 75.012 57.5675 75.0438 55.0136C75.0599 53.7007 75.0741 52.3878 75.0838 51.0749C75.0933 49.8071 75.1079 48.5395 75.1261 47.2719C75.135 46.5543 75.1386 45.8366 75.1422 45.1189C75.1493 44.6802 75.1565 44.2414 75.1639 43.7893C75.1679 43.4039 75.1719 43.0184 75.176 42.6213C75.3417 41.4177 75.6807 40.7473 76.4058 39.7759C77.4993 39.0519 77.8232 38.936 79.0743 38.8999C79.3458 38.8856 79.6172 38.8712 79.8969 38.8564C81.2377 39.1728 81.7166 39.7783 82.5569 40.8541C82.8234 42.0412 82.8031 43.2052 82.7898 44.4175C82.7946 44.9533 82.7946 44.9533 82.7995 45.5C82.8081 46.6787 82.804 47.8571 82.8 49.0358C82.8038 49.8543 82.8085 50.6727 82.814 51.4912C82.8264 53.644 82.8283 55.7968 82.8278 57.9497C82.8289 60.9897 82.8444 64.0298 82.8581 67.0698C82.8653 68.6893 82.8687 70.3087 82.869 71.9281C82.8704 72.6636 82.8718 73.399 82.8732 74.1344C82.8724 74.4731 82.8716 74.8118 82.8709 75.1607C82.8779 77.4712 82.8779 77.4712 83.2806 77.8712C84.5182 78.0548 84.9944 77.9363 86.0381 77.224C86.3744 76.9261 86.7107 76.6282 87.0572 76.3213C87.4373 75.9921 87.818 75.6636 88.1992 75.3358C88.3984 75.1631 88.5975 74.9904 88.8027 74.8125C89.8847 73.8918 91.0025 73.0174 92.1228 72.1434C92.3322 71.9781 92.5416 71.8128 92.7573 71.6425C94.9514 69.8888 94.9514 69.8888 97.5729 69.0661C98.883 69.1524 98.883 69.1524 99.9021 70.0095C100.797 71.248 100.852 71.706 100.648 73.1991C99.9301 74.2038 99.9301 74.2038 98.917 75.1168C98.7383 75.2904 98.5596 75.464 98.3755 75.6429C97.8038 76.1963 97.2252 76.7418 96.6457 77.2872C95.8933 78.0069 95.1438 78.7294 94.3941 79.4519C94.1211 79.7134 94.1211 79.7134 93.8425 79.9802C92.6028 81.1742 91.4521 82.4151 90.3349 83.7216C89.5135 84.6601 88.6169 85.5011 87.713 86.3617C86.1188 87.9071 84.7038 89.5258 83.3484 91.2809C80.0864 95.4788 76.512 98.7247 70.9783 99.4345C69.2806 99.5362 67.5901 99.5681 65.8896 99.5677C65.105 99.5693 64.3212 99.5823 63.5368 99.596C58.5335 99.6362 54.1784 98.6212 50.3795 95.2145C45.5137 90.2156 45.4777 82.4093 45.4933 75.8777C45.4917 75.2622 45.4898 74.6468 45.4876 74.0313C45.4844 72.7556 45.4852 71.48 45.4888 70.2043C45.493 68.5717 45.4856 66.9394 45.4751 65.3068C45.4685 64.0421 45.4686 62.7775 45.4706 61.5127C45.4707 60.9104 45.4685 60.308 45.464 59.7056C45.4586 58.8673 45.4625 58.0295 45.4687 57.1912C45.4652 56.9452 45.4617 56.6991 45.4581 56.4456C45.4843 54.7542 45.9007 53.9043 47.0976 52.714C48.237 52.1481 49.0949 52.2295 50.354 52.3546C52.1169 53.4842 52.1169 53.4842 52.8047 55.3782C52.8104 56.0642 52.8104 56.0642 52.8162 56.7641C52.8211 57.0088 52.8261 57.2536 52.8312 57.5057C52.8447 58.2822 52.8434 59.0578 52.8416 59.8343C52.8482 60.3629 52.8557 60.8915 52.8642 61.42C52.8829 62.7109 52.8884 64.0015 52.8868 65.2926C53.4861 65.4299 54.0898 65.5492 54.696 65.652C55.3451 65.0072 55.103 64.0387 55.1034 63.1689C55.1048 62.7142 55.1062 62.2595 55.1076 61.7911C55.1076 61.5465 55.1077 61.3019 55.1078 61.0498C55.109 60.0235 55.1167 58.9973 55.1242 57.971C55.1379 56.0589 55.1492 54.1468 55.1485 52.2345C55.1482 50.9058 55.1566 49.5773 55.1708 48.2486C55.1746 47.7425 55.1752 47.2364 55.1724 46.7303C55.1689 46.0207 55.1776 45.311 55.1868 44.6014C55.1888 43.9961 55.1888 43.9961 55.1908 43.3785C55.4909 41.9533 56.1208 41.4147 57.2288 40.4947C58.2792 39.9731 58.9557 40.0015 60.1234 40.1353C61.1834 40.7869 62.0905 41.5272 62.6563 42.6511C62.6995 43.3041 62.7204 43.9587 62.7305 44.6131C62.7378 45.0232 62.745 45.4333 62.7524 45.8558C62.7585 46.3002 62.7645 46.7445 62.7707 47.2024C62.782 47.8829 62.782 47.8829 62.7935 48.5771C62.8132 49.7836 62.8314 50.9901 62.8488 52.1966C62.867 53.4276 62.8871 54.6585 62.9071 55.8895C62.9459 58.305 62.9828 60.7206 63.0181 63.1362C63.7191 63.3384 63.7191 63.3384 64.4654 63.4956C65.0838 62.8814 64.872 62.1061 64.8751 61.2869C64.8744 61.0222 64.8736 60.7574 64.8728 60.4847C64.8735 60.2071 64.8742 59.9295 64.8749 59.6435C64.8763 59.0385 64.8771 58.4335 64.8772 57.8286C64.8784 56.543 64.8862 55.2575 64.8936 53.972C64.9073 51.5762 64.9186 49.1805 64.9179 46.7847C64.9176 45.1204 64.926 43.4564 64.9403 41.7921C64.944 41.1577 64.9446 40.5232 64.9418 39.8887C64.9384 38.9998 64.946 38.1115 64.9562 37.2227C64.9525 36.9608 64.9488 36.699 64.945 36.4293C64.974 35.0181 65.1469 34.436 66.063 33.3318C68.1469 31.6749 70.1684 31.7299 72.0638 33.6663Z" fill="#868686"/>
<path d="M76.7939 73.4692C73.0683 73.5278 69.6574 75.0394 66.9185 77.5264C65.2234 79.3143 63.8061 81.2731 63.0218 83.622C63.0896 84.9248 63.0896 84.9248 63.3836 85.7783C63.9806 85.7783 64.5777 85.7783 65.1928 85.7783C65.3588 85.4619 65.5249 85.1455 65.6959 84.8195C65.918 84.4021 66.14 83.9847 66.3687 83.5546C66.587 83.1418 66.8053 82.729 67.0302 82.3038C68.761 79.3232 70.7547 77.8088 74.0802 76.9059C74.7355 76.7464 75.3913 76.589 76.0477 76.4342C76.5536 76.2951 77.0588 76.1533 77.5628 76.0074C77.8987 75.9111 78.2345 75.8147 78.5805 75.7154C78.5959 75.1166 78.5952 74.5173 78.5805 73.9185C78.2187 73.5591 78.2187 73.5591 76.7939 73.4692Z" fill="#868686"/>
</g>
<defs>
<clipPath id="clip0_55239_17842">
<rect width="137" height="137" fill="white"/>
</clipPath>
</defs>
</svg>
