<svg width="123" height="123" viewBox="0 0 123 123" fill="none" xmlns="http://www.w3.org/2000/svg">
<g clip-path="url(#clip0_55239_17834)">
<path d="M73.4994 1.13058C73.7312 1.17035 73.9631 1.21013 74.2019 1.2511C85.4665 3.2172 95.8144 9.56035 104.117 17.1226C104.301 17.2897 104.485 17.4569 104.675 17.6292C114.028 26.2855 119.76 38.1789 122.228 50.498C122.319 50.9536 122.319 50.9536 122.413 51.4183C122.98 54.5882 123.006 57.7351 122.999 60.9443C122.999 61.2292 122.999 61.5142 122.999 61.8078C122.988 66.3209 122.707 70.6302 121.578 75.0204C121.519 75.2593 121.46 75.4982 121.399 75.7444C120.991 77.358 120.499 78.9331 119.954 80.5057C119.863 80.7675 119.773 81.0294 119.68 81.2991C114.68 95.5333 105.116 107.086 92.0161 114.708C91.8036 114.832 91.5911 114.957 91.3721 115.085C85.7624 118.321 79.5583 120.65 73.1746 121.807C72.9339 121.854 72.6932 121.901 72.4452 121.95C59.4082 124.462 45.1053 122.462 33.4847 116.003C32.8639 115.66 32.2365 115.332 31.6071 115.005C26.7547 112.443 22.5397 109.137 18.5989 105.351C18.4366 105.198 18.2742 105.045 18.1069 104.887C7.7459 95.1182 0.50895 80.3151 0.0416775 66.0382C0.010393 64.542 0.0022642 63.0458 0.000991378 61.5492C0.000664224 61.2831 0.000337069 61.017 0 60.7429C0.00342963 56.6175 0.169735 52.6072 1.05677 48.5621C1.10372 48.3459 1.15068 48.1297 1.19905 47.907C1.51967 46.49 1.91867 45.1074 2.35619 43.7221C2.42094 43.5147 2.48569 43.3072 2.5524 43.0935C7.52601 27.4177 18.6566 14.5453 33.2301 6.8881C35.8632 5.53288 38.5283 4.3401 41.3388 3.38922C41.6799 3.27325 41.6799 3.27325 42.028 3.15494C52.2196 -0.251012 62.9398 -0.855969 73.4994 1.13058ZM46.2725 9.72148C46.0048 9.80314 45.737 9.88479 45.4612 9.96892C38.9082 12.0479 32.5514 15.318 27.37 19.845C27.1167 20.0617 26.8633 20.2784 26.6023 20.5017C25.7606 21.2364 24.9388 21.9878 24.1215 22.749C23.9576 22.9008 23.7938 23.0525 23.625 23.2089C15.9205 30.4026 10.9988 39.6977 8.52843 49.8527C8.44104 50.2039 8.44104 50.2039 8.35189 50.5622C6.2646 59.3265 7.09528 69.786 10.1527 78.2471C10.238 78.4836 10.3234 78.7202 10.4113 78.9639C13.306 86.8589 17.5836 93.5231 23.4718 99.5428C23.6432 99.7206 23.8146 99.8984 23.9912 100.082C29.9602 106.17 37.9657 110.559 46.0898 113.054C46.3758 113.143 46.6618 113.231 46.9565 113.322C51.6575 114.691 56.2369 115.204 61.1143 115.152C61.37 115.15 61.6256 115.148 61.889 115.147C65.7192 115.119 69.4449 115.004 73.1746 114.063C73.4563 113.993 73.7381 113.924 74.0284 113.852C80.2519 112.267 86.4585 109.75 91.6913 105.996C92.0012 105.779 92.311 105.562 92.6303 105.338C95.0839 103.57 97.296 101.614 99.4878 99.5428C99.7102 99.3428 99.9325 99.1427 100.162 98.9366C109.2 90.5238 114.975 76.8607 115.446 64.6159C115.552 59.8314 115.599 55.1674 114.431 50.498C114.319 50.0099 114.208 49.5217 114.096 49.0334C111.657 38.7851 106.415 30.0816 98.8381 22.749C98.6831 22.5768 98.5282 22.4046 98.3686 22.2272C91.809 15.186 81.6867 10.5318 72.3499 8.70914C71.8246 8.6058 71.301 8.49339 70.7799 8.3712C68.0238 7.77399 65.2662 7.79766 62.4589 7.80465C61.61 7.80566 60.7615 7.7981 59.9126 7.78992C55.2249 7.77209 50.7661 8.34332 46.2725 9.72148Z" fill="#0072EF"/>
<path d="M60.1521 26.6765C58.4288 27.2367 57.6322 28.1754 56.5787 29.5805C56.1186 30.4945 56.1413 31.3469 56.0711 32.3634C56.0439 32.7469 56.0167 33.1304 55.9886 33.5255C55.9689 33.8208 55.9493 34.1162 55.929 34.4204C55.7472 34.316 55.5655 34.2116 55.3782 34.1041C53.7727 33.3986 51.9598 33.5872 50.3252 34.1179C48.8898 35.1224 47.7186 36.2989 47.1579 37.9697C47.1099 38.5178 47.0775 39.0673 47.0551 39.6171C47.0347 40.0928 47.0347 40.0928 47.0139 40.5781C47.0011 40.9086 46.9883 41.239 46.9752 41.5795C46.9541 42.0808 46.9541 42.0808 46.9327 42.5922C46.8982 43.4176 46.865 44.2429 46.833 45.0683C46.6186 44.9618 46.4042 44.8553 46.1833 44.7456C43.777 44.5244 41.9403 44.5193 40.0111 46.0363C38.7907 47.5241 38.5237 48.6931 38.5487 50.5634C38.5461 50.9424 38.5461 50.9424 38.5434 51.3291C38.5393 52.1618 38.5447 52.9942 38.5505 53.8268C38.5505 54.4114 38.55 54.9959 38.5491 55.5804C38.5486 56.8067 38.5527 58.0328 38.5601 59.2591C38.5693 60.8153 38.5685 62.3714 38.5643 63.9277C38.562 65.1366 38.5646 66.3456 38.5686 67.5546C38.5701 68.1273 38.5702 68.7 38.5689 69.2728C38.5619 75.1026 38.9334 81.2168 42.6099 86.0465C42.8712 86.4358 42.8712 86.4358 43.1378 86.833C45.9891 89.8886 49.6059 91.4339 53.7448 91.6043C55.0963 91.6428 56.4474 91.6516 57.7994 91.6514C58.6456 91.6528 59.4913 91.6645 60.3374 91.6767C64.8648 91.7073 68.3887 90.9024 72.1717 88.3052C72.3635 88.1746 72.5553 88.0439 72.7529 87.9094C74.0797 86.8913 75.0558 85.6256 76.07 84.3122C78.8324 80.7436 81.9866 77.5721 85.204 74.4092C85.4085 74.2078 85.6129 74.0064 85.8236 73.7988C86.8602 72.778 87.8993 71.7601 88.9435 70.747C89.3311 70.3671 89.7186 69.9871 90.106 69.6071C90.2862 69.4342 90.4663 69.2613 90.6519 69.0831C92.0695 67.6844 92.7206 66.4672 92.8203 64.4886C92.7921 62.7844 92.1486 61.9498 90.9879 60.7477C89.7639 59.7395 88.7696 59.4334 87.1557 59.4924C84.6618 59.8384 82.8435 61.6532 81.0151 63.2244C80.1783 63.9413 79.3147 64.6177 78.441 65.2898C78.1791 65.4915 77.9171 65.6932 77.6473 65.901C77.4484 66.0538 77.2495 66.2066 77.0445 66.3641C77.0441 65.9979 77.0436 65.6317 77.0431 65.2545C77.0377 61.7984 77.0238 58.3425 77.0016 54.8865C76.9905 53.1098 76.9823 51.3333 76.981 49.5566C76.9796 47.841 76.9704 46.1256 76.9557 44.41C76.9515 43.7565 76.9501 43.103 76.9516 42.4495C76.9532 41.5318 76.9447 40.6147 76.9339 39.6971C76.9367 39.4288 76.9395 39.1605 76.9424 38.8841C76.904 36.9242 76.3268 35.6272 75.0954 34.0978C73.5568 32.6787 72.3577 32.3956 70.319 32.4088C69.2784 32.5143 68.5062 32.913 67.6238 33.4524C67.6439 33.0664 67.664 32.6805 67.6847 32.2828C67.6671 30.3022 66.8959 29.0897 65.5325 27.6848C63.8728 26.3075 62.2198 26.3637 60.1521 26.6765ZM64.7001 30.2258C65.5018 31.4088 65.4492 32.6258 65.4534 34.0029C65.4566 34.2517 65.4599 34.5005 65.4632 34.7569C65.4733 35.5774 65.4788 36.3979 65.4843 37.2185C65.4904 37.7882 65.4967 38.3578 65.5033 38.9275C65.52 40.4255 65.5329 41.9234 65.545 43.4214C65.558 44.9506 65.5746 46.4797 65.5909 48.0088C65.6223 51.0081 65.6497 54.0075 65.6746 57.0068C66.2106 57.0068 66.7466 57.0068 67.2989 57.0068C67.3008 56.7638 67.3027 56.5208 67.3047 56.2705C67.3235 53.9774 67.3469 51.6845 67.3755 49.3916C67.39 48.2129 67.4027 47.0341 67.4114 45.8553C67.4199 44.7172 67.433 43.5791 67.4494 42.441C67.4574 41.7967 67.4606 41.1524 67.4638 40.5081C67.4702 40.1141 67.4767 39.7202 67.4833 39.3143C67.4869 38.9683 67.4905 38.6222 67.4942 38.2656C67.6429 37.185 67.9473 36.5832 68.5983 35.7111C69.5801 35.061 69.8709 34.9569 70.9941 34.9246C71.2378 34.9117 71.4816 34.8988 71.7327 34.8855C72.9365 35.1695 73.3664 35.7132 74.1209 36.6791C74.3601 37.7448 74.3419 38.7899 74.3299 39.8783C74.3342 40.3594 74.3342 40.3594 74.3387 40.8502C74.3463 41.9084 74.3427 42.9664 74.3391 44.0247C74.3426 44.7595 74.3467 45.4943 74.3517 46.2291C74.3628 48.162 74.3645 50.0947 74.364 52.0276C74.3651 54.757 74.3789 57.4864 74.3912 60.2158C74.3978 61.6698 74.4008 63.1237 74.401 64.5776C74.4023 65.2379 74.4035 65.8982 74.4048 66.5585C74.4041 66.8625 74.4034 67.1666 74.4027 67.4799C74.409 69.5542 74.409 69.5542 74.7706 69.9134C75.8817 70.0782 76.3092 69.9718 77.2463 69.3323C77.5482 69.0649 77.8502 68.7974 78.1612 68.5219C78.5025 68.2263 78.8443 67.9314 79.1866 67.6371C79.3654 67.482 79.5442 67.327 79.7284 67.1673C80.6998 66.3406 81.7034 65.5556 82.7092 64.7709C82.8972 64.6225 83.0852 64.4741 83.2789 64.3212C85.2487 62.7467 85.2487 62.7467 87.6023 62.0081C88.7786 62.0856 88.7786 62.0856 89.6936 62.8551C90.4967 63.967 90.5468 64.3782 90.3636 65.7187C89.7187 66.6207 89.7187 66.6207 88.8091 67.4405C88.6487 67.5963 88.4882 67.7522 88.3229 67.9128C87.8097 68.4096 87.2902 68.8994 86.7699 69.389C86.0944 70.0352 85.4215 70.6839 84.7484 71.3326C84.5033 71.5673 84.5033 71.5673 84.2532 71.8068C83.1401 72.8788 82.107 73.993 81.104 75.1659C80.3665 76.0085 79.5616 76.7636 78.75 77.5363C77.3188 78.9237 76.0483 80.377 74.8315 81.9527C71.9028 85.7217 68.6937 88.6359 63.7255 89.2731C62.2012 89.3644 60.6835 89.3931 59.1567 89.3927C58.4524 89.3941 57.7487 89.4059 57.0444 89.4181C52.5523 89.4542 48.6424 88.5429 45.2316 85.4844C40.8631 80.9963 40.8307 73.9877 40.8448 68.1236C40.8433 67.571 40.8416 67.0185 40.8396 66.4659C40.8368 65.3206 40.8375 64.1753 40.8408 63.03C40.8445 61.5642 40.8379 60.0987 40.8284 58.633C40.8225 57.4975 40.8226 56.3621 40.8244 55.2266C40.8245 54.6858 40.8225 54.1449 40.8185 53.6041C40.8136 52.8515 40.8171 52.0993 40.8227 51.3467C40.8195 51.1258 40.8164 50.9048 40.8132 50.6772C40.8367 49.1587 41.2105 48.3957 42.2851 47.3269C43.3081 46.8189 44.0783 46.892 45.2088 47.0043C46.7915 48.0185 46.7915 48.0185 47.409 49.719C47.4141 50.3349 47.4141 50.3349 47.4193 50.9632C47.4238 51.1829 47.4282 51.4027 47.4328 51.6291C47.4449 52.3262 47.4437 53.0225 47.4421 53.7197C47.448 54.1943 47.4548 54.6688 47.4624 55.1433C47.4793 56.3023 47.4842 57.461 47.4828 58.6202C48.0208 58.7435 48.5628 58.8505 49.107 58.9428C49.6898 58.364 49.4725 57.4944 49.4728 56.7135C49.474 56.3053 49.4753 55.8971 49.4766 55.4765C49.4766 55.2569 49.4767 55.0372 49.4767 54.811C49.4778 53.8896 49.4848 52.9682 49.4914 52.0468C49.5038 50.33 49.5139 48.6133 49.5133 46.8965C49.513 45.7035 49.5206 44.5108 49.5334 43.3179C49.5368 42.8635 49.5372 42.4092 49.5348 41.9548C49.5316 41.3177 49.5394 40.6805 49.5477 40.0434C49.5495 39.4999 49.5495 39.4999 49.5513 38.9455C49.8207 37.666 50.3863 37.1824 51.381 36.3564C52.3241 35.8881 52.9314 35.9136 53.9799 36.0337C54.9315 36.6188 55.7459 37.2834 56.2538 38.2924C56.2927 38.8787 56.3114 39.4664 56.3205 40.0539C56.327 40.4221 56.3335 40.7903 56.3402 41.1696C56.3456 41.5686 56.351 41.9675 56.3566 42.3786C56.3667 42.9896 56.3667 42.9896 56.3771 43.6129C56.3948 44.6961 56.4111 45.7792 56.4267 46.8624C56.443 47.9676 56.4611 49.0728 56.4791 50.178C56.5139 52.3467 56.547 54.5154 56.5787 56.6842C57.2081 56.8657 57.2081 56.8657 57.8781 57.0068C58.4334 56.4553 58.2431 55.7593 58.246 55.0238C58.2453 54.7861 58.2446 54.5485 58.2439 54.3036C58.2445 54.0544 58.2451 53.8051 58.2457 53.5484C58.247 53.0052 58.2477 52.4621 58.2478 51.9189C58.2489 50.7647 58.2559 49.6106 58.2625 48.4564C58.2749 46.3055 58.285 44.1546 58.2843 42.0036C58.2841 40.5094 58.2917 39.0154 58.3044 37.5212C58.3078 36.9516 58.3083 36.3819 58.3059 35.8123C58.3027 35.0142 58.3096 34.2168 58.3188 33.4187C58.3154 33.1836 58.3121 32.9486 58.3087 32.7064C58.3347 31.4394 58.49 30.9168 59.3124 29.9254C61.1834 28.4378 62.9983 28.4873 64.7001 30.2258Z" fill="#0072EF"/>
<path d="M68.9464 65.9614C65.6015 66.014 62.5392 67.3711 60.0802 69.604C58.5583 71.2092 57.2858 72.9678 56.5816 75.0767C56.6425 76.2463 56.6425 76.2463 56.9065 77.0126C57.4425 77.0126 57.9785 77.0126 58.5308 77.0126C58.6798 76.7286 58.8289 76.4445 58.9825 76.1518C59.1818 75.777 59.3812 75.4023 59.5865 75.0162C59.7825 74.6456 59.9785 74.275 60.1804 73.8931C61.7344 71.2171 63.5243 69.8575 66.51 69.0469C67.0983 68.9037 67.6871 68.7624 68.2764 68.6234C68.7306 68.4985 69.1842 68.3712 69.6367 68.2402C69.9382 68.1537 70.2397 68.0672 70.5504 67.9781C70.5643 67.4405 70.5636 66.9024 70.5504 66.3648C70.2255 66.0421 70.2255 66.0421 68.9464 65.9614Z" fill="#0072EF"/>
</g>
<defs>
<clipPath id="clip0_55239_17834">
<rect width="123" height="123" fill="white"/>
</clipPath>
</defs>
</svg>
