<svg width="35" height="35" viewBox="0 0 35 35" fill="currentColor" xmlns="http://www.w3.org/2000/svg">
<g clip-path="url(#clip0_55195_19602)">
<path d="M20.9145 0.321709C20.9804 0.333027 21.0464 0.344345 21.1144 0.356005C24.3197 0.915462 27.2643 2.72043 29.6268 4.87228C29.6792 4.91985 29.7316 4.96742 29.7856 5.01643C32.4469 7.47962 34.078 10.8639 34.7802 14.3694C34.8063 14.499 34.8063 14.499 34.833 14.6312C34.9942 15.5332 35.0018 16.4287 34.9998 17.3419C34.9997 17.4229 34.9997 17.504 34.9997 17.5876C34.9966 18.8718 34.9167 20.098 34.5953 21.3473C34.5785 21.4153 34.5617 21.4832 34.5444 21.5533C34.4282 22.0124 34.2884 22.4606 34.1332 22.9081C34.1074 22.9826 34.0817 23.0571 34.0552 23.1339C32.6326 27.1843 29.9109 30.4717 26.1835 32.6405C26.123 32.6759 26.0625 32.7113 26.0002 32.7477C24.4039 33.6685 22.6385 34.3312 20.822 34.6604C20.7535 34.6739 20.6851 34.6873 20.6145 34.7012C16.9048 35.416 12.8349 34.8469 9.52816 33.009C9.35152 32.9114 9.17298 32.8182 8.99389 32.7251C7.61313 31.9961 6.41372 31.0552 5.29238 29.9779C5.24618 29.9343 5.19997 29.8908 5.15237 29.846C2.20412 27.0662 0.144823 22.8539 0.0118595 18.7914C0.00295737 18.3656 0.000644283 17.9399 0.0002821 17.514C0.000189007 17.4383 9.59141e-05 17.3626 0 17.2846C0.00097591 16.1107 0.0482987 14.9695 0.300707 13.8185C0.314068 13.757 0.327428 13.6954 0.341194 13.6321C0.432426 13.2289 0.545962 12.8354 0.67046 12.4413C0.688885 12.3822 0.70731 12.3232 0.726293 12.2624C2.14155 7.80178 5.30879 4.13891 9.45572 1.96003C10.205 1.5744 10.9633 1.23499 11.7631 0.964412C11.8601 0.931414 11.8601 0.931414 11.9592 0.897748C14.8592 -0.0714262 17.9097 -0.243569 20.9145 0.321709ZM13.167 2.76628C13.0908 2.78951 13.0146 2.81275 12.9361 2.83668C11.0714 3.42825 9.26258 4.35879 7.78822 5.64696C7.71612 5.70863 7.64403 5.77029 7.56976 5.83382C7.33026 6.04287 7.09641 6.25668 6.86383 6.47329C6.81721 6.51648 6.77059 6.55966 6.72256 6.60416C4.53022 8.65116 3.12974 11.2961 2.42679 14.1857C2.40192 14.2857 2.40192 14.2857 2.37655 14.3876C1.78261 16.8815 2.01898 19.8578 2.88898 22.2654C2.91326 22.3327 2.93754 22.4001 2.96255 22.4694C3.78627 24.716 5.00346 26.6123 6.67895 28.3252C6.72774 28.3758 6.77652 28.4264 6.82678 28.4785C8.52526 30.2109 10.8032 31.4599 13.115 32.1699C13.1964 32.1951 13.2777 32.2203 13.3616 32.2462C14.6993 32.6357 16.0024 32.7815 17.3903 32.7667C17.463 32.7663 17.5357 32.7658 17.6107 32.7653C18.7006 32.7573 19.7607 32.7247 20.822 32.4569C20.9022 32.4371 20.9824 32.4174 21.065 32.397C22.8359 31.946 24.602 31.2296 26.091 30.1615C26.1792 30.0997 26.2674 30.0379 26.3582 29.9743C27.0564 29.4711 27.6859 28.9145 28.3095 28.3252C28.3728 28.2683 28.4361 28.2113 28.5013 28.1527C31.0732 25.7588 32.7164 21.8709 32.8505 18.3866C32.8806 17.0252 32.894 15.698 32.5617 14.3694C32.5299 14.2304 32.4981 14.0915 32.4664 13.9526C31.7724 11.0364 30.2806 8.55982 28.1247 6.47329C28.0806 6.4243 28.0365 6.3753 27.9911 6.32481C26.1245 4.32122 23.2442 2.99685 20.5874 2.47821C20.4379 2.4488 20.2889 2.41682 20.1406 2.38205C19.3564 2.21211 18.5717 2.21885 17.7729 2.22083C17.5313 2.22112 17.2899 2.21897 17.0483 2.21664C15.7144 2.21157 14.4456 2.37411 13.167 2.76628Z" fill="#868686"/>
<path d="M17.1163 7.59088C16.6259 7.75029 16.3992 8.01738 16.0995 8.41722C15.9685 8.6773 15.975 8.91987 15.955 9.20912C15.9473 9.31824 15.9395 9.42736 15.9315 9.53979C15.9259 9.62383 15.9203 9.70786 15.9146 9.79444C15.8629 9.76473 15.8111 9.73502 15.7579 9.70441C15.301 9.50367 14.7851 9.55733 14.32 9.70836C13.9116 9.99418 13.5783 10.329 13.4187 10.8044C13.4051 10.9604 13.3959 11.1167 13.3895 11.2732C13.3837 11.4085 13.3837 11.4085 13.3778 11.5466C13.3741 11.6407 13.3705 11.7347 13.3667 11.8316C13.3608 11.9742 13.3608 11.9742 13.3546 12.1198C13.3448 12.3546 13.3354 12.5894 13.3263 12.8243C13.2653 12.794 13.2043 12.7637 13.1414 12.7325C12.4567 12.6696 11.9341 12.6681 11.3851 13.0998C11.0378 13.5231 10.9618 13.8558 10.969 14.388C10.9682 14.4958 10.9682 14.4958 10.9675 14.6059C10.9663 14.8428 10.9678 15.0796 10.9695 15.3166C10.9695 15.4829 10.9693 15.6492 10.9691 15.8156C10.9689 16.1645 10.9701 16.5134 10.9722 16.8624C10.9748 17.3052 10.9746 17.748 10.9734 18.1908C10.9728 18.5348 10.9735 18.8788 10.9746 19.2229C10.975 19.3858 10.9751 19.5488 10.9747 19.7118C10.9727 21.3707 11.0784 23.1105 12.1246 24.4848C12.199 24.5956 12.199 24.5956 12.2748 24.7086C13.0862 25.5781 14.1153 26.0178 15.2931 26.0663C15.6776 26.0772 16.0621 26.0797 16.4468 26.0797C16.6876 26.0801 16.9282 26.0834 17.169 26.0869C18.4573 26.0956 19.46 25.8666 20.5365 25.1275C20.5911 25.0903 20.6456 25.0532 20.7019 25.0149C21.0794 24.7252 21.3572 24.365 21.6458 23.9913C22.4318 22.9758 23.3294 22.0734 24.2449 21.1734C24.303 21.116 24.3612 21.0587 24.4212 20.9997C24.7161 20.7092 25.0118 20.4195 25.309 20.1313C25.4192 20.0232 25.5295 19.915 25.6397 19.8069C25.691 19.7577 25.7423 19.7085 25.7951 19.6578C26.1985 19.2598 26.3837 18.9134 26.4121 18.3504C26.4041 17.8655 26.221 17.628 25.8907 17.2859C25.5424 16.9991 25.2595 16.912 24.8002 16.9287C24.0906 17.0272 23.5732 17.5436 23.0529 17.9907C22.8148 18.1947 22.569 18.3872 22.3204 18.5784C22.2459 18.6358 22.1714 18.6932 22.0946 18.7523C22.038 18.7958 21.9814 18.8393 21.9231 18.8841C21.9229 18.7799 21.9228 18.6757 21.9227 18.5684C21.9211 17.5849 21.9172 16.6015 21.9109 15.6181C21.9077 15.1126 21.9054 14.607 21.905 14.1015C21.9046 13.6133 21.902 13.1252 21.8978 12.637C21.8966 12.451 21.8962 12.2651 21.8966 12.0791C21.8971 11.818 21.8947 11.557 21.8916 11.2959C21.8924 11.2196 21.8932 11.1432 21.894 11.0646C21.8831 10.5069 21.7188 10.1378 21.3684 9.70262C20.9306 9.29882 20.5894 9.21826 20.0093 9.22203C19.7132 9.25204 19.4935 9.36551 19.2424 9.51899C19.2481 9.40916 19.2538 9.29933 19.2597 9.18616C19.2547 8.6226 19.0352 8.27757 18.6473 7.8778C18.175 7.48589 17.7047 7.50186 17.1163 7.59088ZM18.4104 8.60084C18.6386 8.93747 18.6236 9.28377 18.6248 9.67563C18.6257 9.74643 18.6266 9.81723 18.6276 9.89018C18.6304 10.1237 18.632 10.3571 18.6336 10.5906C18.6353 10.7527 18.6371 10.9148 18.639 11.0769C18.6437 11.5032 18.6474 11.9294 18.6508 12.3557C18.6545 12.7908 18.6593 13.2259 18.6639 13.6611C18.6728 14.5145 18.6806 15.368 18.6877 16.2215C18.8403 16.2215 18.9928 16.2215 19.1499 16.2215C19.1505 16.1523 19.151 16.0832 19.1516 16.0119C19.1569 15.3594 19.1636 14.707 19.1717 14.0545C19.1758 13.7191 19.1795 13.3837 19.1819 13.0483C19.1844 12.7244 19.1881 12.4006 19.1927 12.0767C19.195 11.8934 19.1959 11.71 19.1968 11.5267C19.1987 11.4146 19.2005 11.3025 19.2024 11.187C19.2034 11.0885 19.2044 10.9901 19.2055 10.8886C19.2478 10.5811 19.3344 10.4099 19.5197 10.1617C19.799 9.97671 19.8818 9.94711 20.2014 9.9379C20.2708 9.93423 20.3401 9.93056 20.4116 9.92678C20.7541 10.0076 20.8764 10.1623 21.0911 10.4371C21.1592 10.7404 21.154 11.0378 21.1506 11.3475C21.1518 11.4844 21.1518 11.4844 21.1531 11.624C21.1553 11.9252 21.1543 12.2262 21.1532 12.5274C21.1542 12.7365 21.1554 12.9455 21.1568 13.1546C21.16 13.7046 21.1605 14.2546 21.1603 14.8046C21.1606 15.5813 21.1646 16.3579 21.1681 17.1346C21.1699 17.5483 21.1708 17.962 21.1709 18.3758C21.1712 18.5636 21.1716 18.7515 21.1719 18.9394C21.1717 19.0259 21.1715 19.1125 21.1713 19.2016C21.1731 19.7919 21.1731 19.7919 21.276 19.8941C21.5922 19.941 21.7138 19.9107 21.9805 19.7287C22.0664 19.6526 22.1523 19.5765 22.2408 19.4981C22.3379 19.414 22.4352 19.3301 22.5326 19.2463C22.5835 19.2022 22.6343 19.1581 22.6868 19.1126C22.9632 18.8774 23.2488 18.654 23.535 18.4308C23.5885 18.3885 23.642 18.3463 23.6971 18.3028C24.2576 17.8548 24.2576 17.8548 24.9273 17.6446C25.262 17.6666 25.262 17.6666 25.5224 17.8856C25.7509 18.202 25.7652 18.319 25.713 18.7005C25.5295 18.9571 25.5295 18.9571 25.2707 19.1904C25.2251 19.2347 25.1794 19.2791 25.1324 19.3248C24.9863 19.4662 24.8385 19.6055 24.6904 19.7449C24.4982 19.9287 24.3067 20.1133 24.1152 20.2979C24.0455 20.3647 24.0455 20.3647 23.9743 20.4328C23.6576 20.7379 23.3636 21.0549 23.0782 21.3887C22.8684 21.6285 22.6393 21.8433 22.4084 22.0632C22.0011 22.458 21.6396 22.8715 21.2933 23.3199C20.46 24.3924 19.5468 25.2216 18.1331 25.4029C17.6994 25.4289 17.2675 25.4371 16.833 25.437C16.6326 25.4374 16.4324 25.4407 16.232 25.4442C14.9537 25.4545 13.8411 25.1952 12.8706 24.3248C11.6275 23.0477 11.6183 21.0534 11.6223 19.3848C11.6219 19.2275 11.6214 19.0703 11.6209 18.9131C11.62 18.5872 11.6203 18.2613 11.6212 17.9354C11.6223 17.5183 11.6204 17.1013 11.6177 16.6842C11.616 16.3611 11.616 16.038 11.6165 15.7149C11.6165 15.561 11.616 15.4071 11.6148 15.2532C11.6135 15.0391 11.6144 14.825 11.616 14.6109C11.6151 14.548 11.6142 14.4851 11.6133 14.4204C11.62 13.9883 11.7264 13.7711 12.0322 13.467C12.3233 13.3225 12.5424 13.3433 12.8641 13.3752C13.3145 13.6638 13.3145 13.6638 13.4902 14.1477C13.4916 14.3229 13.4916 14.3229 13.4931 14.5017C13.4944 14.5643 13.4957 14.6268 13.497 14.6912C13.5004 14.8896 13.5001 15.0877 13.4996 15.2861C13.5013 15.4211 13.5032 15.5562 13.5054 15.6912C13.5102 16.021 13.5116 16.3507 13.5112 16.6805C13.6643 16.7156 13.8185 16.7461 13.9734 16.7724C14.1392 16.6076 14.0774 16.3602 14.0775 16.138C14.0778 16.0218 14.0782 15.9057 14.0785 15.786C14.0785 15.7235 14.0786 15.661 14.0786 15.5966C14.0789 15.3344 14.0809 15.0723 14.0828 14.8101C14.0863 14.3216 14.0892 13.8331 14.089 13.3445C14.0889 13.0051 14.0911 12.6657 14.0947 12.3262C14.0957 12.1969 14.0958 12.0677 14.0951 11.9384C14.0942 11.7571 14.0964 11.5758 14.0988 11.3945C14.0993 11.2398 14.0993 11.2398 14.0998 11.0821C14.1764 10.718 14.3374 10.5804 14.6204 10.3453C14.8888 10.2121 15.0616 10.2193 15.3599 10.2535C15.6307 10.42 15.8625 10.6091 16.007 10.8962C16.0181 11.0631 16.0234 11.2303 16.026 11.3975C16.0278 11.5022 16.0297 11.607 16.0316 11.7149C16.0331 11.8285 16.0347 11.942 16.0363 12.059C16.0391 12.2328 16.0391 12.2328 16.0421 12.4102C16.0471 12.7184 16.0518 13.0266 16.0562 13.3348C16.0609 13.6493 16.066 13.9638 16.0711 14.2783C16.081 14.8954 16.0904 15.5125 16.0995 16.1297C16.2786 16.1813 16.2786 16.1813 16.4692 16.2215C16.6272 16.0645 16.5731 15.8665 16.5739 15.6572C16.5737 15.5896 16.5735 15.5219 16.5733 15.4522C16.5735 15.3813 16.5736 15.3104 16.5738 15.2373C16.5742 15.0828 16.5744 14.9282 16.5744 14.7737C16.5747 14.4453 16.5767 14.1168 16.5786 13.7884C16.5821 13.1764 16.585 12.5643 16.5848 11.9523C16.5847 11.5271 16.5869 11.1019 16.5905 10.6768C16.5915 10.5147 16.5916 10.3526 16.5909 10.1905C16.59 9.9634 16.592 9.73648 16.5946 9.5094C16.5937 9.44251 16.5927 9.37562 16.5917 9.30671C16.5991 8.94618 16.6433 8.79746 16.8773 8.51537C17.4097 8.09208 17.9262 8.10614 18.4104 8.60084Z" fill="#868686"/>
<path d="M19.6188 18.7695C18.667 18.7845 17.7956 19.1707 17.0959 19.806C16.6629 20.2628 16.3007 20.7632 16.1004 21.3633C16.1177 21.6961 16.1177 21.6961 16.1928 21.9142C16.3453 21.9142 16.4979 21.9142 16.655 21.9142C16.6974 21.8333 16.7399 21.7525 16.7836 21.6692C16.8403 21.5626 16.897 21.456 16.9554 21.3461C17.0112 21.2406 17.067 21.1352 17.1244 21.0265C17.5666 20.2651 18.0759 19.8782 18.9255 19.6475C19.0929 19.6068 19.2605 19.5665 19.4282 19.527C19.5574 19.4915 19.6865 19.4553 19.8153 19.418C19.901 19.3934 19.9868 19.3687 20.0752 19.3434C20.0792 19.1904 20.079 19.0373 20.0752 18.8843C19.9828 18.7925 19.9828 18.7925 19.6188 18.7695Z" fill="#868686"/>
</g>
<defs>
<clipPath id="clip0_55195_19602">
<rect width="35" height="35" fill="white"/>
</clipPath>
</defs>
</svg>
