<svg width="149" height="149" viewBox="0 0 149 149" fill="none" xmlns="http://www.w3.org/2000/svg">
<g clip-path="url(#clip0_55239_37747)">
<path d="M73.9834 0.00225009C74.3388 0.00206894 74.6942 0.00188778 75.0604 0.00170114C80.2763 0.00952256 85.1362 0.324428 90.1776 1.75111C91.0687 1.96026 91.9601 2.16857 92.8517 2.3757C94.7928 2.88253 96.6886 3.46645 98.5746 4.14955C98.955 4.28404 99.3354 4.41853 99.7273 4.5571C103.351 5.88767 106.764 7.54431 110.171 9.34616C110.788 9.67234 110.788 9.67234 111.419 10.0051C117.053 13.139 121.948 17.2758 126.565 21.7381C126.854 22.0071 127.144 22.2761 127.443 22.5532C137.555 32.1711 144.056 45.8343 146.957 59.3136C147.023 59.6153 147.088 59.917 147.156 60.2279C148.853 68.4529 148.855 77.437 147.357 85.6964C147.241 86.4052 147.241 86.4052 147.121 87.1283C143.558 106.922 132.465 123.954 116.062 135.457C100.474 146.155 80.7414 150.947 62.0302 147.563C60.8802 147.339 59.7342 147.103 58.5888 146.857C58.2498 146.784 57.9108 146.711 57.5615 146.636C47.4911 144.395 37.9646 139.956 29.7991 133.665C29.2725 133.266 29.2725 133.266 28.7354 132.858C13.1793 120.757 3.27781 103.261 0.589228 83.7807C-1.1307 69.2914 0.847795 54.8269 7.40702 41.7251C7.53318 41.4669 7.65933 41.2088 7.78931 40.9428C16.044 24.1475 31.2668 10.5982 48.837 4.15121C52.9175 2.76201 57.1738 1.83547 61.3878 0.951632C61.7507 0.872213 62.1136 0.792794 62.4874 0.710968C66.2962 -0.0328674 70.1177 -0.00538953 73.9834 0.00225009ZM28.1996 27.3344C27.7234 27.7727 27.7234 27.7727 27.2375 28.2198C17.826 37.167 12.4327 49.0972 9.7312 61.6121C9.66438 61.9191 9.59757 62.2261 9.52873 62.5424C8.02787 69.7648 8.29847 77.2404 9.40631 84.4972C9.47486 84.9986 9.54342 85.5 9.61405 86.0165C11.5746 98.3959 17.7516 110.124 26.4337 119.088C27.002 119.676 27.561 120.273 28.12 120.87C36.6454 129.842 47.9064 135.413 59.7884 138.462C60.2032 138.57 60.2032 138.57 60.6264 138.681C75.7657 142.431 93.9094 139.016 107.122 131.097C123.126 121.136 134.033 106.335 138.326 87.9575C138.403 87.6071 138.481 87.2567 138.56 86.8956C138.638 86.5617 138.715 86.2278 138.795 85.8838C142.305 69.8148 138.113 52.2405 129.364 38.5272C119.331 23.8144 104.524 13.3471 86.9787 9.7459C65.3281 5.72937 44.0825 12.136 28.1996 27.3344Z" fill="#868686"/>
<path d="M32.5978 44.9226C33.5215 45.7141 34.4452 46.5056 35.3968 47.3211C35.3968 59.8529 35.3968 72.3847 35.3968 85.2963C60.9957 85.2963 86.5946 85.2963 112.969 85.2963C112.969 80.9432 112.969 76.59 112.969 72.1049C115.368 69.7065 115.368 69.7065 116.643 69.5566C118.64 69.753 119.169 70.3084 120.567 71.7052C121.149 72.8692 121.03 73.8992 121.044 75.1994C121.048 75.6149 121.048 75.6149 121.053 76.0387C121.063 76.9572 121.07 77.8757 121.076 78.7943C121.078 79.1081 121.08 79.4219 121.082 79.7452C121.093 81.4068 121.101 83.0683 121.106 84.7299C121.113 86.4442 121.131 88.1583 121.151 89.8725C121.165 91.1921 121.169 92.5117 121.172 93.8314C121.174 94.4631 121.18 95.0949 121.19 95.7266C121.203 96.6127 121.203 97.4981 121.2 98.3843C121.203 98.8878 121.206 99.3914 121.21 99.9102C120.887 101.734 120.264 102.382 118.967 103.684C117.896 104.157 116.93 104.188 115.768 104.084C114.071 103.383 113.816 102.979 112.969 101.286C112.969 98.6476 112.969 96.0093 112.969 93.2911C87.3704 93.2911 61.7715 93.2911 35.3968 93.2911C35.3968 95.9294 35.3968 98.5677 35.3968 101.286C33.1189 104.019 33.1189 104.019 31.8231 104.159C30.5092 104.239 29.8441 103.983 28.8242 103.16C27.4391 101.708 27.3492 101.108 27.3381 99.1545C27.3347 98.7022 27.3313 98.2499 27.3277 97.784C27.326 97.2854 27.3243 96.7868 27.3226 96.2731C27.3193 95.7498 27.316 95.2265 27.3126 94.6874C27.3022 92.9494 27.296 91.2113 27.2903 89.4733C27.2882 88.8752 27.286 88.277 27.2839 87.6789C27.2752 85.1911 27.2678 82.7032 27.2632 80.2154C27.2568 76.6489 27.2435 73.0826 27.2207 69.5162C27.2052 67.0091 27.1974 64.5021 27.1953 61.9949C27.1938 60.4972 27.189 58.9997 27.1761 57.502C27.1618 55.8309 27.1634 54.1602 27.1664 52.4891C27.1598 51.9929 27.1532 51.4967 27.1465 50.9855C27.1737 47.2546 27.1737 47.2546 28.3639 46.0237C29.8995 44.9832 30.7236 44.6752 32.5978 44.9226Z" fill="#868686"/>
<path d="M72.9598 65.3845C73.8109 65.5709 74.6621 65.7561 75.5136 65.9404C75.9525 66.0354 76.3913 66.1305 76.8434 66.2284C79.0481 66.6898 81.2643 67.0845 83.4811 67.4831C88.6519 68.4222 93.7859 69.505 98.9182 70.634C100.08 70.8853 101.243 71.1241 102.409 71.3571C102.741 71.4254 103.073 71.4936 103.415 71.5639C104.012 71.6863 104.609 71.8046 105.208 71.9178C107.546 72.4082 108.855 73.3283 110.172 75.303C110.474 77.1155 110.363 78.8033 109.522 80.4496C108.434 81.8803 107.842 82.26 106.173 82.8981C104.826 83.0718 103.491 83.0742 102.134 83.0723C101.533 83.0783 101.533 83.0783 100.919 83.0845C99.5977 83.0958 98.2762 83.0982 96.9544 83.0995C96.0332 83.1033 95.1119 83.1074 94.1907 83.1116C92.2606 83.1188 90.3307 83.121 88.4007 83.1203C85.9311 83.1202 83.4619 83.1365 80.9924 83.1572C79.0899 83.1705 77.1875 83.1729 75.2849 83.1723C74.3747 83.1737 73.4644 83.179 72.5541 83.1883C71.2792 83.2001 70.0052 83.1966 68.7303 83.1894C68.3567 83.1961 67.9831 83.2028 67.5982 83.2098C64.8978 83.1711 63.3231 82.3786 61.389 80.4996C59.7514 78.4006 59.9976 76.286 60.0144 73.729C60.0065 73.3006 59.9985 72.8721 59.9902 72.4307C59.9918 69.9303 60.0989 68.3988 61.7888 66.5087C65.211 63.4949 68.7805 64.4272 72.9598 65.3845Z" fill="#868686"/>
<path d="M53.3907 56.1158C55.2225 57.7616 56.82 59.5811 57.1378 62.0791C57.1992 65.1015 56.976 67.3408 54.9901 69.707C52.353 72.1762 50.2082 72.6802 46.6368 72.641C44.392 72.3957 42.6911 71.4706 41.1575 69.8209C40.6434 69.1382 40.2099 68.455 39.7955 67.7083C39.6223 67.4032 39.4491 67.0982 39.2707 66.7839C38.5053 63.7929 38.8518 61.3181 40.3453 58.6204C43.5733 54.1212 48.7405 53.3946 53.3907 56.1158Z" fill="#868686"/>
<path d="M43.9092 75.0658C44.2206 75.0658 44.5319 75.0658 44.8527 75.0658C45.5077 75.0679 46.1627 75.0749 46.8176 75.0865C47.8173 75.1033 48.8159 75.1029 49.8157 75.1002C50.4543 75.1044 51.0928 75.1095 51.7314 75.1158C52.0284 75.1159 52.3255 75.116 52.6315 75.116C54.4152 75.1565 55.5774 75.3951 56.9905 76.5024C57.9326 77.9152 57.9861 78.4354 57.7902 80.1C56.5275 82.3302 56.5275 82.3302 55.3911 82.8982C53.2447 83.012 51.0978 83.0236 48.9487 83.0382C48.2308 83.0448 47.5129 83.0557 46.7952 83.071C45.7591 83.0929 44.7237 83.1016 43.6874 83.1075C43.3679 83.1165 43.0483 83.1256 42.7191 83.1349C41.0066 83.1285 40.3857 83.0489 38.9961 81.9428C38.1786 80.8753 37.9153 80.4224 37.9223 79.1007C37.9125 78.808 37.9027 78.5153 37.8926 78.2138C38.8214 75.4328 41.3135 75.0084 43.9092 75.0658Z" fill="#868686"/>
</g>
<defs>
<clipPath id="clip0_55239_37747">
<rect width="148.456" height="148.634" fill="white"/>
</clipPath>
</defs>
</svg>
