<svg width="111" height="112" viewBox="0 0 111 112" fill="none" xmlns="http://www.w3.org/2000/svg">
<g clip-path="url(#clip0_55239_37746)">
<path d="M55.3171 0.00169551C55.5828 0.001559 55.8486 0.0014225 56.1224 0.00128185C60.0223 0.0071755 63.656 0.244465 67.4255 1.31951C68.0918 1.47711 68.7582 1.63408 69.4248 1.79016C70.8762 2.17206 72.2937 2.61206 73.7039 3.1268C73.9883 3.22814 74.2727 3.32948 74.5658 3.43389C77.275 4.43652 79.8267 5.68484 82.3741 7.04259C82.836 7.28837 82.836 7.28837 83.3072 7.53912C87.5205 9.90058 91.1798 13.0178 94.632 16.3802C94.8485 16.5829 95.0651 16.7856 95.2883 16.9944C102.849 24.2418 107.71 34.5374 109.88 44.6944C109.928 44.9218 109.977 45.1491 110.028 45.3833C111.297 51.5811 111.298 58.3508 110.179 64.5746C110.091 65.1087 110.091 65.1087 110.002 65.6535C107.338 80.5684 99.0438 93.4025 86.7794 102.071C75.1244 110.131 60.3701 113.743 46.3797 111.192C45.5199 111.024 44.663 110.846 43.8067 110.66C43.5532 110.606 43.2997 110.551 43.0385 110.494C35.5089 108.805 28.386 105.461 22.2807 100.72C21.887 100.419 21.887 100.419 21.4853 100.112C9.85411 90.9935 2.4508 77.8101 0.440564 63.131C-0.845423 52.2129 0.633893 41.3135 5.5382 31.441C5.63253 31.2464 5.72685 31.0519 5.82404 30.8515C11.9961 18.1958 23.378 7.98602 36.5153 3.12805C39.5662 2.08125 42.7486 1.38307 45.8995 0.71708C46.1708 0.657236 46.4421 0.597392 46.7216 0.535734C49.5694 -0.0247665 52.4268 -0.00406116 55.3171 0.00169551ZM21.0848 20.5972C20.7287 20.9275 20.7287 20.9275 20.3654 21.2644C13.3284 28.0063 9.29587 36.9961 7.27598 46.4264C7.22602 46.6577 7.17607 46.889 7.1246 47.1274C6.00241 52.5696 6.20474 58.2027 7.03306 63.6709C7.08432 64.0487 7.13558 64.4265 7.18839 64.8158C8.65428 74.144 13.2728 82.9812 19.7644 89.7357C20.1893 90.1793 20.6072 90.6289 21.0252 91.0791C27.3996 97.8394 35.8195 102.037 44.7036 104.335C45.0137 104.417 45.0137 104.417 45.3301 104.5C56.6497 107.326 70.2157 104.752 80.0944 98.7854C92.0611 91.2795 100.216 80.126 103.426 66.2783C103.484 66.0143 103.542 65.7503 103.601 65.4782C103.659 65.2266 103.717 64.975 103.776 64.7158C106.401 52.6073 103.266 39.3646 96.7248 29.0313C89.2233 17.9448 78.1523 10.0574 65.0337 7.3438C48.8456 4.31723 32.9603 9.14479 21.0848 20.5972Z" fill="#0072EF"/>
<path d="M24.3728 33.8505C25.0635 34.4469 25.7541 35.0433 26.4656 35.6577C26.4656 45.1008 26.4656 54.5439 26.4656 64.2731C45.6058 64.2731 64.746 64.2731 84.4663 64.2731C84.4663 60.9929 84.4663 57.7127 84.4663 54.333C86.2601 52.5258 86.2601 52.5258 87.2131 52.4128C88.7064 52.5608 89.1021 52.9794 90.1467 54.0318C90.582 54.909 90.4934 55.6851 90.5034 56.6648C90.507 56.9779 90.507 56.9779 90.5108 57.2973C90.5182 57.9894 90.5231 58.6815 90.5275 59.3737C90.529 59.6101 90.5306 59.8466 90.5323 60.0902C90.5403 61.3423 90.5461 62.5943 90.5504 63.8463C90.5553 65.1381 90.5687 66.4297 90.584 67.7214C90.594 68.7158 90.5975 69.7101 90.5992 70.7045C90.6012 71.1806 90.6057 71.6566 90.6129 72.1326C90.6224 72.8004 90.6224 73.4675 90.6202 74.1353C90.6226 74.5147 90.625 74.8942 90.6275 75.2851C90.3865 76.6594 89.9205 77.148 88.9508 78.129C88.1502 78.485 87.4276 78.5082 86.5591 78.4302C85.2897 77.902 85.0995 77.5977 84.4663 76.3217C84.4663 74.3337 84.4663 72.3457 84.4663 70.2974C65.3261 70.2974 46.1858 70.2974 26.4656 70.2974C26.4656 72.2854 26.4656 74.2735 26.4656 76.3217C24.7624 78.3809 24.7624 78.3809 23.7936 78.4867C22.8112 78.5467 22.3139 78.3542 21.5513 77.7337C20.5157 76.6394 20.4484 76.1873 20.4402 74.7156C20.4376 74.3748 20.435 74.034 20.4324 73.6829C20.4311 73.3072 20.4298 72.9315 20.4285 72.5444C20.4261 72.1501 20.4236 71.7558 20.4211 71.3496C20.4133 70.0399 20.4087 68.7303 20.4044 67.4206C20.4028 66.9699 20.4012 66.5192 20.3996 66.0685C20.3931 64.1938 20.3875 62.3192 20.3842 60.4445C20.3793 57.7571 20.3694 55.0698 20.3524 52.3824C20.3408 50.4932 20.335 48.6041 20.3334 46.7149C20.3323 45.5863 20.3287 44.4579 20.319 43.3294C20.3083 42.0702 20.3095 40.8112 20.3117 39.552C20.3068 39.1781 20.3019 38.8042 20.2969 38.419C20.3172 35.6076 20.3172 35.6076 21.2071 34.6801C22.3553 33.8961 22.9715 33.664 24.3728 33.8505Z" fill="#0072EF"/>
<path d="M54.5508 49.269C55.1871 49.4095 55.8236 49.5491 56.4603 49.6879C56.7884 49.7596 57.1165 49.8312 57.4546 49.905C59.103 50.2526 60.7601 50.5501 62.4176 50.8504C66.2837 51.5581 70.1224 52.3739 73.9598 53.2247C74.8284 53.414 75.6983 53.594 76.5697 53.7696C76.8181 53.821 77.0664 53.8725 77.3223 53.9254C77.7684 54.0176 78.2151 54.1068 78.6626 54.1921C80.4108 54.5616 81.3893 55.2549 82.374 56.7429C82.5999 58.1087 82.5169 59.3805 81.8881 60.6211C81.0749 61.6991 80.632 61.9852 79.3842 62.466C78.377 62.5969 77.3789 62.5988 76.3643 62.5973C75.9148 62.6018 75.9148 62.6018 75.4561 62.6065C74.4679 62.615 73.4798 62.6168 72.4915 62.6178C71.8027 62.6207 71.1139 62.6237 70.4251 62.6269C68.982 62.6323 67.539 62.634 66.0959 62.6335C64.2494 62.6334 62.4032 62.6457 60.5567 62.6613C59.1342 62.6713 57.7118 62.6731 56.2893 62.6727C55.6087 62.6737 54.9281 62.6777 54.2475 62.6847C53.2942 62.6936 52.3417 62.691 51.3884 62.6855C51.1091 62.6906 50.8298 62.6957 50.542 62.7009C48.5228 62.6717 47.3455 62.0746 45.8993 60.6587C44.6749 59.0771 44.859 57.4837 44.8716 55.5569C44.8656 55.234 44.8597 54.9112 44.8535 54.5785C44.8547 52.6945 44.9348 51.5405 46.1983 50.1162C48.757 47.8452 51.4259 48.5477 54.5508 49.269Z" fill="#0072EF"/>
<path d="M39.9202 42.2846C41.2898 43.5248 42.4843 44.8958 42.7219 46.7781C42.7678 49.0556 42.6009 50.7429 41.1161 52.5259C39.1444 54.3866 37.5407 54.7663 34.8704 54.7368C33.1919 54.552 31.9202 53.8548 30.7735 52.6118C30.3891 52.0973 30.065 51.5825 29.7551 51.0198C29.6256 50.79 29.4962 50.5601 29.3627 50.3233C28.7905 48.0695 29.0495 46.2047 30.1662 44.1719C32.5798 40.7816 36.4433 40.2341 39.9202 42.2846Z" fill="#0072EF"/>
<path d="M32.8306 56.5642C33.0634 56.5641 33.2963 56.5641 33.5361 56.5641C34.0259 56.5657 34.5156 56.571 35.0053 56.5797C35.7527 56.5924 36.4994 56.5921 37.2469 56.59C37.7244 56.5932 38.2018 56.5971 38.6793 56.6018C38.9014 56.6019 39.1234 56.6019 39.3523 56.602C40.6859 56.6325 41.5549 56.8123 42.6115 57.6466C43.3159 58.7112 43.3559 59.1032 43.2094 60.3576C42.2653 62.038 42.2653 62.038 41.4156 62.4661C39.8107 62.5519 38.2056 62.5606 36.5987 62.5715C36.0619 62.5765 35.5251 62.5847 34.9885 62.5962C34.2138 62.6128 33.4396 62.6193 32.6648 62.6238C32.4259 62.6306 32.187 62.6374 31.9408 62.6444C30.6604 62.6396 30.1961 62.5796 29.1571 61.7461C28.5459 60.9417 28.349 60.6005 28.3542 59.6045C28.3469 59.384 28.3396 59.1635 28.332 58.9362C29.0265 56.8407 30.8899 56.5209 32.8306 56.5642Z" fill="#0072EF"/>
</g>
<defs>
<clipPath id="clip0_55239_37746">
<rect width="111" height="112" fill="white"/>
</clipPath>
</defs>
</svg>
