<svg width="49" height="48" viewBox="0 0 49 48" fill="none" xmlns="http://www.w3.org/2000/svg">
<path fill-rule="evenodd" clip-rule="evenodd" d="M10.5946 11.983C9.13462 13.8409 8.25 16.3793 8.25 19.0294C8.25 20.5671 8.51446 22.0384 8.98002 23.4393H17.6652L21.0532 17.4161L23.1703 24.8257L25.7609 21.4949H32.25V23.4949H26.7391L22.3297 29.1641L20.4468 22.5737L18.8348 25.4393H4.25V23.4393H6.88587C6.48033 22.0406 6.25 20.5681 6.25 19.0294C6.25 15.9541 7.27123 12.9753 9.02202 10.7473C10.7776 8.5131 13.3061 6.99487 16.2812 6.99487C19.7848 6.99487 22.4491 8.95824 24.25 11.7287C26.0508 8.95837 28.7151 6.99487 32.2188 6.99487C35.1942 6.99487 37.7227 8.51337 39.4782 10.7476C41.2289 12.9758 42.25 15.9546 42.25 19.0294C42.25 25.6119 37.7063 31.1088 33.4076 34.8609C31.2336 36.7584 29.0644 38.2604 27.4408 39.2874C26.628 39.8016 25.9493 40.1984 25.4717 40.4677C25.2328 40.6024 25.044 40.7054 24.9136 40.7753C24.8485 40.8103 24.7979 40.837 24.7629 40.8553L24.7224 40.8764L24.7111 40.8822L24.7078 40.884L24.7067 40.8845C24.7067 40.8845 24.706 40.8849 24.25 39.9949C23.8162 40.8959 23.8159 40.8958 23.8159 40.8958L23.8099 40.8929L23.796 40.8861L23.7455 40.8613C23.7021 40.8398 23.6392 40.8083 23.5584 40.7672C23.3968 40.6848 23.1633 40.5633 22.8696 40.404C22.2824 40.0854 21.4532 39.6148 20.4758 39.0017C18.5246 37.7777 15.9651 35.9752 13.5582 33.669C12.2743 32.4389 11.0273 31.0593 9.93759 29.541C9.61556 29.0923 9.71824 28.4675 10.1669 28.1455C10.6156 27.8235 11.2404 27.9262 11.5624 28.3749C12.5669 29.7744 13.7282 31.0621 14.9418 32.2249C17.2208 34.4084 19.6613 36.1298 21.5386 37.3074C22.4755 37.8951 23.2677 38.3446 23.8233 38.646C23.981 38.7316 24.1196 38.8052 24.2368 38.8665C24.3123 38.8249 24.3966 38.7779 24.4893 38.7256C24.9413 38.4707 25.5907 38.0912 26.3717 37.5972C27.9356 36.6079 30.0164 35.1662 32.0924 33.3541C36.2937 29.6871 40.25 24.7012 40.25 19.0294C40.25 16.3797 39.3655 13.8413 37.9056 11.9833C36.4505 10.1314 34.4634 8.99487 32.2188 8.99487C29.116 8.99487 26.7094 11.0157 25.1476 14.1967L24.25 16.025L23.3524 14.1967C21.7905 11.0155 19.3839 8.99487 16.2812 8.99487C14.0368 8.99487 12.0497 10.1312 10.5946 11.983ZM24.25 39.9949L23.8159 40.8958L24.2639 41.1114L24.7067 40.8845L24.25 39.9949Z" fill="#007AFF"/>
</svg>
