<svg width="49" height="48" viewBox="0 0 49 48" fill="none" xmlns="http://www.w3.org/2000/svg">
<path fill-rule="evenodd" clip-rule="evenodd" d="M17.75 6.99487C17.75 5.33802 19.0931 3.99487 20.75 3.99487H28.75C30.4069 3.99487 31.75 5.33802 31.75 6.99487H35.75C37.4069 6.99487 38.75 8.33802 38.75 9.99487V40.9949C38.75 42.6518 37.4069 43.9949 35.75 43.9949H13.75C12.0931 43.9949 10.75 42.6518 10.75 40.9949V9.99487C10.75 8.33802 12.0931 6.99487 13.75 6.99487H17.75ZM17.75 8.99487H13.75C13.1977 8.99487 12.75 9.44259 12.75 9.99487V20.9835H18.3826L21.7707 14.9603L23.8877 22.3699L26.4784 19.0391H31.9675C32.5198 19.0391 32.9675 19.4868 32.9675 20.0391C32.9675 20.5914 32.5198 21.0391 31.9675 21.0391H27.4566L23.0472 26.7082L21.1643 20.1179L19.5523 22.9835H12.75V40.9949C12.75 41.5472 13.1977 41.9949 13.75 41.9949H35.75C36.3023 41.9949 36.75 41.5472 36.75 40.9949V9.99487C36.75 9.44258 36.3023 8.99487 35.75 8.99487H31.75C31.75 10.6518 30.4069 11.9949 28.75 11.9949H20.75C19.0931 11.9949 17.75 10.6518 17.75 8.99487ZM20.75 5.99487C20.1977 5.99487 19.75 6.44259 19.75 6.99487V8.99487C19.75 9.54715 20.1977 9.99487 20.75 9.99487H28.75C29.3023 9.99487 29.75 9.54715 29.75 8.99487V6.99487C29.75 6.44259 29.3023 5.99487 28.75 5.99487H20.75ZM16.75 30.9949C16.75 30.4426 17.1977 29.9949 17.75 29.9949H31.75C32.3023 29.9949 32.75 30.4426 32.75 30.9949C32.75 31.5472 32.3023 31.9949 31.75 31.9949H17.75C17.1977 31.9949 16.75 31.5472 16.75 30.9949ZM16.75 36.9949C16.75 36.4426 17.1977 35.9949 17.75 35.9949H23.75C24.3023 35.9949 24.75 36.4426 24.75 36.9949C24.75 37.5472 24.3023 37.9949 23.75 37.9949H17.75C17.1977 37.9949 16.75 37.5472 16.75 36.9949Z" fill="#007AFF"/>
</svg>
