<svg width="65" height="64" viewBox="0 0 65 64" fill="none" xmlns="http://www.w3.org/2000/svg">
<path d="M45.9996 15.2H40.3996V9.6H45.9996C46.7422 9.6 47.4544 9.305 47.9795 8.7799C48.5046 8.2548 48.7996 7.54261 48.7996 6.8C48.7996 6.05739 48.5046 5.3452 47.9795 4.8201C47.4544 4.295 46.7422 4 45.9996 4H23.5996C19.8866 4 16.3256 5.475 13.7001 8.1005C11.0746 10.726 9.59961 14.287 9.59961 18V57.2C9.59961 57.9426 9.89461 58.6548 10.4197 59.1799C10.9448 59.705 11.657 60 12.3996 60C13.1422 60 13.8544 59.705 14.3795 59.1799C14.9046 58.6548 15.1996 57.9426 15.1996 57.2V18C15.1996 15.7722 16.0846 13.6356 17.6599 12.0603C19.2352 10.485 21.3718 9.6 23.5996 9.6H34.7996V15.2H29.1996C26.9718 15.2 24.8352 16.085 23.2599 17.6603C21.6846 19.2356 20.7996 21.3722 20.7996 23.6V37.404C20.7991 38.7897 21.1414 40.1541 21.7961 41.3754C22.4507 42.5968 23.3973 43.6372 24.5516 44.404L29.1996 47.512V48.8C29.1996 50.2852 29.7896 51.7096 30.8398 52.7598C31.89 53.81 33.3144 54.4 34.7996 54.4V57.2C34.7996 57.9426 35.0946 58.6548 35.6197 59.1799C36.1448 59.705 36.857 60 37.5996 60C38.3422 60 39.0544 59.705 39.5795 59.1799C40.1046 58.6548 40.3996 57.9426 40.3996 57.2V54.4C41.8848 54.4 43.3092 53.81 44.3594 52.7598C45.4096 51.7096 45.9996 50.2852 45.9996 48.8V47.512L50.6476 44.404C51.8019 43.6372 52.7485 42.5968 53.4032 41.3754C54.0578 40.1541 54.4001 38.7897 54.3996 37.404V23.6C54.3996 21.3722 53.5146 19.2356 51.9393 17.6603C50.364 16.085 48.2274 15.2 45.9996 15.2ZM43.1996 29.2H48.7996V32H45.9996C45.257 32 44.5448 32.295 44.0197 32.8201C43.4946 33.3452 43.1996 34.0574 43.1996 34.8C43.1996 35.5426 43.4946 36.2548 44.0197 36.7799C44.5448 37.305 45.257 37.6 45.9996 37.6H48.7996C48.7697 38.0251 48.6432 38.4377 48.4297 38.8065C48.2162 39.1752 47.9213 39.4904 47.5676 39.728L41.6876 43.676C41.2972 43.9264 40.9752 44.2698 40.7504 44.6755C40.5256 45.0811 40.405 45.5363 40.3996 46V48.8H34.7996V46C34.7972 45.5388 34.681 45.0854 34.4611 44.6799C34.2413 44.2745 33.9248 43.9296 33.5396 43.676L27.6596 39.728C27.2744 39.4744 26.9579 39.1295 26.7381 38.7241C26.5183 38.3186 26.402 37.8652 26.3996 37.404V23.6C26.3996 22.8574 26.6946 22.1452 27.2197 21.6201C27.7448 21.095 28.457 20.8 29.1996 20.8H45.9996C46.7422 20.8 47.4544 21.095 47.9795 21.6201C48.5046 22.1452 48.7996 22.8574 48.7996 23.6H43.1996C42.457 23.6 41.7448 23.895 41.2197 24.4201C40.6946 24.9452 40.3996 25.6574 40.3996 26.4C40.3996 27.1426 40.6946 27.8548 41.2197 28.3799C41.7448 28.905 42.457 29.2 43.1996 29.2Z" fill="#C9E3FF"/>
</svg>
