<svg width="16" height="16" viewBox="0 0 16 16" fill="none" xmlns="http://www.w3.org/2000/svg">
<path d="M14.2939 7.36653L8.16719 13.4932C7.41662 14.2438 6.39864 14.6654 5.33719 14.6654C4.27573 14.6654 3.25775 14.2438 2.50719 13.4932C1.75662 12.7426 1.33496 11.7247 1.33496 10.6632C1.33496 9.60174 1.75662 8.58376 2.50719 7.8332L8.63385 1.70653C9.13423 1.20616 9.81288 0.925049 10.5205 0.925049C11.2282 0.925049 11.9068 1.20616 12.4072 1.70653C12.9076 2.20691 13.1887 2.88556 13.1887 3.5932C13.1887 4.30084 12.9076 4.97949 12.4072 5.47987L6.27385 11.6065C6.02366 11.8567 5.68434 11.9973 5.33052 11.9973C4.9767 11.9973 4.63737 11.8567 4.38719 11.6065C4.137 11.3563 3.99644 11.017 3.99644 10.6632C3.99644 10.3094 4.137 9.97005 4.38719 9.71987L10.0472 4.06653" stroke="#07406B" stroke-width="1.33333" stroke-linecap="round" stroke-linejoin="round"/>
</svg>
