<svg width="32" height="32" viewBox="0 0 32 32" fill="none" xmlns="http://www.w3.org/2000/svg">
<path d="M24.0999 2.07178L29.6639 7.87178V29.9278H8.87891V29.9998H29.7349V7.94478L24.0999 2.07178Z" fill="#909090"/>
<path d="M24.0311 2H8.80811V29.928H29.6641V7.873L24.0311 2Z" fill="#F4F4F4"/>
<path d="M8.65489 3.5H2.26489V10.327H22.3649V3.5H8.65489Z" fill="#7A7B7C"/>
<path d="M22.472 10.2109H2.39502V3.37891H22.472V10.2109Z" fill="#DD2025"/>
<path d="M9.05212 4.53418H7.74512V9.33418H8.77312V7.71518L9.00012 7.72818C9.22069 7.72439 9.43919 7.68488 9.64712 7.61118C9.82942 7.54848 9.99713 7.44949 10.1401 7.32018C10.2856 7.197 10.4003 7.04154 10.4751 6.86618C10.5754 6.57468 10.6112 6.26488 10.5801 5.95818C10.5739 5.73909 10.5355 5.52211 10.4661 5.31418C10.403 5.16409 10.3093 5.02878 10.191 4.91688C10.0728 4.80497 9.93247 4.71891 9.77912 4.66418C9.64653 4.61618 9.50953 4.58135 9.37012 4.56018C9.26454 4.5439 9.15794 4.53521 9.05112 4.53418M8.86212 6.82818H8.77312V5.34818H8.96612C9.0513 5.34204 9.13677 5.35512 9.21622 5.38645C9.29566 5.41778 9.36706 5.46656 9.42512 5.52918C9.54544 5.6902 9.60971 5.88619 9.60812 6.08718C9.60812 6.33318 9.60812 6.55618 9.38612 6.71318C9.22618 6.80115 9.04414 6.84175 8.86212 6.82818ZM12.5331 4.52118C12.4221 4.52118 12.3141 4.52918 12.2381 4.53218L12.0001 4.53818H11.2201V9.33818H12.1381C12.4889 9.3478 12.8382 9.28834 13.1661 9.16318C13.43 9.05851 13.6637 8.88976 13.8461 8.67218C14.0235 8.45264 14.1508 8.19702 14.2191 7.92318C14.2977 7.61305 14.336 7.2941 14.3331 6.97418C14.3525 6.59634 14.3233 6.21757 14.2461 5.84718C14.1729 5.57455 14.0358 5.32328 13.8461 5.11418C13.6973 4.94535 13.5152 4.80915 13.3111 4.71418C13.1359 4.6331 12.9516 4.57334 12.7621 4.53618C12.6868 4.52374 12.6105 4.51805 12.5341 4.51918M12.3521 8.45618H12.2521V5.39218H12.2651C12.4713 5.36846 12.6799 5.40566 12.8651 5.49918C13.0008 5.60751 13.1113 5.74398 13.1891 5.89918C13.2731 6.06252 13.3215 6.24179 13.3311 6.42518C13.3401 6.64518 13.3311 6.82518 13.3311 6.97418C13.3352 7.14582 13.3241 7.31748 13.2981 7.48718C13.2673 7.66141 13.2103 7.82998 13.1291 7.98718C13.0372 8.13334 12.913 8.25649 12.7661 8.34718C12.6427 8.42698 12.4966 8.46421 12.3501 8.45318M17.4301 4.53818H15.0001V9.33818H16.0281V7.43418H17.3281V6.54218H16.0281V5.43018H17.4281V4.53818" fill="#464648"/>
<path d="M21.7809 20.255C21.7809 20.255 24.9689 19.677 24.9689 20.766C24.9689 21.855 22.9939 21.412 21.7809 20.255ZM19.4239 20.338C18.9174 20.4499 18.4238 20.6138 17.9509 20.827L18.3509 19.927C18.7509 19.027 19.1659 17.8 19.1659 17.8C19.6432 18.6033 20.1986 19.3577 20.8239 20.052C20.3524 20.1223 19.885 20.2185 19.4239 20.34V20.338ZM18.1619 13.838C18.1619 12.889 18.4689 12.63 18.7079 12.63C18.9469 12.63 19.2159 12.745 19.2249 13.569C19.1471 14.3976 18.9736 15.2143 18.7079 16.003C18.3441 15.3408 18.1557 14.5966 18.1609 13.841L18.1619 13.838ZM13.5129 24.354C12.5349 23.769 15.5639 21.968 16.1129 21.91C16.1099 21.911 14.5369 24.966 13.5129 24.354ZM25.8999 20.895C25.8899 20.795 25.7999 19.688 23.8299 19.735C23.0088 19.7218 22.1881 19.7797 21.3769 19.908C20.5912 19.1164 19.9146 18.2235 19.3649 17.253C19.7112 16.2524 19.9208 15.2097 19.9879 14.153C19.9589 12.953 19.6719 12.265 18.7519 12.275C17.8319 12.285 17.6979 13.09 17.8189 14.288C17.9375 15.0931 18.161 15.8791 18.4839 16.626C18.4839 16.626 18.0589 17.949 17.4969 19.265C16.9349 20.581 16.5509 21.271 16.5509 21.271C15.5737 21.5891 14.6537 22.0618 13.8259 22.671C13.0019 23.438 12.6669 24.027 13.1009 24.616C13.4749 25.124 14.7839 25.239 15.9539 23.706C16.5756 22.9142 17.1435 22.0817 17.6539 21.214C17.6539 21.214 19.4379 20.725 19.9929 20.591C20.5479 20.457 21.2189 20.351 21.2189 20.351C21.2189 20.351 22.8479 21.99 24.4189 21.932C25.9899 21.874 25.9139 20.993 25.9039 20.897" fill="#DD2025"/>
<path d="M23.9541 2.07715V7.95015H29.5871L23.9541 2.07715Z" fill="#909090"/>
<path d="M24.031 2V7.873H29.664L24.031 2Z" fill="#F4F4F4"/>
<path d="M8.97497 4.45704H7.66797V9.25704H8.69997V7.63904L8.92797 7.65204C9.14854 7.64824 9.36704 7.60873 9.57497 7.53504C9.75726 7.47231 9.92496 7.37332 10.068 7.24404C10.2124 7.12053 10.326 6.96509 10.4 6.79004C10.5003 6.49853 10.5361 6.18874 10.505 5.88204C10.4987 5.66294 10.4603 5.44596 10.391 5.23804C10.3278 5.08794 10.2342 4.95264 10.1159 4.84073C9.9976 4.72882 9.85732 4.64276 9.70397 4.58804C9.57077 4.53957 9.4331 4.5044 9.29297 4.48304C9.18739 4.46675 9.08079 4.45806 8.97397 4.45704M8.78497 6.75104H8.69597V5.27104H8.88997C8.97515 5.26489 9.06062 5.27797 9.14007 5.3093C9.21952 5.34063 9.29091 5.38941 9.34897 5.45204C9.46929 5.61305 9.53356 5.80904 9.53197 6.01004C9.53197 6.25604 9.53197 6.47904 9.30997 6.63604C9.15004 6.724 8.96799 6.76361 8.78597 6.75004M12.456 4.44404C12.345 4.44404 12.237 4.45204 12.161 4.45504L11.926 4.46104H11.146V9.26104H12.064C12.4148 9.27065 12.7641 9.21119 13.092 9.08604C13.3559 8.98136 13.5896 8.81262 13.772 8.59504C13.9493 8.37549 14.0766 8.11987 14.145 7.84604C14.2235 7.53591 14.2618 7.21695 14.259 6.89704C14.2784 6.51919 14.2491 6.14042 14.172 5.77004C14.0988 5.4974 13.9616 5.24613 13.772 5.03704C13.6232 4.8682 13.441 4.73201 13.237 4.63704C13.0617 4.55595 12.8774 4.49619 12.688 4.45904C12.6126 4.44659 12.5363 4.4409 12.46 4.44204M12.278 8.37904H12.178V5.31504H12.191C12.3971 5.29132 12.6057 5.32851 12.791 5.42204C12.9266 5.53036 13.0372 5.66684 13.115 5.82204C13.1989 5.98537 13.2473 6.16464 13.257 6.34804C13.266 6.56804 13.257 6.74804 13.257 6.89704C13.261 7.06867 13.25 7.24034 13.224 7.41004C13.1931 7.58427 13.1362 7.75284 13.055 7.91004C12.9631 8.05619 12.8389 8.17934 12.692 8.27004C12.5686 8.34983 12.4225 8.38706 12.276 8.37604M17.353 4.46104H14.923V9.26104H15.951V7.35704H17.251V6.46504H15.951V5.35304H17.351V4.46104" fill="white"/>
</svg>
