<svg width="42" height="42" viewBox="0 0 42 42" fill="none" xmlns="http://www.w3.org/2000/svg">
<g clip-path="url(#clip0_55549_38443)">
<path d="M31.5 14.4375C31.8555 14.4375 32.1631 14.5674 32.4229 14.8271C32.6826 15.0869 32.8125 15.3945 32.8125 15.75C32.8125 16.1055 32.6826 16.4131 32.4229 16.6729C32.1631 16.9326 31.8555 17.0625 31.5 17.0625C31.1445 17.0625 30.8369 16.9326 30.5771 16.6729C30.3174 16.4131 30.1875 16.1055 30.1875 15.75C30.1875 15.3945 30.3174 15.0869 30.5771 14.8271C30.8369 14.5674 31.1445 14.4375 31.5 14.4375ZM27.5625 18.375C27.918 18.375 28.2256 18.5049 28.4854 18.7646C28.7451 19.0244 28.875 19.332 28.875 19.6875C28.875 20.043 28.7451 20.3506 28.4854 20.6104C28.2256 20.8701 27.918 21 27.5625 21C27.207 21 26.8994 20.8701 26.6396 20.6104C26.3799 20.3506 26.25 20.043 26.25 19.6875C26.25 19.3184 26.373 19.0107 26.6191 18.7646C26.8652 18.5186 27.1797 18.3887 27.5625 18.375ZM23.625 14.4375C23.9805 14.4375 24.2881 14.5674 24.5479 14.8271C24.8076 15.0869 24.9375 15.3945 24.9375 15.75C24.9375 16.1055 24.8076 16.4131 24.5479 16.6729C24.2881 16.9326 23.9805 17.0625 23.625 17.0625C23.2695 17.0625 22.9619 16.9326 22.7021 16.6729C22.4424 16.4131 22.3125 16.1055 22.3125 15.75C22.3125 15.3945 22.4424 15.0869 22.7021 14.8271C22.9619 14.5674 23.2695 14.4375 23.625 14.4375ZM31.3975 0C32.8604 0 34.2344 0.273438 35.5195 0.820312C36.8047 1.36719 37.9326 2.12598 38.9033 3.09668C39.874 4.06738 40.626 5.18848 41.1592 6.45996C41.6924 7.73145 41.9727 9.1123 42 10.6025C42 12.0107 41.7334 13.3574 41.2002 14.6426C40.667 15.9277 39.9014 17.0762 38.9033 18.0879L18.0879 38.9033C17.0898 39.9014 15.9482 40.667 14.6631 41.2002C13.3779 41.7334 12.0244 42 10.6025 42C9.13965 42 7.76563 41.7266 6.48047 41.1797C5.19531 40.6328 4.06738 39.874 3.09668 38.9033C2.12598 37.9326 1.37402 36.8115 0.84082 35.54C0.307617 34.2686 0.0273438 32.8877 0 31.3975C0 29.9893 0.266602 28.6426 0.799805 27.3574C1.33301 26.0723 2.09863 24.9238 3.09668 23.9121L23.9121 3.09668C24.9102 2.09863 26.0518 1.33301 27.3369 0.799805C28.6221 0.266602 29.9756 0 31.3975 0ZM10.6025 39.375C11.6689 39.375 12.6807 39.1768 13.6377 38.7803C14.5947 38.3838 15.4561 37.8027 16.2217 37.0371L25.7373 27.5215L14.4785 16.2627L4.96289 25.7783C4.21094 26.5303 3.63672 27.3916 3.24023 28.3623C2.84375 29.333 2.63867 30.3516 2.625 31.418C2.625 32.5254 2.83008 33.5576 3.24023 34.5146C3.65039 35.4717 4.22461 36.3125 4.96289 37.0371C5.70117 37.7617 6.54199 38.3291 7.48535 38.7393C8.42871 39.1494 9.46777 39.3613 10.6025 39.375ZM37.0371 16.2217C37.7891 15.4697 38.3633 14.6152 38.7598 13.6582C39.1563 12.7012 39.3613 11.6826 39.375 10.6025C39.375 9.49512 39.1699 8.46289 38.7598 7.50586C38.3496 6.54883 37.7754 5.70117 37.0371 4.96289C36.2988 4.22461 35.458 3.65723 34.5146 3.26074C33.5713 2.86426 32.5322 2.65234 31.3975 2.625C30.3311 2.625 29.3193 2.82324 28.3623 3.21973C27.4053 3.61621 26.5439 4.19727 25.7783 4.96289L16.3242 14.3965L27.6035 25.6758L37.0371 16.2217Z" fill="#0072EF"/>
</g>
<defs>
<clipPath id="clip0_55549_38443">
<rect width="42" height="42" fill="white"/>
</clipPath>
</defs>
</svg>
