<svg width="49" height="49" viewBox="0 0 49 49" fill="none" xmlns="http://www.w3.org/2000/svg">
<path fill-rule="evenodd" clip-rule="evenodd" d="M14.0727 37.9756C16.521 40.1869 19.203 42.0126 22.2314 43.4522C23.8535 44.2233 25.7774 44.153 27.3325 43.2659C29.9554 41.7697 32.238 39.969 34.4451 37.9756C39.1235 33.75 41.8508 27.9344 42.03 21.8016L42.2389 14.6505C42.2632 13.8181 42.2401 11.9846 42.2401 11.9846C41.1932 11.8118 40.1347 11.6851 39.0777 11.5585C35.8081 11.167 32.5525 10.7773 29.6955 9.03108L27.6576 7.78554C25.9103 6.71765 23.6682 6.71764 21.921 7.78554L19.9695 8.97829C16.7034 10.9745 12.7222 11.3528 8.86872 11.719C7.99583 11.8019 7.1295 11.8842 6.27952 11.9846C6.27952 11.9846 6.25485 13.8291 6.27952 14.6733L6.48778 21.8016C6.66696 27.9344 9.39422 33.75 14.0727 37.9756ZM8.26877 13.7865C8.26953 14.1049 8.27239 14.4003 8.27866 14.6149L8.48693 21.7432C8.6497 27.3141 11.127 32.62 15.4132 36.4913C17.7248 38.5791 20.2458 40.2938 23.0901 41.6459C24.1236 42.1372 25.3568 42.0905 26.3415 41.5287C28.7967 40.1282 30.9609 38.4274 33.1045 36.4913C37.3908 32.62 39.868 27.3141 40.0308 21.7431L40.2397 14.5921C40.2463 14.3682 40.2492 14.054 40.2499 13.7174C39.7818 13.6571 39.3064 13.6002 38.8204 13.542L38.7659 13.5355C37.6907 13.4067 36.5635 13.2709 35.4438 13.0809C33.1998 12.7001 30.8521 12.0819 28.6525 10.7376L26.6146 9.49205C25.5076 8.81548 24.071 8.81548 22.964 9.49205L21.0125 10.6848C18.6939 12.1019 16.1326 12.7734 13.6659 13.1704C12.1361 13.4166 10.4884 13.574 8.94468 13.7216C8.71688 13.7433 8.49134 13.7649 8.26877 13.7865Z" fill="#007AFF"/>
<path fill-rule="evenodd" clip-rule="evenodd" d="M22.2488 33.984L22.2498 15.9845L26.2498 15.9847L26.2488 33.9842L22.2488 33.984Z" fill="#007AFF"/>
<path fill-rule="evenodd" clip-rule="evenodd" d="M33.2498 26.9844H15.2498V22.9844H33.2498V26.9844Z" fill="#007AFF"/>
</svg>
