<svg width="112" height="112" viewBox="0 0 112 112" fill="none" xmlns="http://www.w3.org/2000/svg">
<g clip-path="url(#clip0_55239_17838)">
<path d="M73.9878 3.1414C74.3429 3.25945 74.6981 3.3775 75.064 3.49913C85.5198 7.05365 94.8688 14.3444 101.335 23.2652C101.518 23.5163 101.518 23.5163 101.704 23.7726C106.185 30.0212 109.493 37.2703 110.936 44.8472C110.979 45.0721 111.022 45.297 111.066 45.5288C112.219 51.8575 112.341 58.6249 111.227 64.971C111.168 65.3167 111.168 65.3167 111.108 65.6694C109.266 76.3235 104.409 86.2893 96.9711 94.1359C96.6176 94.5473 96.2658 94.9604 95.9165 95.3754C89.0675 103.254 78.1667 108.462 68.1692 110.76C67.8662 110.83 67.8662 110.83 67.5571 110.901C63.6471 111.785 59.805 111.996 55.8048 111.999C55.6005 112 55.3963 112 55.1858 112C48.9894 111.991 42.8258 111.016 37.0399 108.718C36.8564 108.648 36.6729 108.577 36.4838 108.505C31.0944 106.423 26.2272 103.754 21.6208 100.261C21.3417 100.052 21.0627 99.844 20.7752 99.6294C15.307 95.3529 10.7879 89.9566 7.36528 83.9282C7.0902 83.4629 7.0902 83.4629 6.80956 82.9883C3.58824 77.2937 1.62862 71.1378 0.673933 64.6793C0.620609 64.3207 0.567285 63.9621 0.512345 63.5926C0.120232 60.8079 -0.0141572 58.0658 0.00116153 55.2554C0.00178853 55.046 0.00241552 54.8366 0.00306151 54.6208C0.0189667 51.2954 0.195911 48.0913 0.964861 44.8472C1.05156 44.473 1.05156 44.473 1.14001 44.0913C2.93902 36.5208 6.03891 29.5856 10.5655 23.2652C10.6845 23.0981 10.8035 22.9311 10.9262 22.7589C14.1971 18.2308 18.2554 14.2686 22.7845 11.0159C22.9498 10.8956 23.1151 10.7752 23.2855 10.6512C29.765 5.97927 37.3385 2.61622 45.1859 1.09986C45.3965 1.05709 45.6071 1.01433 45.824 0.970268C55.0312 -0.834585 65.184 -0.127355 73.9878 3.1414ZM23.6982 21.2373C23.1937 21.6987 22.6835 22.1305 22.1481 22.5543C21.0779 23.484 20.1909 24.5026 19.2933 25.5984C19.0709 25.8687 18.8485 26.139 18.6194 26.4175C10.2064 36.8817 7.29711 49.9165 8.64022 63.1505C9.47543 68.8651 11.622 74.2085 14.3476 79.2618C14.5118 79.5701 14.6761 79.8784 14.8453 80.196C19.2289 88.0771 26.1809 94.1964 34.0761 98.3648C34.3466 98.5084 34.617 98.6519 34.8957 98.7998C36.5632 99.6552 38.2309 100.312 40.0166 100.877C40.6945 101.095 41.3507 101.334 42.0119 101.597C50.0926 104.662 60.5605 104.481 68.7511 102.01C69.0013 101.937 69.2515 101.864 69.5092 101.788C76.9803 99.539 83.3798 95.5826 89.1161 90.3445C89.3332 90.1478 89.5503 89.9512 89.7741 89.7486C96.0699 83.7444 100.745 74.9184 102.499 66.4292C102.583 66.0587 102.583 66.0587 102.668 65.6807C105.193 54.0458 102.942 41.09 96.5711 31.0668C90.7156 22.1483 82.7418 15.5026 72.8241 11.5992C72.6256 11.5206 72.4271 11.4421 72.2226 11.3611C55.6685 4.96114 36.5486 9.35233 23.6982 21.2373Z" fill="#0072EF"/>
<path d="M57.405 26.7647C58.837 27.2939 59.9978 28.2018 60.6995 29.5901C61.1474 31.1266 61.143 32.7565 61.187 34.3476C61.3472 34.2536 61.5073 34.1596 61.6723 34.0628C63.0511 33.4562 64.7276 33.5214 66.1612 33.9443C67.5826 34.652 68.4494 35.8099 69.0421 37.2641C69.2116 38.5348 69.1805 39.7764 69.133 41.0555C69.1232 41.5614 69.1232 41.5614 69.1131 42.0774C69.0961 42.9038 69.0722 43.7293 69.0421 44.5553C69.2177 44.4615 69.3933 44.3677 69.5742 44.2711C70.8684 43.6583 72.3075 43.7687 73.6969 43.972C75.3637 44.7424 76.1878 45.7922 76.8971 47.4718C76.9796 48.2449 77.0197 48.9483 77.0147 49.7197C77.0167 49.9381 77.0187 50.1566 77.0207 50.3817C77.0261 51.1017 77.0249 51.8215 77.0233 52.5415C77.0246 53.0481 77.0262 53.5547 77.0279 54.0614C77.0305 55.1249 77.0298 56.1883 77.0269 57.2519C77.0236 58.5977 77.0294 59.9432 77.0379 61.289C77.0434 62.3375 77.0432 63.386 77.0415 64.4345C77.0415 64.9295 77.0432 65.4245 77.0469 65.9195C77.0853 71.9664 76.3504 78.8281 71.9514 83.3446C68.3699 86.6298 63.7177 87.2905 59.0233 87.2454C58.672 87.2488 58.3208 87.2522 57.959 87.2557C52.733 87.2389 48.3809 85.9518 44.6064 82.235C43.5355 81.1285 42.6154 79.9107 41.6739 78.694C39.0502 75.4025 35.9164 72.5223 32.9204 69.5765C32.6478 69.3078 32.3751 69.039 32.0942 68.7622C31.8246 68.5045 31.555 68.2469 31.2771 67.9814C30.6396 67.3039 30.6396 67.3039 30.3487 66.429C30.1747 66.3508 30.0006 66.2726 29.8214 66.192C28.8835 65.6816 28.3937 65.0782 28.0212 64.0958C27.7863 62.6566 27.6704 61.2528 28.3735 59.9364C29.2939 58.8194 30.1993 58.0912 31.6522 57.8527C33.8854 57.7751 35.0514 58.3093 36.7491 59.7211C37.0319 59.9534 37.3146 60.1857 37.606 60.4251C38.1896 60.908 38.7663 61.3968 39.3413 61.8902C40.0288 62.4734 40.7382 63.0194 41.4601 63.5592C41.668 63.7149 41.8759 63.8705 42.0901 64.0309C42.2477 64.1486 42.4053 64.2662 42.5676 64.3874C42.5628 63.8581 42.5628 63.8581 42.5579 63.3181C42.5283 59.9883 42.5065 56.6585 42.4923 53.3286C42.4847 51.6167 42.4744 49.905 42.4579 48.1932C42.4421 46.5405 42.4334 44.8878 42.4296 43.235C42.4269 42.6052 42.4217 41.9754 42.4138 41.3457C42.4032 40.4618 42.4018 39.5784 42.4025 38.6944C42.3973 38.4355 42.392 38.1767 42.3867 37.91C42.4015 36.0987 42.8519 34.8668 44.0223 33.4726C45.3326 32.3442 46.5686 32.1416 48.276 32.2069C49.2078 32.3404 49.9223 32.68 50.7136 33.181C50.6984 32.9272 50.6984 32.9272 50.6829 32.6683C50.6303 31.1441 50.6962 30.1018 51.5864 28.8063C53.4445 26.9694 54.7667 26.4542 57.405 26.7647ZM53.0411 30.2645C52.5816 31.1857 52.6978 32.1776 52.6904 33.1897C52.6875 33.4316 52.6846 33.6734 52.6817 33.9226C52.6725 34.7243 52.6653 35.5259 52.6581 36.3276C52.6521 36.8826 52.646 37.4375 52.6398 37.9925C52.6237 39.4549 52.6093 40.9172 52.5953 42.3796C52.5807 43.8712 52.5645 45.3628 52.5484 46.8543C52.5171 49.7822 52.4876 52.7101 52.4592 55.638C51.9792 55.638 51.4991 55.638 51.0046 55.638C51.0048 55.405 51.005 55.172 51.0053 54.932C51.0059 52.7308 50.9982 50.5298 50.9812 48.3286C50.9728 47.1971 50.9675 46.0657 50.9696 44.9342C50.9715 43.841 50.965 42.7482 50.9526 41.6551C50.9494 41.2392 50.9492 40.8233 50.9521 40.4074C51.0278 37.7243 51.0278 37.7243 49.8734 35.4047C49.3011 34.8471 48.9796 34.6432 48.2123 34.3783C47.9757 34.3862 47.739 34.3941 47.4952 34.4023C47.2578 34.4004 47.0205 34.3985 46.7759 34.3966C45.711 34.7569 45.1327 35.4256 44.6041 36.3891C44.3936 37.402 44.4031 38.3938 44.4123 39.4257C44.4077 39.8783 44.4077 39.8783 44.4031 40.3402C44.3947 41.3344 44.3965 42.3284 44.3984 43.3226C44.3946 44.0132 44.3902 44.7039 44.3851 45.3945C44.3735 47.2097 44.3706 49.0249 44.3694 50.8402C44.3667 52.6935 44.3558 54.5468 44.3456 56.4001C44.3268 60.0347 44.3171 63.6693 44.3132 67.3039C42.6678 67.1147 41.8976 66.8566 40.6584 65.7363C40.3582 65.4718 40.0574 65.2079 39.7561 64.9445C39.5996 64.8062 39.4431 64.6679 39.2819 64.5254C38.4174 63.7771 37.5202 63.071 36.6218 62.3641C36.4534 62.23 36.285 62.0958 36.1115 61.9575C34.4088 60.574 34.4088 60.574 32.3852 59.8669C31.1829 60.0677 30.7748 60.4983 30.0577 61.4709C29.7663 62.3073 29.7663 62.3073 30.0577 63.2208C31.7366 65.595 34.1091 67.5962 36.1672 69.6371C40.615 74.0476 40.615 74.0476 42.2767 76.0534C42.4182 76.2212 42.5597 76.389 42.7054 76.5619C43.2431 77.2002 43.7778 77.8408 44.3109 78.4829C45.1405 79.4734 46.0053 80.4006 46.9316 81.3031C47.0883 81.4595 47.2451 81.6159 47.4066 81.777C50.5402 84.6716 54.0262 84.8776 58.0596 84.905C58.5762 84.9098 59.0927 84.9177 59.6092 84.9289C63.7524 85.0182 67.2079 84.6768 70.5161 81.8716C74.5153 77.83 74.7099 72.093 74.7163 66.748C74.7191 66.1945 74.7221 65.6411 74.7251 65.0877C74.7303 63.9356 74.732 62.7836 74.7315 61.6316C74.7314 60.1562 74.7434 58.6812 74.7583 57.2059C74.768 56.0665 74.7698 54.9272 74.7693 53.7877C74.7704 53.2435 74.7742 52.6993 74.781 52.1551C74.7895 51.3964 74.787 50.6384 74.7817 49.8796C74.7866 49.6563 74.7915 49.4329 74.7966 49.2028C74.7818 48.3622 74.7332 47.6801 74.2034 47.005C73.4013 46.2952 72.8491 46.0175 71.7877 45.8495C70.6353 46.0385 70.1511 46.36 69.333 47.1801C68.9048 48.0388 68.9728 48.9192 68.95 49.8619C68.944 50.0683 68.9379 50.2746 68.9317 50.4872C68.9127 51.1468 68.8955 51.8066 68.8784 52.4663C68.8659 52.9133 68.8532 53.3602 68.8404 53.8072C68.8092 54.9035 68.7797 55.9998 68.7512 57.0962C68.2711 57.0962 67.7911 57.0962 67.2965 57.0962C67.2961 56.8589 67.2957 56.6217 67.2953 56.3772C67.2901 54.1373 67.2779 51.8975 67.2581 49.6577C67.2481 48.5062 67.2408 47.3549 67.2396 46.2034C67.2384 45.0913 67.2301 43.9796 67.217 42.8676C67.2132 42.4442 67.2119 42.0207 67.2133 41.5972C67.3183 39.003 67.3183 39.003 66.3018 36.7168C65.4272 35.9954 65.1491 35.8267 64.0236 35.6965C62.5856 35.8406 62.1941 36.2545 61.187 37.2641C60.7991 38.0418 60.8491 38.6491 60.8364 39.5199C60.8306 39.8702 60.8248 40.2205 60.8188 40.5814C60.8139 40.9612 60.8091 41.341 60.8041 41.7322C60.7981 42.1237 60.792 42.5152 60.7857 42.9067C60.7697 43.9376 60.7553 44.9684 60.7413 45.9993C60.7267 47.051 60.7105 48.1027 60.6944 49.1545C60.6631 51.2184 60.6336 53.2823 60.6052 55.3463C60.0415 55.5104 60.0415 55.5104 59.4415 55.638C58.931 55.1262 59.1127 54.4535 59.1088 53.7715C59.109 53.5458 59.1091 53.32 59.1093 53.0875C59.1083 52.8508 59.1073 52.6142 59.1062 52.3703C59.1041 51.8546 59.1025 51.3388 59.1015 50.823C59.0994 50.0067 59.0948 49.1903 59.0894 48.374C59.0742 46.0522 59.0602 43.7305 59.0557 41.4087C59.0528 39.99 59.0443 38.5715 59.0321 37.1529C59.0285 36.612 59.027 36.071 59.0276 35.5301C59.0283 34.7725 59.0219 34.0152 59.0138 33.2576C59.0157 33.0342 59.0177 32.8108 59.0196 32.5807C58.9945 31.141 58.7162 30.4033 57.6959 29.3896C55.8457 28.0912 54.4697 28.8656 53.0411 30.2645Z" fill="#0072EF"/>
<path d="M48.3865 63.8042C52.1897 63.8314 55.1278 65.1047 57.9144 67.6685C59.2524 69.0818 60.3974 70.8831 60.4055 72.8818C60.3605 73.2968 60.3605 73.2968 60.3146 73.7203C59.5945 73.8646 59.5945 73.8646 58.86 74.0119C58.7156 73.7164 58.5712 73.4209 58.4224 73.1165C56.7564 69.7886 55.4251 68.1103 51.8822 66.7093C50.7082 66.3343 49.6116 66.2364 48.3865 66.1374C48.1945 65.9449 48.0025 65.7524 47.8047 65.5541C47.9663 64.2255 47.9663 64.2255 48.3865 63.8042Z" fill="#0072EF"/>
</g>
<defs>
<clipPath id="clip0_55239_17838">
<rect width="112" height="112" fill="white"/>
</clipPath>
</defs>
</svg>
