<svg width="34" height="34" viewBox="0 0 34 34" fill="currentColor" xmlns="http://www.w3.org/2000/svg">
<g clip-path="url(#clip0_55195_19598)">
<path d="M22.4606 0.95364C22.5684 0.989476 22.6762 1.02531 22.7873 1.06223C25.9614 2.14129 28.7994 4.35455 30.7624 7.06265C30.8179 7.13889 30.8179 7.13889 30.8744 7.21668C32.2348 9.11357 33.239 11.3142 33.6769 13.6143C33.69 13.6826 33.7031 13.7509 33.7165 13.8212C34.0666 15.7425 34.1035 17.7969 33.7652 19.7233C33.7474 19.8283 33.7474 19.8283 33.7293 19.9353C33.1699 23.1696 31.6955 26.195 29.4377 28.577C29.3303 28.7019 29.2236 28.8273 29.1175 28.9533C27.0384 31.345 23.7292 32.9259 20.6942 33.6235C20.6023 33.6448 20.6023 33.6448 20.5084 33.6664C19.3214 33.9348 18.1551 33.9988 16.9407 33.9998C16.8787 33.9999 16.8167 33.9999 16.7528 34C14.8718 33.9971 13.0007 33.7013 11.2443 33.0038C11.1886 32.9824 11.1328 32.961 11.0754 32.9389C9.43938 32.3071 7.96182 31.4967 6.56344 30.4362C6.47874 30.373 6.39404 30.3098 6.30677 30.2446C4.64676 28.9464 3.27491 27.3083 2.23589 25.4782C2.15238 25.337 2.15238 25.337 2.06719 25.1929C1.08929 23.4642 0.494403 21.5954 0.204587 19.6348C0.188399 19.5259 0.172212 19.4171 0.155533 19.3049C0.0364989 18.4595 -0.00429773 17.6271 0.000352608 16.774C0.000542946 16.7104 0.000733283 16.6468 0.000929388 16.5813C0.00575776 15.5718 0.0594731 14.5991 0.292904 13.6143C0.319224 13.5007 0.319224 13.5007 0.346076 13.3849C0.892203 11.0867 1.83324 8.98135 3.20738 7.06265C3.24351 7.01193 3.27964 6.96121 3.31687 6.90896C4.30982 5.53434 5.54182 4.33153 6.91671 3.34412C6.9669 3.30758 7.0171 3.27105 7.06881 3.23341C9.03581 1.81514 11.3349 0.79421 13.7172 0.333885C13.7811 0.320903 13.845 0.307921 13.9109 0.294546C16.7059 -0.253356 19.788 -0.0386614 22.4606 0.95364ZM7.19408 6.44704C7.04094 6.58712 6.88607 6.71819 6.72352 6.84684C6.39866 7.12908 6.12938 7.43828 5.8569 7.77094C5.78939 7.85299 5.72188 7.93505 5.65232 8.0196C3.09837 11.1962 2.21519 15.1532 2.62292 19.1707C2.87647 20.9055 3.52809 22.5276 4.35551 24.0616C4.40537 24.1552 4.45524 24.2488 4.50661 24.3452C5.83734 26.7377 7.94776 28.5953 10.3445 29.8607C10.4266 29.9043 10.5087 29.9479 10.5933 29.9928C11.0995 30.2525 11.6058 30.4518 12.1479 30.6234C12.3537 30.6894 12.5529 30.7621 12.7536 30.8419C15.2067 31.7725 18.3844 31.7175 20.8709 30.9675C20.9468 30.9452 21.0228 30.9229 21.101 30.8999C23.369 30.2172 25.3117 29.0161 27.0531 27.426C27.119 27.3663 27.1849 27.3066 27.2528 27.2451C29.1641 25.4224 30.5834 22.7431 31.1157 20.166C31.1411 20.0535 31.1411 20.0535 31.1671 19.9388C31.9335 16.4068 31.2502 12.4737 29.3162 9.43099C27.5387 6.72359 25.118 4.70614 22.1073 3.52119C22.0471 3.49734 21.9868 3.47349 21.9247 3.44891C16.8994 1.50606 11.0951 2.8391 7.19408 6.44704Z" fill="#239CE1"/>
<path d="M17.4263 8.12527C17.861 8.28591 18.2134 8.56152 18.4264 8.98297C18.5624 9.44943 18.5611 9.94421 18.5744 10.4272C18.623 10.3987 18.6717 10.3702 18.7217 10.3408C19.1403 10.1566 19.6493 10.1764 20.0844 10.3048C20.5159 10.5196 20.7791 10.8711 20.959 11.3126C21.0105 11.6983 21.001 12.0753 20.9866 12.4636C20.9836 12.6171 20.9836 12.6171 20.9806 12.7738C20.9754 13.0246 20.9682 13.2752 20.959 13.526C21.0123 13.4975 21.0656 13.469 21.1205 13.4397C21.5134 13.2537 21.9503 13.2872 22.3721 13.3489C22.8781 13.5828 23.1282 13.9015 23.3436 14.4113C23.3686 14.646 23.3808 14.8596 23.3793 15.0937C23.3799 15.1601 23.3805 15.2264 23.3811 15.2947C23.3827 15.5133 23.3824 15.7318 23.3819 15.9504C23.3823 16.1042 23.3827 16.258 23.3833 16.4118C23.3841 16.7346 23.3838 17.0574 23.383 17.3803C23.382 17.7888 23.3837 18.1973 23.3863 18.6059C23.388 18.9242 23.3879 19.2424 23.3874 19.5608C23.3874 19.711 23.3879 19.8613 23.389 20.0115C23.4007 21.8472 23.1776 23.9302 21.8422 25.3013C20.755 26.2986 19.3427 26.4992 17.9176 26.4855C17.8109 26.4865 17.7043 26.4875 17.5945 26.4886C16.008 26.4835 14.6869 26.0928 13.541 24.9645C13.2159 24.6286 12.9366 24.2589 12.6508 23.8895C11.8543 22.8903 10.903 22.016 9.99349 21.1217C9.91072 21.0401 9.82796 20.9586 9.74268 20.8745C9.66083 20.7963 9.57897 20.7181 9.49464 20.6375C9.3011 20.4318 9.3011 20.4318 9.21278 20.1662C9.15995 20.1425 9.10713 20.1187 9.0527 20.0943C8.76801 19.9393 8.6193 19.7561 8.50624 19.4579C8.43491 19.021 8.39975 18.5949 8.61319 18.1952C8.89257 17.8562 9.16743 17.6351 9.60848 17.5627C10.2864 17.5392 10.6404 17.7013 11.1558 18.1299C11.2416 18.2004 11.3274 18.2709 11.4159 18.3436C11.5931 18.4902 11.7681 18.6386 11.9427 18.7884C12.1514 18.9654 12.3668 19.1311 12.5859 19.295C12.649 19.3423 12.7121 19.3895 12.7771 19.4382C12.825 19.4739 12.8728 19.5097 12.9221 19.5465C12.9206 19.3858 12.9206 19.3858 12.9191 19.2218C12.9102 18.211 12.9036 17.2002 12.8992 16.1893C12.8969 15.6696 12.8938 15.15 12.8888 14.6304C12.884 14.1286 12.8814 13.6269 12.8802 13.1252C12.8794 12.934 12.8778 12.7428 12.8754 12.5516C12.8722 12.2833 12.8718 12.0151 12.872 11.7468C12.8704 11.6682 12.8688 11.5896 12.8672 11.5086C12.8717 10.9588 13.0084 10.5848 13.3637 10.1616C13.7615 9.81904 14.1367 9.75754 14.655 9.77737C14.9379 9.81788 15.1548 9.92097 15.395 10.0731C15.3904 9.99603 15.3904 9.99603 15.3857 9.91744C15.3697 9.45474 15.3897 9.1383 15.66 8.74503C16.224 8.18742 16.6254 8.031 17.4263 8.12527ZM16.1015 9.18771C15.9621 9.46736 15.9973 9.76846 15.9951 10.0757C15.9942 10.1491 15.9933 10.2226 15.9924 10.2982C15.9896 10.5416 15.9875 10.7849 15.9853 11.0283C15.9835 11.1968 15.9816 11.3652 15.9797 11.5337C15.9748 11.9776 15.9705 12.4216 15.9662 12.8655C15.9618 13.3183 15.9569 13.7711 15.952 14.2239C15.9425 15.1127 15.9335 16.0015 15.9249 16.8904C15.7792 16.8904 15.6335 16.8904 15.4833 16.8904C15.4834 16.8196 15.4835 16.7489 15.4835 16.6761C15.4837 16.0078 15.4814 15.3397 15.4762 14.6715C15.4737 14.328 15.4721 13.9845 15.4727 13.641C15.4733 13.3092 15.4713 12.9774 15.4675 12.6456C15.4666 12.5193 15.4665 12.3931 15.4674 12.2668C15.4904 11.4523 15.4904 11.4523 15.1399 10.7481C14.9662 10.5788 14.8686 10.517 14.6357 10.4366C14.5638 10.439 14.492 10.4413 14.418 10.4438C14.3459 10.4432 14.2739 10.4427 14.1996 10.4421C13.8763 10.5515 13.7008 10.7545 13.5403 11.047C13.4764 11.3545 13.4793 11.6555 13.4821 11.9688C13.4807 12.1062 13.4807 12.1062 13.4793 12.2464C13.4768 12.5482 13.4773 12.8499 13.4779 13.1518C13.4767 13.3614 13.4754 13.5711 13.4738 13.7807C13.4703 14.3318 13.4694 14.8828 13.4691 15.4339C13.4682 15.9965 13.4649 16.5591 13.4618 17.1217C13.4561 18.2251 13.4532 19.3284 13.452 20.4318C12.9525 20.3744 12.7187 20.296 12.3425 19.9559C12.2514 19.8756 12.1601 19.7955 12.0686 19.7156C12.0211 19.6736 11.9736 19.6316 11.9247 19.5883C11.6622 19.3612 11.3899 19.1468 11.1171 18.9322C11.066 18.8915 11.0149 18.8508 10.9622 18.8088C10.4453 18.3888 10.4453 18.3888 9.831 18.1741C9.46604 18.2351 9.34215 18.3658 9.12446 18.6611C9.03599 18.915 9.03599 18.915 9.12446 19.1923C9.6341 19.913 10.3543 20.5205 10.9791 21.1401C12.3293 22.479 12.3293 22.479 12.8338 23.0879C12.8767 23.1389 12.9197 23.1898 12.9639 23.2423C13.1272 23.436 13.2895 23.6305 13.4513 23.8254C13.7032 24.1261 13.9657 24.4076 14.2469 24.6816C14.2945 24.729 14.342 24.7765 14.3911 24.8254C15.3423 25.7042 16.4006 25.7667 17.625 25.775C17.7818 25.7765 17.9386 25.7789 18.0954 25.7823C19.3532 25.8094 20.4022 25.7057 21.4064 24.8541C22.6205 23.6272 22.6796 21.8856 22.6815 20.263C22.6824 20.095 22.6833 19.927 22.6842 19.759C22.6858 19.4093 22.6863 19.0596 22.6861 18.7099C22.6861 18.262 22.6897 17.8142 22.6943 17.3663C22.6972 17.0205 22.6978 16.6746 22.6976 16.3287C22.6979 16.1635 22.6991 15.9983 22.7012 15.8331C22.7037 15.6027 22.703 15.3726 22.7014 15.1423C22.7029 15.0745 22.7044 15.0067 22.7059 14.9368C22.7014 14.6816 22.6867 14.4746 22.5258 14.2697C22.2823 14.0542 22.1147 13.9699 21.7925 13.9189C21.4426 13.9763 21.2957 14.0738 21.0473 14.3228C20.9173 14.5835 20.938 14.8507 20.9311 15.1369C20.9292 15.1996 20.9274 15.2622 20.9255 15.3267C20.9197 15.527 20.9145 15.7273 20.9093 15.9275C20.9055 16.0632 20.9017 16.1989 20.8978 16.3346C20.8883 16.6674 20.8794 17.0002 20.8707 17.333C20.725 17.333 20.5792 17.333 20.4291 17.333C20.429 17.261 20.4288 17.189 20.4287 17.1148C20.4271 16.4348 20.4235 15.7549 20.4174 15.0749C20.4144 14.7254 20.4122 14.3759 20.4118 14.0263C20.4114 13.6887 20.4089 13.3512 20.4049 13.0137C20.4038 12.8851 20.4034 12.7565 20.4038 12.628C20.4357 11.8405 20.4357 11.8405 20.1271 11.1464C19.8616 10.9274 19.7772 10.8762 19.4355 10.8367C18.999 10.8805 18.8802 11.0061 18.5744 11.3126C18.4567 11.5487 18.4718 11.733 18.468 11.9974C18.4662 12.1037 18.4645 12.2101 18.4626 12.3196C18.4612 12.4349 18.4597 12.5502 18.4582 12.669C18.4563 12.7878 18.4545 12.9067 18.4526 13.0255C18.4477 13.3385 18.4434 13.6514 18.4391 13.9643C18.4347 14.2836 18.4298 14.6029 18.4249 14.9222C18.4154 15.5487 18.4064 16.1753 18.3978 16.8018C18.2267 16.8516 18.2267 16.8516 18.0445 16.8904C17.8895 16.735 17.9447 16.5308 17.9435 16.3238C17.9436 16.2552 17.9436 16.1867 17.9437 16.1161C17.9434 16.0443 17.9431 15.9724 17.9427 15.8984C17.9421 15.7418 17.9416 15.5853 17.9413 15.4287C17.9407 15.1809 17.9393 14.9331 17.9377 14.6852C17.933 13.9804 17.9288 13.2756 17.9274 12.5708C17.9265 12.1401 17.9239 11.7095 17.9202 11.2788C17.9192 11.1146 17.9187 10.9504 17.9189 10.7862C17.9191 10.5562 17.9171 10.3263 17.9147 10.0963C17.9153 10.0285 17.9159 9.96071 17.9165 9.89084C17.9088 9.4538 17.8243 9.22984 17.5146 8.9221C16.9529 8.52795 16.5352 8.76303 16.1015 9.18771Z" fill="#239CE1"/>
<path d="M14.6884 19.3691C15.8429 19.3774 16.7348 19.7639 17.5807 20.5422C17.9869 20.9713 18.3345 21.5181 18.337 22.1248C18.3233 22.2508 18.3233 22.2508 18.3094 22.3794C18.0908 22.4232 18.0908 22.4232 17.8678 22.4679C17.824 22.3782 17.7801 22.2885 17.735 22.1961C17.2292 21.1858 16.8251 20.6764 15.7495 20.251C15.3931 20.1372 15.0602 20.1075 14.6884 20.0774C14.6301 20.019 14.5718 19.9606 14.5117 19.9004C14.5608 19.497 14.5608 19.497 14.6884 19.3691Z" fill="#239CE1"/>
</g>
<defs>
<clipPath id="clip0_55195_19598">
<rect width="34" height="34" fill="white"/>
</clipPath>
</defs>
</svg>
