<svg width="107" height="107" viewBox="0 0 107 107" fill="none" xmlns="http://www.w3.org/2000/svg">
<g clip-path="url(#clip0_55239_17830)">
<path d="M70.6848 3.00116C71.0241 3.11394 71.3634 3.22672 71.7129 3.34292C81.702 6.73875 90.6335 13.704 96.8111 22.2266C96.9856 22.4665 96.9856 22.4665 97.1636 22.7113C101.445 28.6809 104.605 35.6065 105.983 42.8451C106.024 43.06 106.065 43.2748 106.108 43.4962C107.21 49.5425 107.326 56.0078 106.261 62.0705C106.205 62.4008 106.205 62.4008 106.148 62.7377C104.388 72.9162 99.7477 82.4371 92.642 89.9334C92.3043 90.3265 91.9683 90.7211 91.6345 91.1176C85.0913 98.6446 74.6771 103.62 65.126 105.815C64.8365 105.882 64.8365 105.882 64.5412 105.95C60.8057 106.795 57.1351 106.996 53.3135 106.999C53.1184 107 52.9232 107 52.7222 107C46.8024 106.991 40.9139 106.06 35.3864 103.865C35.211 103.797 35.0357 103.73 34.855 103.661C29.7063 101.672 25.0563 99.122 20.6555 95.7846C20.389 95.5856 20.1224 95.3867 19.8478 95.1816C14.6236 91.0961 10.3063 85.9407 7.03647 80.1814C6.77367 79.7369 6.77367 79.7369 6.50556 79.2835C3.42805 73.8431 1.55591 67.9621 0.643846 61.7919C0.592903 61.4492 0.54196 61.1066 0.489473 60.7536C0.114864 58.0933 -0.0135252 55.4736 0.00110968 52.7887C0.00170868 52.5886 0.00230768 52.3885 0.00292484 52.1824C0.01812 49.0054 0.187165 45.9444 0.921786 42.8451C1.00462 42.4876 1.00462 42.4876 1.08912 42.123C2.80782 34.8904 5.76931 28.2648 10.0938 22.2266C10.2075 22.067 10.3212 21.9073 10.4384 21.7429C13.5633 17.4169 17.4404 13.6316 21.7673 10.5241C21.9253 10.4092 22.0832 10.2942 22.246 10.1757C28.4362 5.71234 35.6716 2.49943 43.1687 1.05076C43.3699 1.0099 43.571 0.969046 43.7783 0.926952C52.5744 -0.797327 62.274 -0.12167 70.6848 3.00116ZM22.6402 20.2892C22.1582 20.7301 21.6709 21.1425 21.1593 21.5474C20.137 22.4356 19.2895 23.4087 18.432 24.4556C18.2196 24.7138 18.0071 24.9721 17.7882 25.2381C9.75076 35.2352 6.97135 47.6881 8.25449 60.3312C9.05242 65.7907 11.1031 70.8956 13.707 75.7233C13.864 76.0178 14.0209 76.3124 14.1826 76.6158C18.3705 84.1451 25.0121 89.9912 32.5548 93.9735C32.8132 94.1107 33.0716 94.2478 33.3378 94.3891C34.9309 95.2063 36.5242 95.8335 38.2301 96.3736C38.8778 96.5814 39.5047 96.8101 40.1363 97.0613C47.8563 99.99 57.8569 99.817 65.6818 97.4564C65.9209 97.3863 66.1599 97.3161 66.4061 97.2439C73.5437 95.0953 79.6575 91.3155 85.1377 86.3112C85.3451 86.1234 85.5525 85.9355 85.7663 85.742C91.7811 80.0058 96.2478 71.5738 97.9229 63.4636C98.003 63.1097 98.003 63.1097 98.0847 62.7486C100.497 51.633 98.3463 39.2556 92.2599 29.6799C86.6657 21.1595 79.0479 14.8105 69.573 11.0814C69.3834 11.0063 69.1938 10.9313 68.9984 10.8539C53.1833 4.73966 34.917 8.93482 22.6402 20.2892Z" fill="#868686"/>
<path d="M54.8429 25.57C56.211 26.0755 57.32 26.9429 57.9904 28.2692C58.4183 29.7372 58.4141 31.2943 58.4561 32.8144C58.6091 32.7246 58.7621 32.6348 58.9197 32.5423C60.237 31.9627 61.8387 32.0251 63.2083 32.4291C64.5661 33.1052 65.3943 34.2114 65.9605 35.6007C66.1225 36.8147 66.0928 38.0009 66.0474 39.2228C66.038 39.7061 66.038 39.7061 66.0284 40.1991C66.0121 40.9886 65.9893 41.7773 65.9605 42.5664C66.1283 42.4768 66.2961 42.3872 66.4689 42.2948C67.7053 41.7094 69.0801 41.8149 70.4076 42.0091C71.9999 42.7451 72.7872 43.7481 73.4649 45.3527C73.5437 46.0912 73.582 46.7632 73.5772 47.5002C73.5791 47.7089 73.581 47.9176 73.583 48.1326C73.5881 48.8205 73.587 49.5082 73.5854 50.196C73.5867 50.68 73.5882 51.1641 73.5898 51.6481C73.5923 52.6641 73.5916 53.6801 73.5889 54.6961C73.5857 55.9818 73.5913 57.2673 73.5994 58.553C73.6046 59.5548 73.6044 60.5564 73.6029 61.5582C73.6028 62.0311 73.6044 62.5039 73.6079 62.9768C73.6446 68.7538 72.9426 75.3092 68.7399 79.624C65.3184 82.7626 60.8739 83.3938 56.389 83.3507C56.0534 83.3539 55.7179 83.3572 55.3722 83.3605C50.3795 83.3444 46.2217 82.1148 42.6157 78.5639C41.5926 77.5068 40.7135 76.3434 39.8141 75.181C37.3076 72.0365 34.3137 69.2849 31.4514 66.4706C31.191 66.2138 30.9305 65.9571 30.6621 65.6926C30.4045 65.4464 30.1469 65.2003 29.8815 64.9467C29.2724 64.2994 29.2724 64.2994 28.9945 63.4636C28.8282 63.3888 28.662 63.3141 28.4907 63.2372C27.5948 62.7496 27.1268 62.1731 26.771 61.2345C26.5465 59.8596 26.4358 58.5185 27.1075 57.2608C27.9868 56.1937 28.8518 55.498 30.2398 55.2701C32.3734 55.1961 33.4873 55.7064 35.1092 57.0551C35.3793 57.2771 35.6495 57.499 35.9278 57.7277C36.4854 58.1891 37.0363 58.656 37.5857 59.1274C38.2425 59.6846 38.9202 60.2062 39.6099 60.7219C39.8085 60.8706 40.0071 61.0193 40.2118 61.1726C40.3623 61.285 40.5129 61.3973 40.668 61.5132C40.6633 61.0074 40.6633 61.0074 40.6586 60.4915C40.6304 57.3104 40.6096 54.1293 40.596 50.948C40.5887 49.3126 40.5789 47.6773 40.5631 46.0419C40.548 44.4629 40.5397 42.884 40.5361 41.305C40.5336 40.7033 40.5285 40.1017 40.521 39.5001C40.5109 38.6557 40.5096 37.8116 40.5102 36.9671C40.5052 36.7198 40.5002 36.4725 40.4951 36.2177C40.5093 34.4873 40.9396 33.3105 42.0577 31.9785C43.3095 30.9004 44.4903 30.7069 46.1215 30.7693C47.0116 30.8968 47.6943 31.2212 48.4503 31.6999C48.4358 31.4574 48.4358 31.4574 48.421 31.2101C48.3706 29.7539 48.4336 28.7581 49.2841 27.5204C51.0592 25.7656 52.3224 25.2734 54.8429 25.57ZM50.6738 28.9136C50.2349 29.7936 50.3459 30.7412 50.3388 31.7082C50.3361 31.9392 50.3333 32.1703 50.3305 32.4084C50.3217 33.1743 50.3148 33.9401 50.3079 34.706C50.3022 35.2362 50.2964 35.7664 50.2904 36.2966C50.2751 37.6937 50.2613 39.0907 50.2479 40.4878C50.234 41.9128 50.2185 43.3378 50.2032 44.7628C50.1732 47.5599 50.1451 50.3571 50.1179 53.1543C49.6593 53.1543 49.2007 53.1543 48.7282 53.1543C48.7285 52.9317 48.7287 52.7092 48.7289 52.4799C48.7295 50.3769 48.7221 48.2742 48.7059 46.1712C48.6979 45.0902 48.6928 44.0094 48.6948 42.9283C48.6967 41.884 48.6904 40.84 48.6786 39.7957C48.6755 39.3984 48.6753 39.001 48.6781 38.6037C48.7505 36.0404 48.7505 36.0404 47.6476 33.8243C47.1008 33.2915 46.7937 33.0968 46.0607 32.8438C45.8346 32.8513 45.6085 32.8588 45.3756 32.8666C45.1488 32.8648 44.922 32.863 44.6883 32.8612C43.6709 33.2054 43.1186 33.8443 42.6135 34.7648C42.4124 35.7325 42.4215 36.6799 42.4303 37.6658C42.4259 38.0982 42.4259 38.0982 42.4214 38.5394C42.4135 39.4893 42.4152 40.4389 42.417 41.3887C42.4134 42.0485 42.4091 42.7083 42.4043 43.3681C42.3932 45.1023 42.3904 46.8365 42.3893 48.5707C42.3867 50.3413 42.3763 52.1119 42.3665 53.8824C42.3486 57.3548 42.3394 60.8271 42.3356 64.2994C40.7637 64.1187 40.0278 63.8721 38.844 62.8018C38.5571 62.5491 38.2697 62.297 37.9819 62.0454C37.8324 61.9132 37.6829 61.7811 37.5289 61.645C36.703 60.93 35.8459 60.2554 34.9876 59.5802C34.8267 59.452 34.6658 59.3238 34.5 59.1917C32.8733 57.87 32.8733 57.87 30.9401 57.1944C29.7915 57.3863 29.4016 57.7977 28.7165 58.7269C28.4381 59.5259 28.4381 59.5259 28.7165 60.3986C30.3204 62.6668 32.587 64.5787 34.5533 66.5285C38.8025 70.742 38.8025 70.742 40.39 72.6583C40.5252 72.8186 40.6604 72.979 40.7996 73.1441C41.3133 73.7539 41.8241 74.3659 42.3334 74.9793C43.1259 75.9256 43.9521 76.8115 44.8371 77.6736C44.9868 77.823 45.1366 77.9725 45.2909 78.1264C48.2846 80.8918 51.615 81.0886 55.4683 81.1147C55.9618 81.1193 56.4553 81.1269 56.9487 81.1376C60.907 81.2229 64.2082 80.8967 67.3687 78.2167C71.1894 74.3556 71.3753 68.8747 71.3814 63.7683C71.3841 63.2396 71.3869 62.7109 71.3898 62.1821C71.3948 61.0815 71.3964 59.981 71.3959 58.8803C71.3958 57.4708 71.4073 56.0617 71.4215 54.6522C71.4308 53.5637 71.4325 52.4752 71.4321 51.3866C71.4331 50.8667 71.4367 50.3468 71.4432 49.8269C71.4514 49.102 71.449 48.3779 71.4439 47.653C71.4486 47.4396 71.4533 47.2263 71.4581 47.0064C71.444 46.2033 71.3975 45.5516 70.8914 44.9068C70.1251 44.2286 69.5976 43.9633 68.5836 43.8028C67.4826 43.9834 67.02 44.2905 66.2385 45.074C65.8293 45.8944 65.8943 46.7355 65.8726 47.6361C65.8668 47.8332 65.861 48.0304 65.8551 48.2334C65.8369 48.8637 65.8205 49.4939 65.8042 50.1242C65.7922 50.5512 65.7801 50.9782 65.7678 51.4052C65.738 52.4526 65.7099 53.5 65.6826 54.5474C65.224 54.5474 64.7654 54.5474 64.2929 54.5474C64.2925 54.3208 64.2921 54.0941 64.2917 53.8605C64.2867 51.7206 64.2751 49.5808 64.2562 47.441C64.2466 46.3409 64.2397 45.241 64.2385 44.1409C64.2373 43.0785 64.2294 42.0163 64.2169 40.954C64.2133 40.5495 64.2121 40.1449 64.2133 39.7403C64.3137 37.262 64.3137 37.262 63.3425 35.0778C62.507 34.3886 62.2413 34.2274 61.1661 34.103C59.7923 34.2407 59.4183 34.6361 58.4561 35.6007C58.0856 36.3437 58.1333 36.9238 58.1211 37.7558C58.1156 38.0905 58.11 38.4251 58.1043 38.7699C58.0997 39.1327 58.095 39.4955 58.0903 39.8693C58.0845 40.2434 58.0787 40.6174 58.0728 40.9914C58.0574 41.9762 58.0437 42.961 58.0303 43.9459C58.0163 44.9507 58.0008 45.9555 57.9855 46.9602C57.9556 48.932 57.9274 50.9038 57.9003 52.8757C57.3617 53.0324 57.3617 53.0324 56.7885 53.1543C56.3008 52.6654 56.4744 52.0227 56.4707 51.3712C56.4708 51.1555 56.471 50.9398 56.4711 50.7176C56.4702 50.4916 56.4692 50.2655 56.4682 50.0325C56.4662 49.5398 56.4647 49.047 56.4637 48.5543C56.4617 47.7744 56.4573 46.9945 56.4522 46.2146C56.4376 43.9965 56.4243 41.7784 56.42 39.5602C56.4172 38.2049 56.409 36.8497 56.3974 35.4944C56.3939 34.9777 56.3925 34.4609 56.3931 33.9441C56.3938 33.2203 56.3876 32.4968 56.3799 31.773C56.3818 31.5596 56.3836 31.3462 56.3855 31.1264C56.3615 29.751 56.0956 29.0462 55.1209 28.0777C53.3532 26.8373 52.0387 27.5771 50.6738 28.9136Z" fill="#868686"/>
<path d="M46.2258 60.9561C49.8591 60.9821 52.6661 62.1985 55.3283 64.6479C56.6066 65.998 57.7005 67.7189 57.7082 69.6284C57.6652 70.0249 57.6652 70.0249 57.6213 70.4294C56.9334 70.5674 56.9334 70.5674 56.2316 70.7081C56.0937 70.4258 55.9558 70.1435 55.8137 69.8526C54.222 66.6733 52.9502 65.07 49.5654 63.7315C48.4438 63.3732 47.3962 63.2797 46.2258 63.1851C46.0424 63.0012 45.8589 62.8173 45.6699 62.6278C45.8243 61.3585 45.8243 61.3585 46.2258 60.9561Z" fill="#868686"/>
</g>
<defs>
<clipPath id="clip0_55239_17830">
<rect width="107" height="107" fill="white"/>
</clipPath>
</defs>
</svg>
