<svg width="27" height="31" viewBox="0 0 27 31" fill="none" xmlns="http://www.w3.org/2000/svg">
<path d="M5.3726 0.0831842C5.76578 0.0782234 6.15897 0.0732626 6.56407 0.0681515C6.98644 0.0672862 7.40882 0.0664209 7.84399 0.0655294C8.499 0.0616473 8.499 0.0616473 9.16725 0.0576867C10.0907 0.0537516 11.0141 0.051926 11.9376 0.0520509C13.3481 0.0503521 14.758 0.0362326 16.1685 0.0214872C17.0663 0.0192054 17.9641 0.0176624 18.8619 0.0169311C19.2826 0.0113438 19.7034 0.00575657 20.1369 0C22.5501 0.0145891 24.0195 0.137706 25.8263 1.75128C28.0338 4.73486 26.5066 10.8112 26.2021 14.3635C26.1265 15.2654 26.0601 16.1677 25.9938 17.0704C25.6197 21.719 24.7138 25.3629 21.0185 28.5775C17.7608 30.7296 14.9207 31.2346 11.0022 30.9103C7.55153 30.1472 4.63877 28.1451 2.73413 25.247C-0.316507 19.5555 0.159222 11.9547 0.0344309 5.66344C0.0230687 5.17079 0.0117065 4.67814 0 4.17057C0.223668 2.65309 0.668033 2.03885 1.78728 0.97371C3.01424 0.246061 3.94368 0.0954579 5.3726 0.0831842ZM2.18793 2.91764C1.62629 4.00765 1.7697 4.87265 1.80762 6.0902C1.82276 6.58053 1.8379 7.07086 1.8535 7.57605C1.87276 8.10489 1.89243 8.63371 1.91248 9.16252C1.92221 9.42711 1.93194 9.69171 1.94196 9.96432C1.90362 18.9033 1.90362 18.9033 5.91899 26.5607C8.65964 29.0028 11.0506 29.2066 14.7145 29.1258C17.8675 28.7897 20.119 27.4454 22.1187 25.0936C23.9079 22.2704 24.1029 19.6981 24.2989 16.428C24.3302 15.9471 24.3615 15.4663 24.3938 14.9709C24.569 12.1131 24.7112 9.25516 24.7496 6.39242C24.7567 6.09234 24.7637 5.79227 24.771 5.4831C24.7726 3.92613 24.7726 3.92613 24.0907 2.55467C22.8919 1.81091 21.8439 1.70042 20.4608 1.68864C19.9292 1.68303 19.9292 1.68303 19.3868 1.67732C19.0049 1.67566 18.6231 1.67401 18.2296 1.67231C17.8359 1.67009 17.4422 1.66788 17.0365 1.66559C16.2033 1.66192 15.3701 1.65938 14.5369 1.65788C13.2636 1.65411 11.9906 1.64205 10.7174 1.62979C9.90776 1.62725 9.09811 1.62521 8.28847 1.62371C7.71808 1.61651 7.71808 1.61651 7.13617 1.60917C5.16944 1.61559 3.76725 1.63915 2.18793 2.91764Z" fill="#DADADA"/>
</svg>
