<svg width="32" height="31" viewBox="0 0 32 31" fill="none" xmlns="http://www.w3.org/2000/svg">
<path d="M17.574 0.188009C18.6543 0.71755 19.5623 1.38907 20.5008 2.12915C22.0521 3.50045 22.0521 3.50045 23.9236 4.0703C24.5884 4.71394 25.2492 5.36166 25.9078 6.01144C27.115 6.90712 28.3454 7.76326 29.5817 8.61985C31.1224 9.87372 31.7834 10.7467 32 12.7129C31.8334 14.4461 31.387 15.943 30.8188 17.5855C30.7116 17.9031 30.6045 18.2207 30.4941 18.5479C30.2699 19.2118 30.0442 19.8751 29.8172 20.538C29.4849 21.5242 29.1706 22.5143 28.8609 23.5075C28.6621 24.1298 28.4631 24.7521 28.2641 25.3744C28.1765 25.6625 28.089 25.9507 27.9988 26.2476C27.3961 28.086 26.6983 29.2291 25.1141 30.4699C23.4651 30.991 21.7861 30.9282 20.0698 30.9369C19.5664 30.9403 19.5664 30.9403 19.0528 30.9437C18.3436 30.9473 17.6345 30.9499 16.9253 30.9514C15.8444 30.9551 14.7639 30.9672 13.6831 30.9794C12.9928 30.9819 12.3024 30.984 11.6121 30.9855C11.2908 30.9903 10.9695 30.9951 10.6385 31C8.6951 30.9926 7.33853 30.773 5.66869 29.6934C5.13862 29.0419 5.13862 29.0419 4.81454 28.3194C4.6908 28.0456 4.56707 27.7717 4.43959 27.4895C3.79332 25.8626 3.21506 24.2208 2.66754 22.5597C2.55219 22.2174 2.43683 21.8751 2.31798 21.5224C1.74082 19.7995 1.18073 18.0713 0.63371 16.3389C0.537537 16.035 0.441364 15.731 0.342276 15.4178C-0.176153 13.4624 -0.163198 11.9868 0.782527 10.1364C1.7263 9.08833 2.32543 8.71013 3.68446 8.34081C3.68446 8.08458 3.68446 7.82835 3.68446 7.56436C4.83751 6.6108 6.09566 5.79624 7.33455 4.9531C8.1127 4.415 8.87695 3.86051 9.64179 3.30446C10.1939 2.91237 10.7463 2.5206 11.2989 2.12915C11.5578 1.93776 11.8166 1.74637 12.0833 1.54918C13.8735 0.303304 15.3723 -0.34573 17.574 0.188009ZM12.3406 3.56075C12.0667 3.75029 11.7927 3.93984 11.5104 4.13513C10.925 4.54299 10.3412 4.9531 9.75883 5.36521C9.13986 5.80218 8.51815 6.23544 7.89397 6.66525C6.95552 7.31241 6.02612 7.97045 5.09822 8.63199C4.80475 8.83301 4.51127 9.03404 4.2089 9.24115C2.87149 10.2158 2.19846 10.7691 1.64753 12.3414C1.71438 14.1611 2.14073 15.6928 2.71715 17.4157C2.82521 17.7517 2.93328 18.0876 3.04462 18.4338C3.3822 19.4721 3.72975 20.5067 4.0813 21.5406C4.19199 21.8676 4.30268 22.1947 4.41672 22.5316C4.72985 23.4486 5.04844 24.3635 5.37105 25.2773C5.51728 25.6942 5.51728 25.6942 5.66646 26.1195C6.0797 27.2573 6.3722 28.0523 7.25607 28.9169C8.01652 29.0379 8.01652 29.0379 8.89373 29.0236C9.23147 29.0273 9.56921 29.031 9.91718 29.0348C10.2826 29.0344 10.648 29.0341 11.0245 29.0337C11.3994 29.0354 11.7742 29.037 12.1603 29.0388C12.954 29.041 13.7476 29.0412 14.5412 29.0395C15.7572 29.0383 16.9728 29.0474 18.1887 29.0572C18.9589 29.0581 19.7291 29.0584 20.4992 29.058C21.0462 29.0633 21.0462 29.0633 21.6042 29.0688C22.1126 29.0652 22.1126 29.0652 22.6314 29.0615C23.0786 29.0619 23.0786 29.0619 23.5348 29.0622C24.5492 28.8746 24.8808 28.5402 25.511 27.7523C25.9101 26.7879 26.2587 25.8484 26.5821 24.8603C26.7249 24.4343 26.7249 24.4343 26.8706 23.9997C27.0709 23.3989 27.2692 22.7974 27.4658 22.1954C27.7654 21.2818 28.0736 20.3713 28.3827 19.4607C28.5767 18.8747 28.7702 18.2886 28.9632 17.7023C29.1008 17.2987 29.1008 17.2987 29.2412 16.887C29.8436 15.0106 30.0692 13.4154 29.8763 11.4466C29.3553 10.6114 29.3553 10.6114 28.5276 10.0681C28.2372 9.84762 27.9467 9.62711 27.6475 9.39991C27.3353 9.17853 27.0231 8.95714 26.7015 8.72904C26.3944 8.49915 26.0874 8.26925 25.771 8.03239C24.8165 7.32239 23.8514 6.62891 22.8819 5.93865C22.5565 5.70469 22.2312 5.47073 21.8959 5.22968C20.9881 4.57928 20.0756 3.93563 19.1614 3.29384C18.9283 3.12538 18.6951 2.95691 18.4549 2.78334C15.9762 1.05179 14.5731 1.99837 12.3406 3.56075Z" fill="#DADADA"/>
</svg>
