<svg width="35" height="25" viewBox="0 0 35 25" fill="none" xmlns="http://www.w3.org/2000/svg">
<path d="M13.569 0.00717244C13.9015 0.00605376 14.234 0.00493507 14.5765 0.00378248C15.2751 0.00299096 15.9737 0.00511927 16.6723 0.0100271C17.7392 0.0163057 18.8055 0.0100652 19.8724 0.00260492C20.5537 0.00337736 21.2349 0.00487499 21.9161 0.00717244C22.392 0.00362208 22.392 0.00362208 22.8775 0C25.1134 0.0276028 26.42 0.475951 28.0856 2.02145C34.5714 9.30098 34.5714 9.30098 35 12.2695C34.7574 14.4297 33.7713 15.6087 32.4639 17.312C32.1512 17.7346 31.8388 18.1573 31.5267 18.5803C31.1913 19.0269 30.8553 19.4729 30.5187 19.9185C30.3633 20.1269 30.208 20.3352 30.048 20.5498C27.086 24.3831 27.086 24.3831 24.9286 24.9298C23.9885 25.0061 23.076 25.0115 22.1331 24.987C21.6227 24.9862 21.6227 24.9862 21.102 24.9854C20.3865 24.9818 19.6709 24.9727 18.9555 24.9581C17.8643 24.9368 16.7742 24.9342 15.6827 24.9345C14.9848 24.9287 14.2869 24.9219 13.589 24.9139C13.2652 24.9126 12.9414 24.9113 12.6077 24.91C10.2391 24.8523 8.56703 24.3736 6.76241 22.7595C-0.0428883 15.1266 -0.0428882 15.1266 0.00771558 11.5478C0.29253 9.92452 1.33748 8.81032 2.37495 7.56795C2.58063 7.31071 2.78631 7.05347 2.99822 6.78843C3.41432 6.268 3.83461 5.75084 4.25897 5.23699C4.68241 4.70583 5.08739 4.15982 5.47395 3.60182C5.66503 3.32699 5.8561 3.05216 6.05297 2.769C6.2177 2.52131 6.38243 2.27361 6.55215 2.01841C8.53594 0.0671281 10.9343 -0.0125834 13.569 0.00717244ZM4.88647 6.78843C4.28928 7.55149 3.68332 8.30801 3.06439 9.05392C2.16105 10.1931 1.7659 10.9174 1.48546 12.3441C1.84995 14.4787 3.0141 15.7274 4.39401 17.3607C4.64387 17.6667 4.89373 17.9727 5.15116 18.2879C5.61947 18.8603 6.09046 19.4306 6.56504 19.9979C7.25024 20.8199 7.25024 20.8199 7.8889 21.8765C9.31235 23.2316 10.6642 23.0772 12.5749 23.0823C13.1244 23.0907 13.1244 23.0907 13.6849 23.0992C14.4598 23.1073 15.2347 23.1103 16.0096 23.1084C17.1891 23.1097 18.3656 23.14 19.5447 23.1721C23.3929 23.3126 23.3929 23.3126 26.9215 22.0699C27.7347 21.1772 28.3199 20.3041 28.9182 19.2608C29.3296 18.7376 29.7479 18.2195 30.174 17.7079C30.5451 17.22 30.9145 16.7307 31.282 16.2402C31.4744 15.9935 31.6669 15.7468 31.8652 15.4926C32.6423 14.4568 33.1954 13.6722 33.4734 12.4019C33.1624 11.0877 32.52 10.3053 31.6759 9.2488C31.517 9.04739 31.358 8.84598 31.1942 8.63847C30.7026 8.01813 30.2048 7.40319 29.7061 6.78843C29.406 6.4111 29.1059 6.03378 28.7966 5.64502C27.2504 3.3524 27.2504 3.3524 25.0551 1.98607C24.7678 1.97369 24.4805 1.96131 24.1845 1.94856C23.8581 1.93352 23.5317 1.91849 23.1954 1.90299C21.6923 1.85779 20.1894 1.81952 18.6857 1.79555C17.8961 1.77879 17.1067 1.75227 16.3177 1.71562C10.61 1.45295 7.88675 1.75803 4.88647 6.78843Z" fill="#DADADA"/>
</svg>
