<svg width="30" height="23" viewBox="0 0 30 23" fill="none" xmlns="http://www.w3.org/2000/svg">
<path d="M9.8927 0.0359866C10.3151 0.0342809 10.7374 0.0325753 11.1726 0.0308179C12.0636 0.028537 12.9546 0.0283289 13.8456 0.0300587C15.2068 0.0313177 16.5677 0.0219678 17.9289 0.0118862C18.7961 0.0109815 19.6632 0.0107014 20.5303 0.0111088C20.9361 0.00744288 21.3419 0.00377699 21.76 0C23.8601 0.0136576 25.4007 0.0927046 27.2056 1.34985C27.9151 2.10707 27.9151 2.10707 28.4669 2.91715C28.7474 3.3166 28.7474 3.3166 29.0336 3.72412C30.2947 5.96154 29.9555 8.66669 29.9662 11.1766C29.974 11.633 29.9819 12.0894 29.99 12.5596C30.0042 15.8112 29.831 18.6327 27.8244 21.2272C26.2674 22.5061 24.9326 22.9428 22.9646 22.9536C22.5845 22.9574 22.2045 22.9612 21.813 22.9651C21.4064 22.9647 20.9998 22.9644 20.5809 22.964C20.1589 22.9657 19.7369 22.9674 19.3021 22.9692C18.4104 22.9715 17.5188 22.9717 16.6271 22.9699C15.2667 22.9687 13.9066 22.978 12.5462 22.9881C11.6785 22.989 10.8109 22.9893 9.94327 22.9889C9.53823 22.9926 9.13319 22.9962 8.71588 23C6.22603 22.9839 4.15402 22.8319 2.18667 21.0671C0.106706 18.1705 0.0293615 16.2241 0.0301802 12.6226C0.0285231 11.8065 0.0147086 10.9912 0.000247008 10.1753C-0.0097713 6.62841 0.276527 4.4214 2.40829 1.59863C4.63297 -0.179805 7.22483 0.0336016 9.8927 0.0359866ZM1.93949 4.8998C1.34206 6.9191 1.5703 9.15857 1.57536 11.2512C1.56923 11.7556 1.56309 12.26 1.55677 12.7797C1.55653 13.2676 1.55628 13.7556 1.55603 14.2583C1.55489 14.7026 1.55376 15.1469 1.55259 15.6046C1.76534 17.509 2.41565 18.7311 3.57661 20.1949C5.41403 21.2355 7.21743 21.0731 9.27396 21.0515C9.71468 21.0521 10.1554 21.0527 10.6095 21.0533C11.5402 21.0526 12.4709 21.048 13.4016 21.0398C14.8256 21.0282 16.2491 21.0316 17.6731 21.0368C18.5779 21.0343 19.4827 21.0309 20.3875 21.0267C20.8132 21.0278 21.2388 21.029 21.6773 21.0302C22.0751 21.0251 22.4728 21.0201 22.8826 21.0149C23.2311 21.0127 23.5797 21.0106 23.9388 21.0084C25.1352 20.8204 25.8489 20.3978 26.8248 19.6599C28.3166 17.2545 28.1538 14.9012 28.137 12.1208C28.1337 11.3029 28.1447 10.4861 28.1568 9.66837C28.1565 9.14808 28.1563 8.62779 28.156 8.09174C28.1567 7.61917 28.1574 7.1466 28.1582 6.65971C27.9261 5.04492 27.4328 4.19562 26.4441 2.94203C25.2597 2.15699 24.3213 2.04088 22.9319 2.02398C22.5353 2.01761 22.1388 2.01125 21.7302 2.00469C21.3038 2.00256 20.8774 2.00042 20.4381 1.99823C19.7776 1.99283 19.7776 1.99283 19.1037 1.98733C18.1723 1.98156 17.2409 1.97802 16.3096 1.97655C14.8863 1.97182 13.4636 1.95224 12.0405 1.93214C11.1351 1.92838 10.2298 1.9255 9.32453 1.92359C8.89967 1.91582 8.47482 1.90804 8.03709 1.90003C5.09399 1.91788 3.68724 2.31526 1.93949 4.8998Z" fill="#DBDBDB"/>
</svg>
