<svg width="24" height="16" viewBox="0 0 24 16" fill="none" xmlns="http://www.w3.org/2000/svg">
<path d="M20.9177 2.59457C22.2351 3.6334 23.5754 4.98282 23.959 6.69246C24.1309 8.56578 23.7753 10.0572 22.6447 11.5218C21.2673 13.0311 19.8522 13.9871 17.9991 14.7729C17.7794 14.8702 17.5598 14.9676 17.3334 15.0678C13.2892 16.6077 8.91569 16.1167 4.99552 14.4942C2.95229 13.4652 0.987964 11.6899 0.119187 9.47882C-0.206013 7.46552 0.124577 5.93137 1.23033 4.24679C5.76442 -1.21307 15.4713 -1.00913 20.9177 2.59457ZM2.16792 4.89875C1.3148 6.26758 0.889298 7.56442 1.20282 9.20018C2.09218 11.325 3.5737 12.3811 5.53733 13.3797C5.71508 13.4713 5.89284 13.5629 6.07597 13.6573C9.07477 15.0866 13.7126 15.0035 16.8117 13.9294C17.0248 13.8399 17.2378 13.7505 17.4573 13.6583C17.6926 13.5603 17.928 13.4622 18.1705 13.3612C20.0832 12.4716 21.4418 11.2726 22.6045 9.47882C22.7916 8.05302 22.7812 6.79917 22.1812 5.49085C20.0062 3.02435 17.4115 1.5615 14.1183 1.35983C9.63975 1.18403 5.45813 1.34115 2.16792 4.89875Z" fill="#DADADA"/>
</svg>
