<svg width="27" height="27" viewBox="0 0 27 27" fill="none" xmlns="http://www.w3.org/2000/svg">
<path d="M18.9878 1.15068C19.2979 1.33573 19.2979 1.33573 19.6143 1.52452C19.8461 1.65096 20.078 1.7774 20.3169 1.90768C23.7106 3.91341 25.7243 6.8788 26.7218 10.5991C27.3819 14.1273 26.8894 17.5837 25.0069 20.6986C24.7428 21.0714 24.4694 21.4379 24.1875 21.798C24.0307 21.9998 23.8739 22.2015 23.7123 22.4094C21.687 24.8382 19.0809 26.5479 15.8555 26.9563C15.1367 26.9963 14.4271 27.006 13.7072 26.9968C13.4539 26.9943 13.2006 26.9919 12.9397 26.9893C9.26368 26.8908 6.43142 25.4768 3.7592 23.0267C0.747419 19.8779 -0.0988028 16.1963 0.00891551 12.0165C0.201123 8.55014 2.18538 5.59805 4.71315 3.23882C5.09699 2.95229 5.49255 2.68055 5.89457 2.41894C6.17754 2.23062 6.46051 2.04231 6.75205 1.84828C10.2656 -0.185696 15.2455 -0.718178 18.9878 1.15068ZM3.76039 5.99661C1.30628 9.27175 0.92338 12.4758 1.32134 16.4315C2.04809 19.6855 4.37713 22.4078 7.20937 24.2018C7.57985 24.4021 7.95413 24.5959 8.33363 24.7794C8.58515 24.9024 8.83668 25.0254 9.09583 25.1521C10.1532 25.4623 11.2014 25.5902 12.2971 25.6738C12.5042 25.6934 12.7113 25.713 12.9247 25.7332C15.6863 25.8769 18.6933 25.0155 20.8338 23.2887C21.6278 22.5868 21.6278 22.5868 22.3582 21.798C22.7355 21.4198 22.7355 21.4198 23.1204 21.034C25.4399 18.1681 25.79 14.9507 25.4958 11.4241C25.0874 8.39889 23.2647 5.66837 20.8338 3.81647C15.0095 -0.179046 8.42176 0.922863 3.76039 5.99661Z" fill="#D9D9D9"/>
</svg>
