<svg width="36" height="25" viewBox="0 0 36 25" fill="none" xmlns="http://www.w3.org/2000/svg">
<path d="M13.7345 0.0354505C14.0557 0.0337702 14.3768 0.03209 14.7077 0.0303588C15.3851 0.0281132 16.0627 0.0279058 16.7402 0.0296109C17.7705 0.0308481 18.8004 0.0216503 19.8307 0.0117091C20.4913 0.0108175 21.1519 0.0105422 21.8125 0.0109433C22.27 0.00552636 22.27 0.00552636 22.7367 0C25.376 0.0221099 27.494 0.671769 29.5318 2.39121C29.768 2.58909 30.0041 2.78698 30.2474 2.99087C30.4836 3.19482 30.7198 3.39878 30.9631 3.60891C31.2023 3.80831 31.4416 4.00772 31.6881 4.21317C32.386 4.80504 33.061 5.41378 33.7312 6.03512C33.9335 6.21273 34.1357 6.39034 34.3441 6.57333C35.8346 8.04266 35.9954 9.3024 36 11.2674C35.9904 11.6111 35.9808 11.9548 35.9709 12.309C35.9753 12.6527 35.9797 12.9964 35.9843 13.3505C35.9525 16.0884 35.1962 17.5272 33.209 19.5018C26.8885 24.9123 26.8885 24.9123 22.4007 24.9363C22.0784 24.9385 21.7561 24.9408 21.4241 24.9431C20.7418 24.9468 20.0595 24.9494 19.3772 24.9509C18.3397 24.9547 17.3026 24.9668 16.2652 24.9792C15.6009 24.9818 14.9367 24.9838 14.2724 24.9853C13.9649 24.9902 13.6574 24.995 13.3405 25C10.6882 24.9894 8.57332 24.3473 6.52475 22.6189C6.2886 22.421 6.05244 22.2231 5.80913 22.0192C5.57297 21.8152 5.33681 21.6113 5.0935 21.4011C4.85423 21.2017 4.61495 21.0023 4.36843 20.7969C3.67056 20.205 2.99573 19.5961 2.32535 18.9749C1.94231 18.6206 1.55927 18.2663 1.16462 17.9012C-0.0252343 16.116 -0.0268554 14.6435 0.0101759 12.554C0.0157879 12.1828 0.0213998 11.8116 0.0271819 11.4292C0.176061 7.98252 0.176061 7.98252 1.39425 6.57428C1.95632 6.1131 2.53841 5.67478 3.13063 5.25089C3.56103 4.88469 3.98805 4.5147 4.41247 4.14194C7.45491 1.50608 9.51719 0.0305353 13.7345 0.0354505ZM4.33855 6.42724C3.66972 7.08294 2.99923 7.73704 2.32535 8.38782C1.31273 9.37397 1.6518 11.9466 1.62791 13.3149C1.68859 15.5728 2.00418 16.8318 3.70942 18.4848C4.43592 19.065 5.18609 19.6174 5.94911 20.1513C6.2759 20.4974 6.2759 20.4974 6.60929 20.8505C9.21749 23.3713 12.0657 23.3027 15.5432 23.3096C15.9105 23.3055 16.2777 23.3013 16.656 23.297C17.7724 23.2882 18.8845 23.3129 20.0006 23.3403C23.3972 23.3673 25.9932 23.3488 28.6982 21.202C29.3143 20.6019 29.9193 19.9908 30.5101 19.3671C31.1239 18.8527 31.7436 18.3447 32.3723 17.8476C33.401 17.0012 33.6954 16.7268 34.1339 15.4459C34.2145 14.4177 34.2638 13.4117 34.2849 12.3825C34.2999 12.1083 34.315 11.8341 34.3305 11.5515C34.3583 9.94278 34.2156 9.29008 33.2594 7.90993C32.166 6.86274 31.0593 5.90636 29.8558 4.98131C27.75 3.35475 27.75 3.35475 27.1246 2.66451C26.3312 1.98295 25.9235 1.95056 24.8773 1.91198C24.5557 1.89814 24.2341 1.88431 23.9028 1.87006C23.5555 1.8626 23.2083 1.85514 22.8505 1.84745C22.4893 1.83889 22.1281 1.83032 21.7559 1.8215C20.989 1.80694 20.222 1.79597 19.455 1.78829C18.2969 1.77112 17.1424 1.72461 15.9852 1.67743C10.6377 1.55993 7.90543 2.5592 4.33855 6.42724Z" fill="#DADADA"/>
</svg>
