<svg width="30" height="20" viewBox="0 0 30 20" fill="none" xmlns="http://www.w3.org/2000/svg">
<path d="M10.4032 0.0649864C10.778 0.0624197 11.1528 0.0598531 11.539 0.0572087C12.3302 0.053312 13.1214 0.0514956 13.9126 0.0516196C15.1202 0.0499329 16.3273 0.0359194 17.5349 0.0213091C18.305 0.0190465 19.0751 0.0175161 19.8452 0.0167908C20.2047 0.0112498 20.5643 0.00570887 20.9347 0C23.0815 0.0150207 24.4158 0.226261 26.0775 1.73677C26.5108 2.50498 26.5108 2.50498 26.72 3.31668C26.8044 3.62042 26.8887 3.92416 26.9756 4.2371C27.0588 4.55712 27.142 4.87714 27.2278 5.20685C27.4311 5.86561 27.6363 6.52378 27.8434 7.18136C28.0464 7.86439 28.2486 8.54767 28.45 9.23118C28.5545 9.5694 28.6591 9.90762 28.7668 10.2561C30.345 15.6535 30.345 15.6535 29.1282 17.8974C28.4559 18.7345 27.8058 19.3749 26.8444 19.8583C26.1106 19.8994 25.3755 19.9157 24.6407 19.9204C24.1786 19.9241 23.7166 19.9278 23.2406 19.9317C22.4881 19.9341 22.4881 19.9341 21.7204 19.9366C21.2017 19.9388 20.683 19.9411 20.1643 19.9433C19.0758 19.9473 17.9873 19.9496 16.8988 19.9509C15.5063 19.953 14.1139 19.9623 12.7215 19.9733C11.6495 19.9805 10.5774 19.9825 9.50539 19.9831C8.74311 19.9848 7.98084 19.992 7.21859 19.9992C6.75294 19.9981 6.28729 19.9969 5.80752 19.9957C5.19411 19.9978 5.19411 19.9978 4.56831 20C3.29491 19.8379 2.58252 19.4341 1.53781 18.7016C1.31638 18.5505 1.09495 18.3994 0.866804 18.2438C0.0556011 17.061 -0.0219693 15.8587 0.00408063 14.4604C0.309702 12.8047 0.736596 11.1949 1.20146 9.57759C1.41773 8.82242 1.62325 8.06487 1.82763 7.30637C3.38177 1.75237 3.38177 1.75237 5.41716 0.443585C7.07869 0.0691604 8.70507 0.0690307 10.4032 0.0649864ZM5.09357 2.84275C4.09058 4.53087 3.7082 6.48122 3.19136 8.36366C3.00712 8.99922 3.00713 8.99922 2.81916 9.64762C2.14 12.0896 1.66515 14.2369 1.92124 16.7738C2.33654 17.4797 2.33654 17.4797 3.07154 17.9305C4.12043 18.1091 4.12043 18.1091 5.32486 18.0863C5.7881 18.0912 6.25133 18.0961 6.72861 18.1011C7.22947 18.1 7.73034 18.0988 8.24638 18.0977C8.76546 18.0994 9.28454 18.1015 9.80362 18.1038C10.8915 18.1072 11.9792 18.1063 13.0671 18.1025C14.4601 18.098 15.8528 18.1058 17.2458 18.1171C18.3178 18.1242 19.3898 18.1241 20.4618 18.1219C21.2248 18.1218 21.9877 18.1283 22.7506 18.1349C23.215 18.1313 23.6795 18.1277 24.158 18.1239C24.7709 18.1238 24.7709 18.1238 25.3963 18.1237C26.7342 17.8809 27.1977 17.4827 27.9947 16.3882C27.9661 13.4863 27.0981 10.7318 26.3171 7.954C26.2005 7.51961 26.0838 7.08521 25.9637 6.63766C25.848 6.22215 25.7323 5.80665 25.6132 5.37855C25.4572 4.81502 25.4572 4.81502 25.2981 4.24012C24.9032 3.21672 24.6238 2.79741 23.7769 2.12234C22.9441 1.94514 22.9441 1.94514 22.0103 1.96655C21.6533 1.96166 21.2963 1.95677 20.9284 1.95173C20.5438 1.95286 20.1591 1.95399 19.7628 1.95516C19.3672 1.95314 18.9715 1.95111 18.5639 1.94903C17.7272 1.94656 16.8905 1.94707 16.0538 1.95036C14.7711 1.95364 13.4891 1.94255 12.2065 1.93031C11.3942 1.92968 10.5819 1.92991 9.76963 1.93106C9.38498 1.92673 9.00033 1.9224 8.60402 1.91793C8.24702 1.92155 7.89002 1.92517 7.5222 1.92889C7.05102 1.92899 7.05102 1.92899 6.57032 1.92909C5.69202 2.05683 5.69202 2.05683 5.09357 2.84275Z" fill="#DBDBDB"/>
</svg>
