<svg width="31" height="32" viewBox="0 0 31 32" fill="none" xmlns="http://www.w3.org/2000/svg">
<path d="M14.6526 0.141693C15.2021 0.131133 15.7516 0.11487 16.3008 0.0926491C21.4413 -0.112678 21.4413 -0.112678 23.3697 1.56435C23.8391 2.07088 24.2976 2.58784 24.744 3.11507C25.21 3.57326 25.6794 4.028 26.1523 4.47895C26.5918 4.92009 27.0303 5.36225 27.4678 5.80547C27.6925 6.03 27.9172 6.25452 28.1487 6.48585C30.8897 9.24987 30.87 11.3038 30.8989 15.027C30.9095 15.9348 30.9392 16.8407 30.9692 17.748C31.0582 22.6186 31.0582 22.6186 29.4673 24.4732C28.9601 24.9389 28.4419 25.3928 27.9135 25.834C27.4239 26.3359 26.9384 26.842 26.4572 27.352C25.9779 27.8352 25.4977 28.3173 25.0163 28.7984C24.771 29.0469 24.5256 29.2953 24.2727 29.5512C24.0375 29.7873 23.8024 30.0234 23.56 30.2666C23.2442 30.5837 23.2442 30.5837 22.9219 30.9072C21.2782 32.4082 18.8238 31.9179 16.7364 31.9303C15.9371 31.9372 15.1385 31.9547 14.3394 31.9723C13.5787 31.9773 13.5787 31.9773 12.8026 31.9824C12.3387 31.9882 11.8749 31.994 11.397 32C8.35935 31.5663 6.31139 28.947 4.24119 26.8554C3.93732 26.5561 3.63344 26.2568 3.32036 25.9484C3.02977 25.6564 2.73917 25.3643 2.43977 25.0633C2.17688 24.8 1.91399 24.5368 1.64314 24.2655C-0.350998 21.818 0.0347211 18.8967 0.0316837 15.8945C0.0171284 15.1396 0.0171284 15.1396 0.0022791 14.3694C-0.0121162 9.79553 -0.0121162 9.79553 1.76501 7.898C2.02439 7.62027 2.28377 7.34253 2.551 7.05638C3.47778 6.08187 4.42517 5.13265 5.38023 4.18625C5.70658 3.85819 6.03292 3.53013 6.36916 3.19214C9.22217 0.343058 10.6065 0.200948 14.6526 0.141693ZM6.50071 4.81058C6.24535 5.17178 5.98999 5.53297 5.7269 5.90511C5.20298 6.49858 4.67513 7.08856 4.14214 7.6738C3.93786 7.91991 3.73357 8.16602 3.5231 8.41958C2.95358 9.09374 2.95358 9.09374 2.34053 9.57804C0.447439 11.9182 1.34139 17.6063 1.54989 20.5377C1.9489 22.9685 3.0402 24.0286 5.00107 25.4821C5.37134 25.7298 5.7416 25.9774 6.12309 26.2326C6.88606 27.0578 6.88606 27.0578 7.48499 27.8269C9.01803 29.6555 9.01803 29.6555 11.1966 30.3984C12.5762 30.4362 13.9543 30.4601 15.3345 30.4675C16.0492 30.4945 16.0492 30.4945 16.7784 30.522C19.0984 30.5399 20.7592 30.5203 22.5618 28.951C23.0354 28.4532 23.4994 27.9459 23.9516 27.4283C24.3606 27.029 24.772 26.6323 25.1866 26.2388C25.7274 25.6932 25.7274 25.6932 26.2792 25.1365C26.6459 24.7686 27.0126 24.4007 27.3904 24.0217C29.4789 21.8003 29.288 19.9362 29.3142 16.9947C29.3248 16.2029 29.3545 15.4114 29.3845 14.6201C29.4419 11.2903 29.4419 11.2903 27.8578 8.48653C27.3582 8.01356 26.8486 7.55106 26.3287 7.10085C25.8978 6.65615 25.47 6.20839 25.0458 5.7572C24.6408 5.34877 24.2348 4.94135 23.8278 4.535C23.6202 4.3246 23.4126 4.11421 23.1987 3.89743C20.5487 1.23833 17.7822 1.67208 14.1726 1.62663C10.6369 1.69094 8.81894 2.01431 6.50071 4.81058Z" fill="#D9D9D9"/>
</svg>
