<svg width="30" height="15" viewBox="0 0 30 15" fill="none" xmlns="http://www.w3.org/2000/svg">
<path d="M21.0963 1.38044C21.4355 1.51501 21.7748 1.64959 22.1243 1.78824C22.8042 2.05876 23.4827 2.33287 24.1597 2.61065C24.8594 2.89366 25.5633 3.16659 26.2704 3.43079C26.6173 3.56163 26.9642 3.69247 27.3216 3.82727C27.6347 3.94253 27.9478 4.05779 28.2704 4.17655C29.0483 4.57038 29.0483 4.57038 29.8217 5.73036C29.9517 6.5505 29.9517 6.5505 29.9668 7.44616C29.9777 7.74073 29.9887 8.03531 30 8.3388C29.7393 9.6132 29.3153 9.96377 28.2748 10.7569C27.0546 11.3578 25.7992 11.8447 24.5285 12.3277C24.1957 12.4586 23.8629 12.5894 23.5201 12.7242C22.5304 13.1097 21.5363 13.4812 20.5404 13.8502C20.2424 13.9668 19.9445 14.0834 19.6376 14.2035C15.7954 15.6264 12.9294 14.9714 9.15619 13.5844C8.592 13.3874 8.592 13.3874 8.01641 13.1864C1.36628 10.8102 1.36628 10.8102 0.327346 9.24551C-0.150053 7.88321 -0.0965211 6.66369 0.430731 5.3437C2.58614 3.31709 5.79758 2.48333 8.52776 1.5496C9.18243 1.31372 9.18243 1.31372 9.85033 1.07307C14.2128 -0.436661 16.8518 -0.370471 21.0963 1.38044ZM12.673 2.00121C12.192 2.16957 12.192 2.16957 11.7013 2.34133C11.1952 2.52361 11.1952 2.52361 10.6789 2.70958C10.3343 2.83285 9.98966 2.95612 9.63459 3.08312C8.6277 3.44612 7.62278 3.8141 6.61831 4.18372C6.35142 4.28042 6.08453 4.37711 5.80955 4.47674C5.14986 4.71804 4.49406 4.96995 3.83874 5.22287C3.4823 5.35994 3.12586 5.497 2.75863 5.63823C1.9288 6.05089 1.9288 6.05089 1.6196 6.84956C1.58348 7.87427 1.82419 8.34412 2.36435 9.2103C3.00988 9.63784 3.00988 9.63784 3.78586 9.89904C4.07185 10.0084 4.35784 10.1178 4.6525 10.2306C4.95824 10.3405 5.26398 10.4504 5.57899 10.5636C5.89147 10.6795 6.20394 10.7954 6.52588 10.9148C7.45662 11.2561 8.39026 11.5878 9.32538 11.9169C9.70955 12.0552 9.70955 12.0552 10.1015 12.1963C13.6772 13.4714 15.9667 13.56 19.5811 12.2205C20.04 12.0508 20.4989 11.8811 20.9717 11.7062C21.4435 11.5285 21.9153 11.3508 22.4015 11.1678C22.8856 10.9896 23.3697 10.8116 23.854 10.6338C26.255 9.84893 26.255 9.84893 28.2748 8.43698C28.5005 7.48692 28.5005 7.48692 28.2748 6.50368C26.12 4.98585 23.5501 4.24069 21.0963 3.3379C20.62 3.15872 20.1436 2.97953 19.6529 2.79492C18.9668 2.54109 18.9668 2.54109 18.2669 2.28214C17.8498 2.12753 17.4328 1.97293 17.0031 1.81364C15.3936 1.32276 14.2194 1.45536 12.673 2.00121Z" fill="#DADADA"/>
</svg>
