<svg width="33" height="31" viewBox="0 0 33 31" fill="none" xmlns="http://www.w3.org/2000/svg">
<path d="M12.581 0.0631276C13.0596 0.0598043 13.0596 0.0598043 13.5478 0.0564139C14.2216 0.0527487 14.8953 0.0502043 15.5691 0.0487039C16.5975 0.0449264 17.6256 0.032859 18.6539 0.0206155C19.3096 0.0180776 19.9652 0.0160368 20.6209 0.0145424C20.9272 0.00974338 21.2335 0.0049444 21.549 0C23.323 0.00716624 24.4483 0.16828 25.8979 1.30812C27.9207 3.84106 29.2976 6.88354 30.6965 9.79688C31.1711 10.7533 31.6655 11.6179 32.2477 12.507C33.0541 14.1622 33.1348 15.4275 32.8513 17.2441C32.2646 18.7367 31.4879 20.0904 30.6784 21.471C30.4767 21.8272 30.275 22.1835 30.0672 22.5505C29.6602 23.2694 29.2492 23.9859 28.834 24.7C28.4086 25.4534 28.0023 26.2178 27.6125 26.9904C27.4181 27.3745 27.2238 27.7587 27.0236 28.1545C26.8531 28.5033 26.6826 28.8521 26.5069 29.2114C25.7265 30.3123 25.2692 30.5219 23.9663 30.848C22.8429 30.926 21.7576 30.9662 20.6345 30.9649C20.316 30.9665 19.9975 30.9682 19.6693 30.9699C18.9979 30.9721 18.3264 30.9723 17.655 30.9706C16.63 30.9694 15.6054 30.9786 14.5804 30.9884C13.9265 30.9893 13.2726 30.9896 12.6187 30.9892C12.3136 30.9927 12.0086 30.9963 11.6943 31C9.91866 30.9851 8.74304 30.827 7.35533 29.6819C6.74541 28.8707 6.74541 28.8707 6.22811 27.9374C6.03371 27.5924 5.83932 27.2473 5.63903 26.8919C5.44053 26.5299 5.24203 26.168 5.03751 25.7951C4.83552 25.4407 4.63353 25.0862 4.42542 24.7211C3.80728 23.6346 3.20207 22.5417 2.59897 21.4467C2.28787 20.8954 2.28787 20.8954 1.97047 20.333C-0.0423189 16.6683 -0.0423189 16.6683 0.0155709 14.5233C0.373423 13.4405 0.894527 12.4948 1.46421 11.511C1.61942 11.2317 1.77463 10.9524 1.93454 10.6646C2.26993 10.064 2.60867 9.46537 2.95038 8.86844C3.51777 7.87093 4.06781 6.86495 4.6165 5.85692C4.98962 5.18246 5.36334 4.50833 5.73768 3.83456C5.91359 3.51151 6.0895 3.18847 6.27073 2.85564C6.43992 2.5574 6.6091 2.25916 6.78342 1.95188C6.93122 1.68658 7.07902 1.42128 7.2313 1.14795C8.46107 -0.339333 10.812 0.0726438 12.581 0.0631276ZM7.74163 3.64022C6.78806 5.08835 5.9558 6.60189 5.12022 8.12107C4.72414 8.83793 4.31873 9.54885 3.91255 10.26C3.65669 10.7202 3.4014 11.1807 3.14674 11.6416C2.80104 12.2612 2.80104 12.2612 2.44835 12.8932C1.6762 14.8055 1.6762 16.1846 2.44835 18.0968C2.67882 18.5098 2.90929 18.9229 3.14674 19.3484C3.27077 19.5729 3.39481 19.7974 3.5226 20.0287C3.78456 20.4999 4.0493 20.9695 4.31668 21.4376C4.7221 22.1485 5.11765 22.8643 5.51209 23.5814C7.21649 26.7379 7.21649 26.7379 9.67314 29.2932C10.8041 29.4921 11.7071 29.5756 12.836 29.565C13.1374 29.5678 13.4387 29.5706 13.7492 29.5734C14.3843 29.5764 15.0194 29.5745 15.6544 29.5679C16.6241 29.5605 17.5916 29.5758 18.5611 29.5931C19.1798 29.5932 19.7985 29.592 20.4172 29.5893C20.7054 29.5952 20.9935 29.6012 21.2904 29.6073C22.877 29.5717 23.4929 29.3772 24.6516 28.2604C24.9501 27.8355 25.237 27.4021 25.5116 26.9611C25.8864 26.3746 25.8864 26.3746 26.2689 25.7762C26.9026 24.6707 27.534 23.5642 28.1542 22.451C28.5542 21.7373 28.9642 21.0301 29.3746 20.3224C29.6318 19.864 29.8883 19.4052 30.1442 18.9461C30.3767 18.5355 30.6092 18.125 30.8487 17.7019C31.5743 15.7426 31.196 14.3711 30.3685 12.4984C30.1376 12.0829 29.9067 11.6674 29.6688 11.2393C29.5444 11.0139 29.42 10.7885 29.2919 10.5562C29.0299 10.0838 28.7659 9.61253 28.4998 9.1424C28.0952 8.42638 27.6982 7.70651 27.302 6.98577C25.801 4.04401 25.801 4.04401 23.58 1.69681C22.4873 1.5374 21.5473 1.4694 20.4549 1.47665C20.153 1.47425 19.8511 1.47184 19.54 1.46935C18.9027 1.4666 18.2653 1.46782 17.6279 1.47276C16.6551 1.47815 15.6837 1.46491 14.7109 1.45008C14.0905 1.44971 13.47 1.45044 12.8496 1.45236C12.4155 1.44463 12.4155 1.44463 11.9727 1.43675C9.87111 1.47421 9.02105 1.99176 7.74163 3.64022Z" fill="#D9D9D9"/>
</svg>
