<svg width="21" height="21" viewBox="0 0 21 21" fill="none" xmlns="http://www.w3.org/2000/svg">
<path d="M6.77024 0.0298185C7.22153 0.0273899 7.22153 0.0273899 7.68195 0.0249123C8.31661 0.0229332 8.95128 0.0233373 9.58594 0.0259727C10.5539 0.0286006 11.5214 0.0197129 12.4893 0.00991121C13.1075 0.00941323 13.7256 0.00959186 14.3437 0.0105145C14.7754 0.0053098 14.7754 0.0053098 15.2157 0C17.0087 0.0190879 18.078 0.271808 19.5415 1.3992C20.7174 2.82038 21.0748 4.17362 20.9875 6.03216C20.3805 8.26456 19.2747 10.2314 18.1316 12.1901C17.8211 12.7303 17.5112 13.2708 17.2019 13.8117C17.0554 14.0677 16.9089 14.3237 16.758 14.5875C16.2628 15.4722 15.8116 16.3721 15.3661 17.2864C14.5679 18.886 13.7332 19.8454 12.3114 20.8576C11.5285 20.9614 11.5285 20.9614 10.6304 20.9735C10.3363 20.9822 10.0421 20.991 9.73908 21C8.29233 20.7707 7.38246 20.0152 6.51091 18.7773C6.33702 18.4585 6.16313 18.1397 5.98397 17.8112C5.88757 17.6366 5.79116 17.462 5.69184 17.2821C5.38715 16.7265 5.08896 16.1674 4.79214 15.6069C4.69501 15.4251 4.59788 15.2433 4.4978 15.0559C3.82019 13.7851 3.15685 12.5061 2.4966 11.2249C2.30068 10.8467 2.10468 10.4684 1.90859 10.0902C-0.170865 6.07296 -0.170865 6.07296 0.164909 3.87011C1.56482 0.574711 3.58599 0.0198052 6.77024 0.0298185ZM1.79167 3.13656C1.17674 4.50056 1.27754 5.52923 1.61092 6.95875C2.1069 8.21348 2.71629 9.38551 3.34613 10.5686C3.51576 10.8938 3.68538 11.2189 3.86014 11.5539C5.99464 16.2398 5.99464 16.2398 9.41938 19.6222C10.5449 19.7967 11.2584 19.8841 12.2707 19.3254C13.3244 18.464 13.9504 17.4783 14.5629 16.2319C15.1866 14.9816 15.8204 13.74 16.4743 12.5074C16.6371 12.2007 16.7998 11.8939 16.9674 11.5778C17.1309 11.2703 17.2944 10.9627 17.4628 10.6458C17.7962 10.0181 18.1295 9.39033 18.4626 8.76247C18.6075 8.48971 18.7525 8.21696 18.9018 7.93594C19.6318 6.5437 19.6804 5.45598 19.5415 3.87011C19.1569 2.82061 18.8394 2.44061 17.9577 1.82916C16.6016 1.25698 15.4181 1.26614 13.9732 1.27613C13.6902 1.27525 13.4072 1.27436 13.1157 1.27345C12.5194 1.27282 11.9232 1.27451 11.3269 1.2784C10.4155 1.28336 9.50443 1.27843 8.59301 1.27251C8.01253 1.27313 7.43205 1.27431 6.85158 1.27613C6.57982 1.27426 6.30806 1.27238 6.02806 1.27045C4.1267 1.29224 3.10486 1.58647 1.79167 3.13656Z" fill="#D9D9D9"/>
</svg>
