<svg width="31" height="34" viewBox="0 0 31 34" fill="none" xmlns="http://www.w3.org/2000/svg">
<path d="M19.4708 0.934404C20.3741 1.40307 21.2679 1.88003 22.16 2.36774C22.449 2.52237 22.738 2.677 23.0358 2.83632C23.9769 3.34136 24.9131 3.85389 25.848 4.36947C26.2968 4.61327 26.2968 4.61327 26.7547 4.86199C28.4274 5.80511 29.7737 6.64058 30.7654 8.29879C30.9448 9.3589 31.0189 10.2077 30.9959 11.2643C30.9929 11.5517 30.9899 11.8391 30.9868 12.1352C30.8215 16.8013 29.8431 23.4606 26.5828 27.1021C24.468 28.9193 22.3273 30.5547 19.9574 32.0477C19.5994 32.2743 19.5994 32.2743 19.2342 32.5055C17.9075 33.3092 16.7712 33.915 15.1937 34C12.027 33.0602 9.47434 30.8959 6.99799 28.8598C6.49326 28.4867 6.49326 28.4867 5.97833 28.106C1.37821 24.5609 0.912277 18.7965 0.246168 13.4545C-0.148997 9.22473 -0.148997 9.22473 0.851239 7.50798C2.21816 6.36471 3.64749 5.45205 5.20839 4.57489C5.63996 4.33202 6.07153 4.08915 6.51617 3.83892C6.96253 3.58993 7.40889 3.34094 7.86878 3.08441C8.31831 2.83083 8.76784 2.57726 9.23099 2.316C12.8743 0.273609 15.4669 -0.949518 19.4708 0.934404ZM11.9154 2.76314C11.6556 2.89344 11.3957 3.02373 11.128 3.15797C10.2988 3.58296 9.47997 4.02231 8.66273 4.46832C8.37587 4.62429 8.089 4.78026 7.79345 4.94095C5.62883 6.13516 3.44677 7.37596 1.67081 9.0896C1.55046 11.6934 1.85054 14.0362 2.41354 16.5775C2.48885 16.9242 2.56415 17.2708 2.64174 17.6279C4.13863 24.3941 6.88429 27.273 12.8374 31.2816C13.0677 31.4376 13.298 31.5935 13.5353 31.7542C14.8945 32.1897 15.8633 31.9536 17.2426 31.6276C18.2673 31.1098 19.1683 30.4764 20.0854 29.7988C20.4598 29.5263 20.4598 29.5263 20.8417 29.2483C21.3351 28.8868 21.8268 28.523 22.3164 28.1568C22.8626 27.7588 23.4324 27.3911 24.0072 27.0326C27.0426 24.9779 27.5515 21.49 28.3067 18.1839C28.4076 17.7465 28.5085 17.3092 28.6125 16.8587C28.8385 15.7185 28.9983 14.593 29.1263 13.439C29.2135 12.8144 29.2135 12.8144 29.3024 12.1771C29.3372 11.7617 29.3721 11.3463 29.408 10.9183C29.4611 10.3633 29.4611 10.3633 29.5153 9.797C28.858 7.93353 27.1394 7.27777 25.4382 6.32177C25.1126 6.12758 24.7869 5.93338 24.4513 5.7333C23.4728 5.15078 22.4852 4.58574 21.4941 4.02349C21.1634 3.83006 20.8327 3.63663 20.492 3.43734C17.4087 1.69138 15.2038 1.05882 11.9154 2.76314Z" fill="#D9D9D9"/>
</svg>
