<svg width="20" height="22" viewBox="0 0 20 22" fill="none" xmlns="http://www.w3.org/2000/svg">
<path d="M6.56913 0.050103C6.84948 0.0481242 7.12984 0.0461453 7.4187 0.0441066C8.01085 0.0411014 8.60302 0.0397019 9.19518 0.0397975C10.0981 0.0384985 11.0006 0.0276989 11.9034 0.0164288C12.4799 0.0146841 13.0563 0.0135044 13.6328 0.0129453C13.9013 0.00867336 14.1697 0.0044014 14.4463 0C16.1386 0.0121783 17.1462 0.255574 18.5246 1.33901C19.467 2.65265 19.9305 3.68229 19.9438 5.33781C19.9464 5.60479 19.9491 5.87177 19.9518 6.14684C19.953 6.43482 19.9541 6.72279 19.9553 7.01949C19.9569 7.3168 19.9585 7.61411 19.9601 7.92043C19.9627 8.55012 19.9645 9.17981 19.9655 9.8095C19.9682 10.7692 19.9767 11.7287 19.9854 12.6884C19.9872 13.3007 19.9887 13.913 19.9897 14.5253C19.9931 14.8109 19.9965 15.0965 20 15.3907C19.9935 17.5149 19.7272 18.9552 18.4042 20.6053C17.385 21.5458 16.6657 21.9226 15.3233 21.9364C15.0717 21.9402 14.8201 21.944 14.5609 21.9479C14.2908 21.9486 14.0207 21.9492 13.7424 21.9499C13.4623 21.9519 13.1822 21.9539 12.8936 21.9559C12.301 21.9589 11.7083 21.9603 11.1157 21.9602C10.2133 21.9615 9.31141 21.9723 8.40917 21.9836C7.83234 21.9853 7.25552 21.9865 6.67869 21.9871C6.41079 21.9913 6.14289 21.9956 5.86687 22C4.1905 21.988 2.85817 21.7399 1.47545 20.661C0.518375 19.3611 0.0694243 18.3138 0.0562089 16.6622C0.053567 16.3952 0.050925 16.1282 0.048203 15.8532C0.0470344 15.5652 0.0458657 15.2772 0.0446617 14.9805C0.0430942 14.6832 0.0415268 14.3859 0.0399119 14.0796C0.0373134 13.4499 0.0355165 12.8202 0.0344571 12.1905C0.0317935 11.2308 0.0232645 10.2713 0.0145851 9.31165C0.0127888 8.69932 0.0113453 8.087 0.0102885 7.47467C0.00689327 7.1891 0.00349808 6.90354 0 6.60932C0.006464 4.48878 0.279757 3.0574 1.57857 1.39475C3.13618 -0.00841003 4.62212 0.0548815 6.56913 0.050103ZM1.51727 3.14936C1.03306 4.47141 1.07734 5.7434 1.08123 7.15302C1.07979 7.4568 1.07835 7.76057 1.07686 8.07355C1.0751 8.71493 1.07546 9.35631 1.0778 9.99769C1.08014 10.977 1.07223 11.9558 1.0635 12.9351C1.06306 13.5592 1.06322 14.1834 1.06404 14.8075C1.06095 15.0992 1.05786 15.391 1.05468 15.6915C1.07063 17.391 1.20003 18.4557 2.3004 19.7692C3.53433 20.9333 4.90195 20.7951 6.45849 20.7899C6.72729 20.7914 6.99609 20.793 7.27304 20.7946C7.84046 20.7965 8.4079 20.7961 8.97532 20.7936C9.84143 20.7911 10.707 20.7996 11.5731 20.809C12.1254 20.8095 12.6777 20.8093 13.23 20.8085C13.6168 20.8135 13.6168 20.8135 14.0114 20.8186C15.5551 20.8009 16.5027 20.6311 17.6996 19.4719C18.8159 18.1144 18.6531 16.504 18.6535 14.782C18.6555 14.4716 18.6576 14.1612 18.6598 13.8414C18.6628 13.1861 18.6636 12.5307 18.6623 11.8753C18.662 10.8744 18.6735 9.87413 18.6857 8.87331C18.6871 8.23563 18.6878 7.59795 18.6878 6.96027C18.6923 6.66203 18.6968 6.36379 18.7015 6.05651C18.6894 4.72675 18.676 3.73074 17.8956 2.65978C16.8824 1.67337 16.1797 1.26721 14.8151 1.25265C14.4516 1.24696 14.4516 1.24696 14.0807 1.24115C13.8209 1.24049 13.5611 1.23983 13.2934 1.23915C12.8896 1.23618 12.8896 1.23618 12.4776 1.23315C11.9086 1.23014 11.3395 1.22875 10.7704 1.22884C9.90192 1.22754 9.03378 1.21675 8.16533 1.20547C7.61178 1.20373 7.05823 1.20255 6.50468 1.20199C6.24597 1.19772 5.98726 1.19345 5.72071 1.18905C3.85925 1.203 2.7895 1.59382 1.51727 3.14936Z" fill="#D9D9D9"/>
</svg>
