<svg width="27" height="17" viewBox="0 0 27 17" fill="none" xmlns="http://www.w3.org/2000/svg">
<path d="M12.2922 0.0197113C13.1368 0.0381614 13.9807 0.0438433 14.8254 0.0472999C15.3694 0.0526946 15.9133 0.0588006 16.4573 0.0656923C16.7061 0.0681936 16.955 0.0706949 17.2114 0.073272C20.0071 0.139753 22.3227 0.729208 24.4681 2.53947C26.264 4.64316 27.0527 6.54246 26.9973 9.26879C26.7577 11.5913 25.6912 13.6633 23.8595 15.1934C21.6899 16.5984 20.0177 17.0049 17.4188 16.9982C17.0563 16.9986 17.0563 16.9986 16.6865 16.999C16.1753 16.9992 15.664 16.9987 15.1528 16.9975C14.3783 16.9959 13.6038 16.9975 12.8293 16.9993C12.3307 16.9991 11.8321 16.9988 11.3335 16.9982C11.1052 16.9988 10.8769 16.9994 10.6417 17C7.35986 16.9862 4.92689 16.6598 2.37783 14.483C0.481611 12.469 -0.0861379 10.2521 0.010251 7.58588C0.182148 6.21853 0.592236 5.17434 1.34379 4.01086C1.46224 3.82688 1.58069 3.6429 1.70273 3.45334C4.33454 -0.00330096 8.26373 -0.0690126 12.2922 0.0197113ZM2.63812 4.35342C1.2557 6.31107 1.06655 8.1734 1.34379 10.485C1.88352 12.422 3.28882 13.8128 4.99499 14.8992C6.63647 15.578 8.16482 15.5825 9.91912 15.5866C10.2154 15.5885 10.5117 15.5905 10.8169 15.5925C11.4417 15.5955 12.0664 15.5969 12.6912 15.5968C13.6434 15.5981 14.5953 15.6088 15.5475 15.6199C16.1562 15.6216 16.7649 15.6228 17.3737 15.6234C17.6564 15.6276 17.9392 15.6318 18.2306 15.6362C20.493 15.6209 21.7127 15.0635 23.4602 13.6485C25.1838 11.6661 25.6206 10.0036 25.5366 7.38932C25.2227 5.32473 24.1592 3.77617 22.4523 2.52108C21.196 1.82352 20.2844 1.62234 18.8519 1.60455C18.4526 1.59888 18.4526 1.59888 18.0453 1.5931C17.6169 1.58984 17.6169 1.58984 17.1799 1.58651C16.8835 1.58414 16.5871 1.58176 16.2817 1.57932C15.6546 1.57525 15.0275 1.57209 14.4004 1.56977C13.7612 1.56638 13.1221 1.56037 12.483 1.55167C11.5574 1.53907 10.632 1.53435 9.70637 1.53134C9.42326 1.52618 9.14015 1.52103 8.84845 1.51572C6.19229 1.52419 4.27656 2.30675 2.63812 4.35342Z" fill="#DBDBDB"/>
</svg>
