<svg width="108" height="108" viewBox="0 0 108 108" fill="none" xmlns="http://www.w3.org/2000/svg">
<g clip-path="url(#clip0_55239_37739)">
<g clip-path="url(#clip1_55239_37739)">
<path d="M71.3454 3.02921C71.6878 3.14304 72.0303 3.25687 72.3831 3.37416C82.4656 6.80173 91.4806 13.8321 97.7159 22.4343C97.892 22.6765 97.892 22.6765 98.0717 22.9236C102.393 28.949 105.583 35.9392 106.974 43.2455C107.015 43.4624 107.057 43.6793 107.1 43.9027C108.212 50.0055 108.329 56.5312 107.254 62.6506C107.198 62.9839 107.198 62.9839 107.14 63.324C105.363 73.5977 100.68 83.2076 93.5079 90.7739C93.1669 91.1706 92.8278 91.5689 92.4909 91.9691C85.8865 99.5666 75.375 104.588 65.7346 106.804C65.4424 106.872 65.4424 106.872 65.1444 106.94C61.374 107.793 57.6691 107.996 53.8118 107.999C53.6148 108 53.4178 108 53.2149 108C47.2398 107.991 41.2963 107.051 35.7171 104.836C35.5401 104.768 35.3631 104.7 35.1808 104.629C29.9839 102.623 25.2905 100.048 20.8486 96.6798C20.5795 96.479 20.3105 96.2781 20.0333 96.0712C14.7603 91.9475 10.4026 86.7439 7.10223 80.9307C6.83698 80.4821 6.83698 80.4821 6.56636 80.0244C3.46009 74.5332 1.57046 68.5972 0.649864 62.3694C0.598444 62.0235 0.547025 61.6777 0.494047 61.3214C0.115938 58.6362 -0.0136516 55.9921 0.00112005 53.282C0.00172465 53.0801 0.00232925 52.8781 0.00295217 52.6701C0.0182893 49.4634 0.188915 46.3738 0.930401 43.2455C1.01401 42.8847 1.01401 42.8847 1.0993 42.5166C2.83406 35.2165 5.82323 28.529 10.1881 22.4343C10.3029 22.2732 10.4177 22.1121 10.5359 21.9461C13.69 17.5797 17.6034 13.759 21.9707 10.6225C22.1302 10.5064 22.2896 10.3904 22.4539 10.2708C28.702 5.76573 36.005 2.52279 43.5721 1.06058C43.7752 1.01934 43.9782 0.978102 44.1875 0.935615C53.0658 -0.804779 62.856 -0.122807 71.3454 3.02921ZM22.8518 20.4788C22.3653 20.9238 21.8734 21.3401 21.3571 21.7488C20.3251 22.6453 19.4698 23.6275 18.6043 24.6841C18.3898 24.9448 18.1754 25.2055 17.9544 25.474C9.84189 35.5645 7.0365 48.1338 8.33164 60.8951C9.13702 66.4056 11.2069 71.5582 13.8351 76.431C13.9935 76.7283 14.1519 77.0256 14.3151 77.3318C18.5421 84.9315 25.2458 90.8322 32.8591 94.8518C33.1199 94.9902 33.3807 95.1286 33.6494 95.2712C35.2574 96.0961 36.8655 96.7291 38.5874 97.2743C39.2411 97.4841 39.8739 97.7149 40.5114 97.9684C48.3036 100.924 58.3976 100.75 66.2957 98.3672C66.5369 98.2964 66.7782 98.2256 67.0268 98.1527C74.231 95.984 80.4019 92.1689 85.9333 87.1179C86.1427 86.9283 86.3521 86.7387 86.5678 86.5433C92.6389 80.7535 97.1474 72.2428 98.8381 64.0568C98.9189 63.6995 98.9189 63.6995 99.0014 63.335C101.436 52.1156 99.2654 39.6225 93.1221 29.9573C87.4757 21.3573 79.7867 14.9489 70.2232 11.185C70.0318 11.1092 69.8404 11.0334 69.6432 10.9554C53.6804 4.78396 35.2433 9.01832 22.8518 20.4788Z" fill="#0072EF"/>
<path d="M49.9994 37.0771C51.6168 37.911 52.5908 39.4605 53.4708 40.9938C53.6625 41.3203 53.8545 41.6466 54.0469 41.9727C54.1478 42.1438 54.2486 42.3149 54.3525 42.4912C54.9201 43.4425 55.5082 44.381 56.0964 45.3197C56.261 45.5831 56.261 45.5831 56.4289 45.8518C56.6503 46.205 56.8745 46.5566 57.1012 46.9064C57.4497 47.4711 57.4497 47.4711 57.7841 48.129C58.8856 50.2208 60.3855 50.8082 62.5505 51.5656C63.0131 51.737 63.4748 51.9107 63.9365 52.0846C64.2214 52.1909 64.5071 52.2952 64.7936 52.3973C67.5535 53.3863 67.5535 53.3863 68.1834 54.3185C68.4352 55.1646 68.485 55.9016 68.0793 56.7012C67.582 57.3387 67.2809 57.5803 66.5178 57.8347C65.3165 57.9491 64.3884 57.5918 63.2857 57.1725C63.1021 57.1044 62.9185 57.0364 62.7293 56.9662C62.3421 56.8222 61.9553 56.6772 61.5688 56.5312C60.9808 56.3092 60.3917 56.0903 59.8024 55.872C59.4251 55.7312 59.0478 55.5903 58.6707 55.4491C58.4961 55.3841 58.3216 55.3191 58.1419 55.2521C55.3018 54.1764 55.3018 54.1764 54.5812 53.289C54.4262 53.0998 54.4262 53.0998 54.2682 52.9066C53.6474 52.0929 53.0442 51.2675 52.4529 50.4321C52.095 51.6304 52.032 52.7135 52.0481 53.9599C52.0482 54.1366 52.0483 54.3132 52.0485 54.4952C52.0543 55.442 52.1188 56.3426 52.2679 57.2795C52.2878 57.7754 52.2766 58.2634 52.2679 58.76C52.3776 58.7581 52.4873 58.7562 52.6003 58.7543C53.8018 58.7429 54.9813 58.8136 56.1773 58.9219C56.5706 58.9562 56.9639 58.9904 57.3571 59.0246C57.5566 59.0422 57.756 59.0598 57.9615 59.0779C58.7244 59.1445 59.4876 59.2073 60.2508 59.2697C60.8021 59.315 61.3531 59.362 61.9042 59.4092C62.647 59.4723 63.39 59.5282 64.1337 59.5798C64.4966 59.6072 64.8595 59.6347 65.2224 59.6622C65.4693 59.6772 65.4693 59.6772 65.7213 59.6926C67.0401 59.7974 68.1872 60.136 69.0856 61.1543C69.7278 62.0798 69.9167 62.9158 70.0275 64.0235C70.0419 64.156 70.0563 64.2885 70.0712 64.425C70.1018 64.7077 70.1319 64.9904 70.1615 65.2731C70.2387 66.0087 70.3203 66.7439 70.402 67.479C70.4179 67.623 70.4339 67.767 70.4503 67.9154C70.5736 69.0159 70.7189 70.1114 70.89 71.2056C70.9126 71.3506 70.9352 71.4957 70.9586 71.6451C71.0011 71.9156 71.0438 72.186 71.0868 72.4565C71.4213 74.5943 71.6465 76.7458 71.8749 78.897C71.8975 79.1058 71.92 79.3147 71.9432 79.5298C71.9632 79.7176 71.9831 79.9054 72.0036 80.0989C72.0603 80.5262 72.1478 80.9215 72.2548 81.3378C72.3652 82.8072 72.4564 84.1983 71.5145 85.4092C70.6503 86.2513 69.7864 86.5739 68.5882 86.6006C67.4615 86.5771 66.797 86.3398 65.9626 85.5943C64.7901 84.1799 64.6828 82.4534 64.4207 80.6952C64.3683 80.3601 64.3157 80.0251 64.2628 79.6901C64.153 78.9903 64.0454 78.2902 63.9396 77.5897C63.8043 76.694 63.6651 75.7989 63.5246 74.9041C63.3901 74.0471 63.2576 73.1899 63.1252 72.3326C63.1 72.1702 63.0747 72.0079 63.0487 71.8407C62.9773 71.379 62.9073 70.9171 62.8376 70.4552C62.8166 70.3202 62.7955 70.1853 62.7739 70.0463C62.6531 69.2331 62.6124 68.4621 62.6315 67.6431C62.4381 67.6443 62.2447 67.6456 62.0455 67.6468C60.2186 67.6581 58.3917 67.6664 56.5648 67.6719C55.6256 67.6747 54.6865 67.6787 53.7474 67.685C52.8403 67.691 51.9331 67.6943 51.026 67.6958C50.6808 67.6968 50.3355 67.6988 49.9903 67.7018C49.5049 67.7058 49.0196 67.7064 48.5341 67.7061C48.393 67.7081 48.2519 67.7101 48.1065 67.7122C46.4042 67.7025 44.9984 67.1344 43.7549 65.9775C42.2878 64.434 42.0219 62.4844 41.6961 60.4487C41.6648 60.2638 41.6336 60.079 41.6014 59.8885C41.2276 57.6074 41.12 55.3433 41.1178 53.0346C41.1176 52.9008 41.1174 52.7669 41.1172 52.629C41.1193 50.378 41.2686 48.1996 41.7192 45.9906C41.7469 45.8525 41.7747 45.7145 41.8032 45.5723C41.9927 44.6547 42.2146 43.7488 42.4595 42.8445C42.4943 42.7139 42.5291 42.5833 42.565 42.4488C43.1594 40.2629 43.7835 38.5521 45.7812 37.3099C46.9813 36.6699 48.7101 36.6841 49.9994 37.0771Z" fill="#0072EF"/>
<path d="M36.1673 47.2859C37.1063 47.8621 37.3482 48.4741 37.5981 49.5159C37.64 49.7267 37.6818 49.9375 37.725 50.1547C37.7603 50.3306 37.7603 50.3306 37.7963 50.51C37.8739 50.8978 37.9503 51.2859 38.0266 51.6739C38.0814 51.9493 38.1363 52.2247 38.1913 52.5001C38.3365 53.2285 38.4806 53.9571 38.6245 54.6858C38.7666 55.4047 38.9099 56.1233 39.0531 56.842C39.3063 58.1136 39.5574 59.3856 39.8074 60.6578C39.9709 61.4891 40.1364 62.3201 40.3035 63.1508C40.4093 63.6777 40.5139 64.2048 40.6183 64.732C40.6904 65.0941 40.7639 65.456 40.8375 65.8178C40.9022 66.1464 40.9022 66.1464 40.9683 66.4817C41.0063 66.6711 41.0442 66.8606 41.0834 67.0558C41.1795 67.7554 41.1769 68.4177 41.164 69.1235C41.3799 69.1218 41.5958 69.1202 41.8182 69.1185C43.8523 69.1035 45.8864 69.0924 47.9206 69.0851C48.9663 69.0812 50.0121 69.076 51.0579 69.0676C52.067 69.0596 53.0761 69.0552 54.0853 69.0532C54.4704 69.0519 54.8555 69.0492 55.2405 69.0452C55.7798 69.0398 56.3188 69.0391 56.8581 69.0394C57.0174 69.0368 57.1768 69.0341 57.3409 69.0314C58.0935 69.0365 58.4664 69.0643 59.1175 69.4757C59.7701 70.1641 59.7 70.7671 59.7032 71.6712C59.7044 71.8196 59.7056 71.968 59.7069 72.1209C59.7105 72.6131 59.7127 73.1053 59.7145 73.5975C59.7153 73.7655 59.716 73.9335 59.7168 74.1065C59.7207 74.9955 59.7233 75.8846 59.7251 76.7736C59.7271 77.6921 59.7335 78.6106 59.7408 79.5291C59.7457 80.2352 59.7472 80.9412 59.7479 81.6472C59.7488 81.9858 59.7509 82.3244 59.7544 82.663C59.7589 83.137 59.7587 83.6109 59.7574 84.085C59.761 84.2946 59.761 84.2946 59.7646 84.5084C59.7579 85.1881 59.6906 85.563 59.318 86.1396C58.8187 86.6287 58.6501 86.6944 57.947 86.774C57.2646 86.7046 57.2646 86.7046 56.7658 86.3195C56.2357 85.6481 56.2267 85.3156 56.2342 84.468C56.2341 84.3377 56.234 84.2073 56.2339 84.073C56.2346 83.6534 56.2416 83.2342 56.2489 82.8146C56.2503 82.5546 56.2512 82.2947 56.2517 82.0347C56.2566 81.0736 56.2695 80.1126 56.2814 79.1516C56.3005 77.0027 56.3196 74.8537 56.3393 72.6397C51.4536 72.6397 46.5679 72.6397 41.5341 72.6397C41.5561 76.8005 41.5561 76.8005 41.5842 80.9612C41.5867 81.7676 41.5867 81.7676 41.5871 82.1456C41.588 82.4085 41.5899 82.6714 41.5928 82.9343C41.5968 83.3335 41.5974 83.7326 41.5972 84.1319C41.5984 84.3567 41.5996 84.5815 41.6009 84.8131C41.5272 85.4711 41.377 85.8104 40.979 86.3344C40.2849 86.7972 39.9503 86.8038 39.1283 86.7046C38.5029 86.2224 38.2321 85.9544 38.1009 85.1658C38.1069 84.9312 38.1129 84.6967 38.1191 84.4551C38.121 84.3242 38.1229 84.1933 38.1248 84.0585C38.1293 83.7733 38.1358 83.4881 38.1441 83.2029C38.1615 82.5816 38.1669 81.9602 38.1731 81.3386C38.1783 80.8361 38.185 80.3336 38.1918 79.8311C38.2572 74.3511 38.0457 69.0952 36.8613 63.7335C36.8345 63.6121 36.8077 63.4908 36.7801 63.3658C36.5036 62.1218 36.2106 60.8821 35.9093 59.6439C35.4801 57.8653 35.1365 56.0702 34.788 54.2745C34.59 53.2743 34.3757 52.2776 34.1594 51.2812C33.6145 48.7261 33.6145 48.7261 34.1535 47.8902C34.7858 47.3067 35.3334 47.1262 36.1673 47.2859Z" fill="#0072EF"/>
<path d="M55.0438 23.968C56.4876 24.9313 57.5052 26.1833 58.0048 27.8544C58.3264 30.0547 57.8502 31.7107 56.5431 33.5234C56.1403 33.9771 55.7747 34.2477 55.252 34.5514C55.0998 34.6418 54.9476 34.7322 54.7908 34.8254C53.2273 35.6164 51.4787 35.7663 49.7947 35.2519C48.1312 34.4888 46.7738 33.2284 46.0906 31.5036C45.6453 29.5544 45.8887 27.7444 46.8316 26.0037C48.9789 23.2913 51.8616 22.4003 55.0438 23.968Z" fill="#0072EF"/>
</g>
</g>
<defs>
<clipPath id="clip0_55239_37739">
<rect width="108" height="108" fill="white"/>
</clipPath>
<clipPath id="clip1_55239_37739">
<rect width="108" height="108" fill="white"/>
</clipPath>
</defs>
</svg>
