<svg width="41" height="41" viewBox="0 0 41 41" fill="none" xmlns="http://www.w3.org/2000/svg">
<path d="M20.4993 34.1667C20.0153 34.1667 19.6099 34.0027 19.283 33.6747C18.9562 33.3467 18.7922 32.9413 18.791 32.4584V25.6251C18.791 25.141 18.955 24.7356 19.283 24.4087C19.611 24.0819 20.0165 23.9179 20.4993 23.9167H24.7702C25.2542 23.9167 25.6602 24.0807 25.9882 24.4087C26.3162 24.7367 26.4797 25.1422 26.4785 25.6251V32.4584C26.4785 32.9424 26.3145 33.3484 25.9865 33.6764C25.6585 34.0044 25.2531 34.1679 24.7702 34.1667H20.4993ZM21.3535 31.6042H23.916V26.4792H21.3535V31.6042ZM35.4473 37.5834H30.7493C30.2653 37.5834 29.8599 37.4194 29.533 37.0914C29.2062 36.7634 29.0422 36.358 29.041 35.8751V32.8855C29.041 32.4015 29.205 31.996 29.533 31.6691C29.861 31.3423 30.2665 31.1783 30.7493 31.1771H34.166V29.8959H30.3223C29.9521 29.8959 29.6463 29.7746 29.4049 29.532C29.1634 29.2894 29.0422 28.9836 29.041 28.6146C29.0399 28.2456 29.1612 27.9399 29.4049 27.6973C29.6486 27.4547 29.9544 27.3334 30.3223 27.3334H35.0202C35.5042 27.3334 35.9102 27.4974 36.2382 27.8254C36.5662 28.1534 36.7297 28.5588 36.7285 29.0417V32.0313C36.7285 32.5153 36.5645 32.9214 36.2365 33.2494C35.9085 33.5774 35.5031 33.7408 35.0202 33.7396H31.6035V35.0209H35.4473C35.8174 35.0209 36.1238 35.1422 36.3663 35.3848C36.6089 35.6274 36.7297 35.9331 36.7285 36.3021C36.7274 36.6712 36.6061 36.9775 36.3646 37.2212C36.1232 37.465 35.8174 37.5857 35.4473 37.5834ZM17.0827 4.01465C17.3105 4.01465 17.5172 4.05052 17.7028 4.12227C17.8884 4.19402 18.0661 4.30051 18.2358 4.44173C19.2608 5.35284 20.3074 6.3209 21.3757 7.3459C22.444 8.3709 23.469 9.44601 24.4507 10.5712C25.4324 11.6965 26.3436 12.8638 27.1841 14.0733C28.0246 15.2828 28.7432 16.5282 29.34 17.8094C29.5393 18.2365 29.5467 18.6636 29.3622 19.0907C29.1777 19.5178 28.8571 19.8025 28.4004 19.9449C27.9437 20.0872 27.5092 20.0587 27.0969 19.8594C26.6847 19.6601 26.3646 19.3469 26.1368 18.9199C25.6528 17.8949 25.0623 16.8909 24.3653 15.9081C23.6683 14.9252 22.9138 13.9646 22.1018 13.0261C21.2897 12.0877 20.4566 11.1908 19.6025 10.3355C18.7483 9.48018 17.9084 8.68295 17.0827 7.94382C13.6945 11.0473 11.1394 13.9087 9.41739 16.5282C7.69539 19.1476 6.83382 21.4966 6.83268 23.5751C6.83268 25.8813 7.44483 27.974 8.66914 29.8532C9.89345 31.7324 11.6303 33.0136 13.8796 33.6969C14.3636 33.8393 14.748 34.1172 15.0327 34.5306C15.3174 34.944 15.3743 35.3779 15.2035 35.8324C15.0042 36.3164 14.6557 36.6581 14.158 36.8574C13.6603 37.0567 13.1404 37.0709 12.5983 36.9001C9.72261 35.989 7.47331 34.2738 5.85039 31.7546C4.22747 29.2353 3.41602 26.5088 3.41602 23.5751C3.41602 21.7244 3.82886 19.8947 4.65456 18.0862C5.48025 16.2776 6.51949 14.5562 7.77227 12.9219C9.02504 11.2876 10.3849 9.74212 11.8518 8.28548C13.3187 6.82884 14.6779 5.54759 15.9296 4.44173C16.1004 4.29937 16.2786 4.19288 16.4643 4.12227C16.6499 4.05166 16.856 4.01579 17.0827 4.01465Z" fill="#0072EF"/>
</svg>
