<svg width="112" height="113" viewBox="0 0 112 113" fill="none" xmlns="http://www.w3.org/2000/svg">
<g clip-path="url(#clip0_55239_37755)">
<path d="M53.0716 0.000864252C53.264 0.000656147 53.4565 0.000448044 53.6548 0.000233632C54.0591 8.67234e-05 54.4635 0.000480236 54.8678 0.0013953C55.4767 0.002555 56.0856 0.00140535 56.6946 1.45751e-05C59.8773 -0.00169826 62.9518 0.14698 66.0852 0.750279C66.3431 0.799401 66.601 0.848522 66.8667 0.899132C68.6385 1.24406 70.3534 1.63191 72.0669 2.20493C72.2426 2.26174 72.4183 2.31856 72.5993 2.37709C83.1742 5.80921 93.1717 12.1299 99.9091 21.1289C100.145 21.4348 100.381 21.7407 100.617 22.0466C107.996 31.7259 112.033 43.454 111.958 55.6254C111.954 56.301 111.958 56.9763 111.962 57.6519C111.965 60.5384 111.726 63.3137 111.22 66.155C111.149 66.5605 111.149 66.5605 111.076 66.9743C108.634 79.9043 101.416 92.1938 90.9909 100.305C90.678 100.558 90.678 100.558 90.3588 100.817C85.7324 104.497 80.4861 107.29 74.9276 109.268C74.4955 109.428 74.0749 109.602 73.6533 109.788C68.1797 112.125 61.5715 112.619 55.6988 112.581C55.3645 112.58 55.3645 112.58 55.0234 112.579C51.5724 112.563 48.2498 112.409 44.8773 111.616C44.5303 111.536 44.5303 111.536 44.1764 111.454C35.8819 109.476 28.3216 105.993 21.6029 100.74C21.4047 100.589 21.2064 100.437 21.0022 100.281C17.8428 97.8233 14.9362 94.9663 12.4672 91.822C12.2551 91.5611 12.043 91.3003 11.8308 91.0395C7.50735 85.6444 4.6731 79.6166 2.4614 73.1156C2.32008 72.7088 2.32008 72.7088 2.17591 72.2939C1.54455 70.3777 1.18322 68.4015 0.812285 66.4217C0.736342 66.0177 0.657378 65.6143 0.577668 65.211C0.172306 63.1181 0.034806 61.027 0.0245283 58.8979C0.0232884 58.6906 0.0220486 58.4832 0.0207711 58.2696C0.0187313 57.8329 0.0173007 57.3962 0.0164564 56.9595C0.0143637 56.3086 0.00760793 55.6578 0.000737351 55.0068C-0.0420243 47.1716 1.77661 39.5315 5.07161 32.4398C5.17791 32.2092 5.17791 32.2092 5.28636 31.974C7.14356 27.9882 9.47553 24.3181 12.2497 20.9114C12.3538 20.7821 12.4579 20.6528 12.5652 20.5196C15.0925 17.4003 17.956 14.4074 21.1679 11.9932C21.3115 11.8824 21.4551 11.7716 21.603 11.6574C24.0988 9.73252 26.6592 8.05016 29.4335 6.55527C29.5759 6.4775 29.7184 6.39972 29.8651 6.31959C36.8604 2.53144 45.07 -0.0188123 53.0716 0.000864252ZM44.0208 6.4873C43.697 6.57071 43.697 6.57071 43.3666 6.6558C36.7571 8.41445 30.4392 11.4185 25.0832 15.691C24.8855 15.8469 24.6878 16.0028 24.4842 16.1634C22.9541 17.391 21.5063 18.6959 20.0803 20.0413C19.801 20.3029 19.801 20.3029 19.5161 20.5698C18.0194 22.0145 16.7546 23.5994 15.5124 25.2618C15.4182 25.3875 15.3239 25.5132 15.2267 25.6427C13.9049 27.417 12.7088 29.2488 11.6096 31.1689C11.3918 31.5485 11.1696 31.9254 10.9471 32.3022C7.03037 39.2252 5.2407 47.2146 5.26077 55.1141C5.26193 55.6557 5.26078 56.1973 5.25939 56.7389C5.25756 59.7764 5.34368 62.7426 6.00965 65.72C6.08357 66.0588 6.08357 66.0588 6.15898 66.4044C6.30093 67.0471 6.44688 67.6887 6.59423 68.3302C6.62868 68.485 6.66314 68.6397 6.69863 68.7992C7.562 72.6319 9.06437 76.4178 10.9332 79.8689C11.1765 80.3203 11.4118 80.7753 11.6473 81.2308C13.4198 84.5996 15.6337 87.6554 18.2594 90.4107C18.696 90.8689 19.1046 91.3361 19.5093 91.822C27.2602 100.688 39.7858 106.306 51.4015 107.233C52.6458 107.296 53.8898 107.298 55.1354 107.294C55.6006 107.293 56.0658 107.294 56.531 107.296C59.5925 107.298 62.5443 107.068 65.555 106.477C65.7014 106.449 65.8477 106.42 65.9985 106.391C77.3503 104.147 88.1742 97.6844 95.3413 88.5593C95.5134 88.3448 95.6856 88.1303 95.863 87.9093C99.4702 83.3405 102.075 78.367 104.042 72.898C104.106 72.7221 104.17 72.5461 104.236 72.3648C104.996 70.2364 105.523 68.0866 105.959 65.8695C106.004 65.6413 106.049 65.4131 106.095 65.178C108.544 51.9764 105.334 38.1584 97.8291 27.1378C96.1733 24.7524 94.2915 22.5813 92.296 20.4764C92.1931 20.3672 92.0902 20.2581 91.9842 20.1456C90.3331 18.4061 88.5648 16.9025 86.6406 15.4735C86.5155 15.3798 86.3904 15.2862 86.2615 15.1897C80.5787 10.9553 74.214 8.06815 67.3359 6.37854C67.1746 6.33874 67.0133 6.29894 66.8472 6.25794C63.4471 5.47794 60.0738 5.14124 56.5897 5.16509C55.9852 5.16859 55.381 5.1651 54.7764 5.16095C51.134 5.15648 47.5506 5.56647 44.0208 6.4873Z" fill="#0072EF"/>
<path d="M48.5266 37.1869C48.7809 37.1848 48.7809 37.1848 49.0404 37.1826C49.6012 37.1783 50.1619 37.1758 50.7227 37.1736C50.9151 37.1727 51.1076 37.1718 51.3058 37.1709C52.326 37.1664 53.3461 37.1633 54.3662 37.1612C55.4135 37.1588 56.4607 37.1514 57.5079 37.1427C58.3184 37.137 59.1289 37.1352 59.9394 37.1344C60.325 37.1334 60.7106 37.1309 61.0962 37.1268C64.5868 37.0923 67.466 37.5391 70.1089 40.0268C72.0138 42.0546 72.7874 44.4155 72.7797 47.145C72.7808 47.349 72.7819 47.5529 72.7831 47.763C72.7861 48.4334 72.7859 49.1038 72.7854 49.7743C72.7862 50.2421 72.7872 50.7098 72.7882 51.1775C72.7898 52.1563 72.7897 53.135 72.7886 54.1138C72.7873 55.3672 72.791 56.6205 72.7961 57.874C72.7993 58.8393 72.7995 59.8045 72.7988 60.7699C72.7989 61.232 72.8 61.6942 72.8022 62.1563C72.8049 62.8024 72.8034 63.4483 72.8009 64.0944C72.8026 64.2846 72.8042 64.4748 72.806 64.6708C72.7966 65.7634 72.673 66.5137 72.0674 67.4603C71.1058 68.3498 70.3574 68.6301 69.0357 68.6082C68.2771 68.5062 67.8467 68.1768 67.282 67.6778C66.719 66.7383 66.5462 66.0362 66.5354 64.9467C66.5311 64.6681 66.5268 64.3894 66.5224 64.1024C66.5209 63.8016 66.5195 63.5008 66.5181 63.2C66.5145 62.8898 66.5105 62.5795 66.5063 62.2693C66.496 61.4562 66.4895 60.643 66.4838 59.8298C66.4773 58.9987 66.4672 58.1676 66.4574 57.3364C66.4387 55.7082 66.4241 54.0799 66.4119 52.4516C66.1966 52.4516 65.9813 52.4516 65.7594 52.4516C65.7589 52.6554 65.7583 52.8591 65.7578 53.069C65.745 58.027 65.7285 62.9849 65.7081 67.9428C65.6983 70.3404 65.6898 72.738 65.684 75.1356C65.679 77.2254 65.6718 79.3152 65.6618 81.405C65.6566 82.5115 65.6525 83.618 65.6511 84.7245C65.6498 85.7662 65.6455 86.8079 65.6388 87.8497C65.6369 88.2317 65.6361 88.6138 65.6365 88.9958C65.6368 89.5183 65.6332 90.0406 65.6286 90.563C65.6297 90.7135 65.6307 90.8639 65.6318 91.0189C65.6122 92.367 65.2575 93.3421 64.3863 94.3781C63.1239 95.435 62.1282 95.6418 60.5041 95.5957C59.352 95.4546 58.7251 94.8386 57.9831 94.011C57.0648 92.7611 56.9945 91.7677 56.9962 90.2638C56.9948 90.0649 56.9933 89.866 56.9917 89.6611C56.9888 89.2304 56.9868 88.7997 56.9857 88.369C56.9839 87.688 56.9794 87.0071 56.9743 86.3262C56.962 84.636 56.9543 82.9457 56.9465 81.2554C56.9397 79.8256 56.9312 78.3957 56.9204 76.9659C56.916 76.2937 56.9142 75.6216 56.9125 74.9495C56.9097 74.5396 56.9067 74.1297 56.9036 73.7197C56.9038 73.5318 56.9041 73.3439 56.9043 73.1503C56.9381 72.1593 56.9381 72.1593 56.4061 71.3756C55.732 71.4457 55.732 71.4457 55.101 71.5932C55.1002 71.8482 55.0995 72.1032 55.0986 72.3659C55.0906 74.7726 55.078 77.1792 55.061 79.5858C55.0525 80.823 55.0455 82.0601 55.0421 83.2973C55.0388 84.492 55.0313 85.6865 55.0209 86.8811C55.0177 87.3362 55.016 87.7913 55.0158 88.2464C55.0153 88.8853 55.0094 89.524 55.0023 90.1628C55.0039 90.4433 55.0039 90.4433 55.0056 90.7294C54.9805 92.1895 54.5976 93.3479 53.6107 94.4452C53.4834 94.5442 53.3561 94.6432 53.225 94.7452C53.0965 94.8481 52.9681 94.951 52.8358 95.057C51.7768 95.8108 50.4714 95.6669 49.2281 95.5201C47.9718 95.0309 47.1792 94.3075 46.5874 93.0836C46.1488 91.6559 46.2769 90.0843 46.2816 88.6033C46.2797 88.2087 46.2774 87.8141 46.2748 87.4196C46.2687 86.3519 46.268 85.2842 46.2682 84.2165C46.2675 83.0994 46.2619 81.9824 46.2569 80.8653C46.2481 78.7515 46.2437 76.6377 46.2408 74.5239C46.2374 72.1167 46.229 69.7096 46.2202 67.3024C46.2023 62.3522 46.1905 57.4019 46.1828 52.4516C45.9675 52.4516 45.7521 52.4516 45.5303 52.4516C45.5295 52.6231 45.5287 52.7946 45.5279 52.9714C45.5196 54.5907 45.5072 56.21 45.4903 57.8293C45.4817 58.6617 45.4747 59.4941 45.4713 60.3265C45.468 61.1305 45.4605 61.9344 45.4502 62.7383C45.4469 63.0444 45.4452 63.3505 45.445 63.6566C45.4445 64.0867 45.4381 64.5167 45.4315 64.9467C45.4296 65.1911 45.4276 65.4355 45.4256 65.6873C45.2494 66.7575 44.6247 67.641 43.7901 68.3304C42.7518 68.6765 41.7998 68.7217 40.7993 68.2896C40.0368 67.6754 39.5331 67.0877 39.2223 66.1552C39.199 65.4948 39.1881 64.8393 39.1872 64.1788C39.1861 63.9764 39.1851 63.774 39.184 63.5655C39.1808 62.8945 39.1793 62.2235 39.1781 61.5525C39.1768 61.0856 39.1756 60.6187 39.1743 60.1518C39.1721 59.1715 39.1708 58.1912 39.17 57.2109C39.1688 55.9586 39.1636 54.7062 39.1574 53.4539C39.1533 52.4885 39.1522 51.5232 39.1519 50.5578C39.1512 50.0964 39.1495 49.635 39.1466 49.1736C39.1429 48.5255 39.1433 47.8775 39.1447 47.2295C39.1427 47.041 39.1407 46.8526 39.1387 46.6584C39.1565 44.0118 40.1801 41.7521 41.9412 39.7949C43.7394 38.0804 46.0753 37.1959 48.5266 37.1869Z" fill="#0072EF"/>
<path d="M61.1514 18.6819C63.0097 20.0261 64.168 21.7907 64.89 23.9567C65.1425 26.8124 65.0376 29.3742 63.2994 31.7466C61.8231 33.5055 59.8623 35.0702 57.4896 35.3126C56.9963 35.3338 56.5063 35.3392 56.0126 35.3356C55.8382 35.3344 55.6638 35.3332 55.4841 35.3319C52.9656 35.2801 51.1876 34.3168 49.3103 32.6574C47.4295 30.6931 46.7575 28.1439 46.7902 25.4981C46.9547 23.0913 48.1642 20.9181 49.9153 19.2861C53.2061 16.56 57.5396 16.4565 61.1514 18.6819Z" fill="#0072EF"/>
</g>
<defs>
<clipPath id="clip0_55239_37755">
<rect width="111.962" height="112.583" fill="white"/>
</clipPath>
</defs>
</svg>
