<svg width="49" height="48" viewBox="0 0 49 48" fill="none" xmlns="http://www.w3.org/2000/svg">
<path fill-rule="evenodd" clip-rule="evenodd" d="M17.5001 8H13.5C11.8431 8 10.5 9.34315 10.5 11V35C10.5 36.6569 11.8431 38 13.5 38H30.5C32.1569 38 33.5 36.6569 33.5 35V11C33.5 9.34315 32.1569 8 30.5 8H29.5001V10H30.5C31.0523 10 31.5 10.4477 31.5 11V35C31.5 35.5523 31.0523 36 30.5 36H13.5C12.9477 36 12.5 35.5523 12.5 35V11C12.5 10.4477 12.9477 10 13.5 10H17.5001V8ZM19.5001 10H27.5001V8H19.5001V10Z" fill="#0072EF"/>
<path fill-rule="evenodd" clip-rule="evenodd" d="M14.5 19C14.5 18.4477 14.9477 18 15.5 18H28.5C29.0523 18 29.5 18.4477 29.5 19C29.5 19.5523 29.0523 20 28.5 20H15.5C14.9477 20 14.5 19.5523 14.5 19Z" fill="#0072EF"/>
<path fill-rule="evenodd" clip-rule="evenodd" d="M14.5 24C14.5 23.4477 14.9477 23 15.5 23H22.5C23.0523 23 23.5 23.4477 23.5 24C23.5 24.5523 23.0523 25 22.5 25H15.5C14.9477 25 14.5 24.5523 14.5 24Z" fill="#0072EF"/>
<path fill-rule="evenodd" clip-rule="evenodd" d="M14.5 29C14.5 28.4477 14.9477 28 15.5 28H26.5C27.0523 28 27.5 28.4477 27.5 29C27.5 29.5523 27.0523 30 26.5 30H15.5C14.9477 30 14.5 29.5523 14.5 29Z" fill="#0072EF"/>
<path fill-rule="evenodd" clip-rule="evenodd" d="M8.5 10V35C8.5 37.7614 10.7386 40 13.5 40H30.5V42H13.5C9.63401 42 6.5 38.866 6.5 35V10H8.5Z" fill="#0072EF"/>
<path fill-rule="evenodd" clip-rule="evenodd" d="M36.5 13C36.5 11.3431 37.8431 10 39.5 10C41.1569 10 42.5 11.3431 42.5 13V33.3028L39.5 37.8028L36.5 33.3028V13ZM39.5 12C38.9477 12 38.5 12.4477 38.5 13V32.6972L39.5 34.1972L40.5 32.6972V13C40.5 12.4477 40.0523 12 39.5 12Z" fill="#0072EF"/>
<path fill-rule="evenodd" clip-rule="evenodd" d="M41.5 17H37.5V15H41.5V17Z" fill="#0072EF"/>
<path fill-rule="evenodd" clip-rule="evenodd" d="M26.5 6C27.0523 6 27.5 6.44772 27.5 7V11C27.5 11.5523 27.0523 12 26.5 12C25.9477 12 25.5 11.5523 25.5 11V7C25.5 6.44772 25.9477 6 26.5 6Z" fill="#0072EF"/>
<path fill-rule="evenodd" clip-rule="evenodd" d="M16.5 6C17.0523 6 17.5 6.44772 17.5 7V11C17.5 11.5523 17.0523 12 16.5 12C15.9477 12 15.5 11.5523 15.5 11V7C15.5 6.44772 15.9477 6 16.5 6Z" fill="#0072EF"/>
</svg>
