<svg width="35" height="35" viewBox="0 0 35 35" fill="currentColor" xmlns="http://www.w3.org/2000/svg">
<g clip-path="url(#clip0_55195_19606)">
<path d="M17 11.75C17.4973 11.75 17.9742 11.5525 18.3258 11.2008C18.6775 10.8492 18.875 10.3723 18.875 9.875C18.875 9.37772 18.6775 8.90081 18.3258 8.54917C17.9742 8.19754 17.4973 8 17 8C16.5027 8 16.0258 8.19754 15.6742 8.54917C15.3225 8.90081 15.125 9.37772 15.125 9.875C15.125 10.3723 15.3225 10.8492 15.6742 11.2008C16.0258 11.5525 16.5027 11.75 17 11.75ZM14.5 16.4375V27.0625C14.5 27.3111 14.5988 27.5496 14.7746 27.7254C14.9504 27.9012 15.1889 28 15.4375 28C15.6861 28 15.9246 27.9012 16.1004 27.7254C16.2762 27.5496 16.375 27.3111 16.375 27.0625V21.125C16.375 20.9592 16.4408 20.8003 16.5581 20.6831C16.6753 20.5658 16.8342 20.5 17 20.5C17.1658 20.5 17.3247 20.5658 17.4419 20.6831C17.5592 20.8003 17.625 20.9592 17.625 21.125V27.0625C17.625 27.3111 17.7238 27.5496 17.8996 27.7254C18.0754 27.9012 18.3139 28 18.5625 28C18.8111 28 19.0496 27.9012 19.2254 27.7254C19.4012 27.5496 19.5 27.3111 19.5 27.0625V16.4375C19.5 16.3546 19.5329 16.2751 19.5915 16.2165C19.6501 16.1579 19.7296 16.125 19.8125 16.125C19.8954 16.125 19.9749 16.1579 20.0335 16.2165C20.0921 16.2751 20.125 16.3546 20.125 16.4375V19.5625C20.125 19.8111 20.2238 20.0496 20.3996 20.2254C20.5754 20.4012 20.8139 20.5 21.0625 20.5C21.3111 20.5 21.5496 20.4012 21.7254 20.2254C21.9012 20.0496 22 19.8111 22 19.5625V16.125C22 15.1304 21.6049 14.1766 20.9017 13.4733C20.1984 12.7701 19.2446 12.375 18.25 12.375H15.75C14.7554 12.375 13.8016 12.7701 13.0983 13.4733C12.3951 14.1766 12 15.1304 12 16.125V19.5625C12 19.8111 12.0988 20.0496 12.2746 20.2254C12.4504 20.4012 12.6889 20.5 12.9375 20.5C13.1861 20.5 13.4246 20.4012 13.6004 20.2254C13.7762 20.0496 13.875 19.8111 13.875 19.5625V16.4375C13.875 16.3546 13.9079 16.2751 13.9665 16.2165C14.0251 16.1579 14.1046 16.125 14.1875 16.125C14.2704 16.125 14.3499 16.1579 14.4085 16.2165C14.4671 16.2751 14.5 16.3546 14.5 16.4375Z" fill="#8F8F8F"/>
<g clip-path="url(#clip1_55195_19606)">
<path d="M20.9145 0.321709C20.9804 0.333027 21.0464 0.344345 21.1144 0.356005C24.3197 0.915462 27.2643 2.72043 29.6268 4.87228C29.6792 4.91985 29.7316 4.96742 29.7856 5.01643C32.4469 7.47962 34.078 10.8639 34.7802 14.3694C34.8063 14.499 34.8063 14.499 34.833 14.6312C34.9942 15.5332 35.0018 16.4287 34.9998 17.3419C34.9997 17.4229 34.9997 17.504 34.9997 17.5876C34.9966 18.8718 34.9167 20.098 34.5953 21.3473C34.5785 21.4153 34.5617 21.4832 34.5444 21.5533C34.4282 22.0124 34.2884 22.4606 34.1332 22.9081C34.1074 22.9826 34.0817 23.0571 34.0552 23.1339C32.6326 27.1843 29.9109 30.4717 26.1835 32.6405C26.123 32.6759 26.0625 32.7113 26.0002 32.7477C24.4039 33.6685 22.6385 34.3312 20.822 34.6604C20.7535 34.6739 20.6851 34.6873 20.6145 34.7012C16.9048 35.416 12.8349 34.8469 9.52816 33.009C9.35152 32.9114 9.17298 32.8182 8.99389 32.7251C7.61313 31.9961 6.41372 31.0552 5.29238 29.9779C5.24618 29.9343 5.19997 29.8908 5.15237 29.846C2.20412 27.0662 0.144823 22.8539 0.0118595 18.7914C0.00295737 18.3656 0.000644283 17.9399 0.0002821 17.514C0.000189007 17.4383 9.59141e-05 17.3626 0 17.2846C0.00097591 16.1107 0.0482987 14.9695 0.300707 13.8185C0.314068 13.757 0.327428 13.6954 0.341194 13.6321C0.432426 13.2289 0.545962 12.8354 0.67046 12.4413C0.688885 12.3822 0.70731 12.3232 0.726293 12.2624C2.14155 7.80178 5.30879 4.13891 9.45572 1.96003C10.205 1.5744 10.9633 1.23499 11.7631 0.964412C11.8601 0.931414 11.8601 0.931414 11.9592 0.897748C14.8592 -0.0714262 17.9097 -0.243569 20.9145 0.321709ZM13.167 2.76628C13.0908 2.78951 13.0146 2.81275 12.9361 2.83668C11.0714 3.42825 9.26258 4.35879 7.78822 5.64696C7.71612 5.70863 7.64403 5.77029 7.56976 5.83382C7.33026 6.04287 7.09641 6.25668 6.86383 6.47329C6.81721 6.51648 6.77059 6.55966 6.72256 6.60416C4.53022 8.65116 3.12974 11.2961 2.42679 14.1857C2.40192 14.2857 2.40192 14.2857 2.37655 14.3876C1.78261 16.8815 2.01898 19.8578 2.88898 22.2654C2.91326 22.3327 2.93754 22.4001 2.96255 22.4694C3.78627 24.716 5.00346 26.6123 6.67895 28.3252C6.72774 28.3758 6.77652 28.4264 6.82678 28.4785C8.52526 30.2109 10.8032 31.4599 13.115 32.1699C13.1964 32.1951 13.2777 32.2203 13.3616 32.2462C14.6993 32.6357 16.0024 32.7815 17.3903 32.7667C17.463 32.7663 17.5357 32.7658 17.6107 32.7653C18.7006 32.7573 19.7607 32.7247 20.822 32.4569C20.9022 32.4371 20.9824 32.4174 21.065 32.397C22.8359 31.946 24.602 31.2296 26.091 30.1615C26.1792 30.0997 26.2674 30.0379 26.3582 29.9743C27.0564 29.4711 27.6859 28.9145 28.3095 28.3252C28.3728 28.2683 28.4361 28.2113 28.5013 28.1527C31.0732 25.7588 32.7164 21.8709 32.8505 18.3866C32.8806 17.0252 32.894 15.698 32.5617 14.3694C32.5299 14.2304 32.4981 14.0915 32.4664 13.9526C31.7724 11.0364 30.2806 8.55982 28.1247 6.47329C28.0806 6.4243 28.0365 6.3753 27.9911 6.32481C26.1245 4.32122 23.2442 2.99685 20.5874 2.47821C20.4379 2.4488 20.2889 2.41682 20.1406 2.38205C19.3564 2.21211 18.5717 2.21885 17.7729 2.22083C17.5313 2.22112 17.2899 2.21897 17.0483 2.21664C15.7144 2.21157 14.4456 2.37411 13.167 2.76628Z" fill="#868686"/>
</g>
</g>
<defs>
<clipPath id="clip0_55195_19606">
<rect width="35" height="35" fill="white"/>
</clipPath>
<clipPath id="clip1_55195_19606">
<rect width="35" height="35" fill="white"/>
</clipPath>
</defs>
</svg>
