<svg width="65" height="64" viewBox="0 0 65 64" fill="none" xmlns="http://www.w3.org/2000/svg">
<path d="M30.6673 56H12.0007C11.2934 56 10.6151 55.7191 10.115 55.219C9.61494 54.7189 9.33398 54.0406 9.33398 53.3333V10.6667C9.33398 9.95942 9.61494 9.28115 10.115 8.78105C10.6151 8.28095 11.2934 8 12.0007 8H49.334C50.0412 8 50.7195 8.28095 51.2196 8.78105C51.7197 9.28115 52.0007 9.95942 52.0007 10.6667V26" stroke="#C9E3FF" stroke-width="5.33333" stroke-linecap="round" stroke-linejoin="round"/>
<path d="M48.8487 36.0001C52.062 36.0001 54.6673 38.5068 54.6673 41.6001C54.6673 45.6268 50.7873 49.0668 48.8487 50.9334C47.5553 52.1774 45.9407 53.4228 44.0007 54.6668C42.062 53.4228 40.4447 52.1774 39.1527 50.9334C37.2127 49.0668 33.334 45.6268 33.334 41.6001C33.334 38.5068 35.9393 36.0001 39.1527 36.0001C41.1753 36.0001 42.958 36.9948 44.0007 38.5041C44.5459 37.7257 45.2719 37.0912 46.1163 36.6551C46.9607 36.219 47.8983 35.9942 48.8487 36.0001Z" stroke="#C9E3FF" stroke-width="5.33333" stroke-linejoin="round"/>
<path d="M20.001 18.6665H41.3343" stroke="#C9E3FF" stroke-width="5.33333" stroke-linecap="round"/>
</svg>
