<svg width="41" height="40" viewBox="0 0 41 40" fill="none" xmlns="http://www.w3.org/2000/svg">
<path d="M5.5 20C5.5 21.9698 5.88799 23.9204 6.64181 25.7403C7.39563 27.5601 8.50052 29.2137 9.8934 30.6066C11.2863 31.9995 12.9399 33.1044 14.7597 33.8582C16.5796 34.612 18.5302 35 20.5 35C22.4698 35 24.4204 34.612 26.2403 33.8582C28.0601 33.1044 29.7137 31.9995 31.1066 30.6066C32.4995 29.2137 33.6044 27.5601 34.3582 25.7403C35.112 23.9204 35.5 21.9698 35.5 20C35.5 18.0302 35.112 16.0796 34.3582 14.2597C33.6044 12.4399 32.4995 10.7863 31.1066 9.3934C29.7137 8.00052 28.0601 6.89563 26.2403 6.14181C24.4204 5.38799 22.4698 5 20.5 5C18.5302 5 16.5796 5.38799 14.7597 6.14181C12.9399 6.89563 11.2863 8.00052 9.8934 9.3934C8.50052 10.7863 7.39563 12.4399 6.64181 14.2597C5.88799 16.0796 5.5 18.0302 5.5 20Z" stroke="#8E8E93" stroke-width="2" stroke-linecap="round" stroke-linejoin="round"/>
<path d="M10.7798 31.4153C11.1923 30.0424 12.0364 28.839 13.1869 27.9836C14.3373 27.1283 15.7329 26.6666 17.1665 26.667H23.8331C25.2686 26.6665 26.6658 27.1293 27.8171 27.9866C28.9684 28.8439 29.8122 30.05 30.2231 31.4253M15.4998 16.667C15.4998 17.9931 16.0266 19.2648 16.9643 20.2025C17.9019 21.1402 19.1737 21.667 20.4998 21.667C21.8259 21.667 23.0976 21.1402 24.0353 20.2025C24.973 19.2648 25.4998 17.9931 25.4998 16.667C25.4998 15.3409 24.973 14.0691 24.0353 13.1315C23.0976 12.1938 21.8259 11.667 20.4998 11.667C19.1737 11.667 17.9019 12.1938 16.9643 13.1315C16.0266 14.0691 15.4998 15.3409 15.4998 16.667Z" stroke="#8E8E93" stroke-width="2" stroke-linecap="round" stroke-linejoin="round"/>
</svg>
