<svg width="65" height="64" viewBox="0 0 65 64" fill="none" xmlns="http://www.w3.org/2000/svg">
<path d="M28.1519 43.1368C28.3457 42.9414 28.3452 42.6261 28.1506 42.4313L24.3668 38.6438C24.1722 38.4491 24.1717 38.1337 24.3655 37.9383L28.1462 34.1271C28.3423 33.9295 28.662 33.9301 28.8574 34.1284L32.602 37.93C32.7979 38.1289 33.1186 38.1289 33.3144 37.93L37.0672 34.1202C37.2594 33.925 37.2588 33.6116 37.066 33.4172L33.3075 29.6284C33.1142 29.4335 33.1142 29.1191 33.3075 28.9241L37.0603 25.141C37.2554 24.9444 37.5732 24.9438 37.769 25.1398L41.5465 28.9209C41.7423 29.1169 42.0601 29.1164 42.2552 28.9197L46.0079 25.1366C46.2013 24.9417 46.2013 24.6273 46.0079 24.4323L37.769 16.1269C37.5734 15.9297 37.2546 15.9297 37.0591 16.1269L15.4211 37.9396C15.2277 38.1345 15.2277 38.4489 15.4211 38.6438L23.66 46.9493C23.8556 47.1464 24.1744 47.1464 24.37 46.9493L28.1519 43.1368ZM3 55.1591C3 55.0269 3.05235 54.9001 3.14559 54.8064L12.5092 45.3974C12.7031 45.2026 12.7034 44.8878 12.5098 44.6926L6.50928 38.6436C6.31598 38.4488 6.3159 38.1345 6.5091 37.9396L37.0591 7.11181C37.2546 6.91447 37.5735 6.9144 37.7692 7.11163L43.7877 13.1787C43.9842 13.3768 44.3049 13.3757 44.5001 13.1762L48.2274 9.36503C48.4175 9.17071 48.4175 8.86015 48.2274 8.66583L44.4883 4.84263C44.2977 4.64781 44.2983 4.3363 44.4895 4.14216L48.2144 0.360379C48.4098 0.162027 48.7295 0.161458 48.9256 0.359114L61.6494 13.1857C61.8433 13.3811 61.8427 13.6965 61.6482 13.8912L57.8967 17.6462C57.7018 17.8412 57.386 17.8418 57.1905 17.6475L53.4092 13.8894C53.2142 13.6956 52.8993 13.6956 52.7043 13.8894L48.9237 17.6469C48.7279 17.8414 48.7268 18.1577 48.9212 18.3536L54.951 24.4322C55.1444 24.6272 55.1444 24.9417 54.9508 25.1366L24.37 55.9332C24.1744 56.1302 23.8557 56.1301 23.6602 55.933L17.6708 49.8953C17.4751 49.698 17.156 49.6982 16.9605 49.8957L3.85536 63.1358C3.54113 63.4533 3 63.2308 3 62.7841V55.1591Z" fill="#C9E3FF"/>
</svg>
