<svg width="48" height="48" viewBox="0 0 48 48" fill="none" xmlns="http://www.w3.org/2000/svg">
<path fill-rule="evenodd" clip-rule="evenodd" d="M22.336 20.6304C22.3763 20.2003 22.3635 19.7786 22.3033 19.3714H25.6967C25.6365 19.7786 25.6237 20.2003 25.664 20.6304L26.3857 28.3447C26.6328 30.9843 28.8107 33 31.4156 33H41.6842C44.4747 33 46.7368 30.6974 46.7368 27.8571V21.4286H48V15H30.6938C29.1483 15 27.7768 15.7025 26.8541 16.8H21.1459C20.2232 15.7025 18.8517 15 17.3061 15H0V21.4286H1.26316V27.8571C1.26316 30.6974 3.5253 33 6.31579 33H16.5844C19.1893 33 21.3672 30.9843 21.6143 28.3447L22.336 20.6304ZM6.31579 17.5714C4.92054 17.5714 3.78947 18.7227 3.78947 20.1429V27.8571C3.78947 29.2773 4.92054 30.4286 6.31579 30.4286H16.5844C17.8868 30.4286 18.9758 29.4207 19.0993 28.1009L19.8211 20.3866C19.9623 18.8769 18.796 17.5714 17.3061 17.5714H6.31579ZM28.1789 20.3866C28.0377 18.8771 29.204 17.5714 30.6938 17.5714H41.6842C43.0795 17.5714 44.2105 18.7227 44.2105 20.1429V27.8571C44.2105 29.2773 43.0795 30.4286 41.6842 30.4286H31.4156C30.1132 30.4286 29.0242 29.4207 28.9007 28.1009L28.1789 20.3866Z" fill="#0072EF"/>
</svg>
