<svg width="49" height="49" viewBox="0 0 49 49" fill="none" xmlns="http://www.w3.org/2000/svg">
<path fill-rule="evenodd" clip-rule="evenodd" d="M24.4994 13.271C25.7178 13.271 26.8862 12.787 27.7477 11.9255C28.6092 11.064 29.0932 9.89558 29.0932 8.67725C29.0932 7.45891 28.6092 6.29047 27.7477 5.42897C26.8862 4.56748 25.7178 4.0835 24.4994 4.0835C23.2811 4.0835 22.1126 4.56748 21.2511 5.42897C20.3896 6.29047 19.9057 7.45891 19.9057 8.67725C19.9057 9.89558 20.3896 11.064 21.2511 11.9255C22.1126 12.787 23.2811 13.271 24.4994 13.271ZM37.3211 17.436C37.5785 17.5111 37.8186 17.6361 38.0276 17.804C38.2367 17.9718 38.4107 18.1792 38.5396 18.4143C38.6685 18.6494 38.7498 18.9076 38.779 19.1741C38.8081 19.4406 38.7845 19.7103 38.7094 19.9677C38.6343 20.2251 38.5093 20.4651 38.3415 20.6742C38.1736 20.8833 37.9662 21.0572 37.7311 21.1862C37.496 21.3151 37.2379 21.3964 36.9713 21.4256C36.7048 21.4547 36.4351 21.4311 36.1777 21.356C35.1306 21.0491 34.0765 20.7666 33.0162 20.5087L33.0652 20.6598C34.4005 24.8217 35.7572 29.051 33.5001 32.6954L31.0838 43.3284C30.9723 43.8178 30.6844 44.2489 30.2751 44.5395C29.8658 44.8301 29.3639 44.9597 28.8651 44.9036C28.3663 44.8476 27.9057 44.6097 27.5711 44.2356C27.2366 43.8614 27.0516 43.3771 27.0515 42.8752V36.6787C26.2389 36.7502 25.3937 36.7502 24.4994 36.7502C23.791 36.7502 23.1131 36.7502 22.4577 36.7144V42.8752C22.4574 43.377 22.2722 43.8611 21.9376 44.2351C21.603 44.6091 21.1423 44.8467 20.6436 44.9027C20.1449 44.9586 19.6431 44.8289 19.2339 44.5383C18.8248 44.2478 18.537 43.8167 18.4255 43.3274L16.2409 33.7173C12.9844 29.8524 14.4718 25.2168 15.9336 20.6608L15.9714 20.5424C14.9689 20.7792 13.9154 21.0528 12.7956 21.3631C12.2759 21.5015 11.7227 21.4293 11.256 21.1622C10.7893 20.895 10.4468 20.4546 10.3029 19.9364C10.1591 19.4183 10.2255 18.8643 10.4876 18.3948C10.7498 17.9253 11.1867 17.5782 11.7033 17.4289C16.5675 16.0783 20.4977 15.331 24.4902 15.3127C28.4888 15.2953 32.4292 16.0099 37.3211 17.436Z" fill="#0072EF"/>
</svg>
